{
.appVersion = "1075";
copyright = "Copyright © 2018 by Cadson Demak Co.,Ltd.. All rights reserved.";
customParameters = (
{
name = vendorID;
value = CDK;
},
{
name = description;
value = "Copyright (c) 2018, Cadson Demak (info@cadsondemak.com)";
},
{
name = license;

glyphs = (
{
glyphname = A;
lastChange = "2018-04-10 14:14:53 +0000";
layers = (
{
anchors = (
{
name = bottom;
position = "{320, 0}";
},
{
name = ogonek;
position = "{582, 0}";
},
{
name = top;
position = "{320, 700}";
}
);
layerId = "0B1DFD06-3317-40CA-B510-4969A0718C16";
paths = (
{
closed = 1;
nodes = (
"269 710 OFFCURVE",
"245 676 OFFCURVE",
"222 601 CURVE SMOOTH",
"35 0 LINE",
"68 0 LINE",
"258 601 LINE SMOOTH",
"277 661 OFFCURVE",
"292 680 OFFCURVE",
"320 680 CURVE SMOOTH",
"348 680 OFFCURVE",
"363 661 OFFCURVE",
"382 601 CURVE SMOOTH",
"572 0 LINE",
"605 0 LINE",
"418 601 LINE SMOOTH",
"395 676 OFFCURVE",
"371 710 OFFCURVE",
"320 710 CURVE SMOOTH"
);
},
{
closed = 1;
nodes = (
"509 261 LINE",
"509 289 LINE",
"135 289 LINE",
"135 261 LINE"
);
}
);
width = 640;
},
{
anchors = (
{
name = bottom;
position = "{361, 0}";
},
{
name = ogonek;
position = "{669, 10}";
},
{
name = top;
position = "{361, 700}";
}
);
layerId = "204D14C0-8C16-4EB3-B338-290668FF7982";
paths = (
{
closed = 1;
nodes = (
"268 712 OFFCURVE",
"225 672 OFFCURVE",
"189 558 CURVE SMOOTH",
"15 0 LINE",
"178 0 LINE",
"340 554 LINE SMOOTH",
"344 569 OFFCURVE",
"350 580 OFFCURVE",
"362 580 CURVE SMOOTH",
"372 580 OFFCURVE",
"380 570 OFFCURVE",
"384 555 CURVE SMOOTH",
"543 0 LINE",
"706 0 LINE",
"535 558 LINE SMOOTH",
"500 672 OFFCURVE",
"456 712 OFFCURVE",
"362 712 CURVE SMOOTH"
);
},
{
closed = 1;
nodes = (
"539 172 LINE",
"539 300 LINE",
"165 300 LINE",
"165 172 LINE"
);
}
);
width = 721;
},
{
anchors = (
{
name = bottom;
position = "{335, 0}";
},
{
name = ogonek;
position = "{614, 4}";
},
{
name = top;
position = "{335, 700}";
}
);
layerId = "A9086263-9647-4033-A5C5-78BCE2A7193B";
paths = (
{
closed = 1;
nodes = (
"269 711 OFFCURVE",
"238 675 OFFCURVE",
"210 585 CURVE SMOOTH",
"28 0 LINE",
"109 0 LINE",
"288 584 LINE SMOOTH",
"302 627 OFFCURVE",
"313 643 OFFCURVE",
"336 643 CURVE SMOOTH",
"357 643 OFFCURVE",
"369 627 OFFCURVE",
"383 584 CURVE SMOOTH",
"561 0 LINE",
"642 0 LINE",
"461 585 LINE SMOOTH",
"434 675 OFFCURVE",
"402 711 OFFCURVE",
"336 711 CURVE SMOOTH"
);
},
{
closed = 1;
nodes = (
"520 228 LINE",
"520 293 LINE",
"146 293 LINE",
"146 228 LINE"
);
}
);
width = 670;
}
);
note = A;
rightMetricsKey = "=|";
unicode = 0041;
},
{
glyphname = B;
lastChange = "2018-04-10 14:14:53 +0000";
layers = (
{
anchors = (
{
name = bottom;
position = "{343, 0}";
},
{
name = top;
position = "{343, 700}";
}
);
background = {
paths = (
{
closed = 1;
nodes = (
"417 365 LINE",
"523 372 OFFCURVE",
"574 452 OFFCURVE",
"574 529 CURVE SMOOTH",
"574 623 OFFCURVE",
"506 700 OFFCURVE",
"401 700 CURVE SMOOTH",
"100 700 LINE",
"100 0 LINE",
"385 0 LINE SMOOTH",
"516 0 OFFCURVE",
"595 74 OFFCURVE",
"595 192 CURVE SMOOTH",
"595 315 OFFCURVE",
"506 370 OFFCURVE",
"417 379 CURVE"
);
},
{
closed = 1;
nodes = (
"132 672 LINE",
"393 672 LINE SMOOTH",
"484 672 OFFCURVE",
"542 617 OFFCURVE",
"542 529 CURVE SMOOTH",
"542 442 OFFCURVE",
"477 386 OFFCURVE",
"393 386 CURVE SMOOTH",
"125 386 LINE",
"125 356 LINE",
"375 356 LINE SMOOTH",
"483 356 OFFCURVE",
"563 304 OFFCURVE",
"563 192 CURVE SMOOTH",
"563 87 OFFCURVE",
"496 28 OFFCURVE",
"375 28 CURVE SMOOTH",
"132 28 LINE"
);
}
);
};
guideLines = (
{
angle = 90;
position = "{604, 436}";
}
);
layerId = "0B1DFD06-3317-40CA-B510-4969A0718C16";
paths = (
{
closed = 1;
nodes = (
"385 0 LINE SMOOTH",
"516 0 OFFCURVE",
"595 74 OFFCURVE",
"595 192 CURVE SMOOTH",
"595 296.393 OFFCURVE",
"530.891 351.803 OFFCURVE",
"457.083 371.681 CURVE",
"535.889 393.633 OFFCURVE",
"574 462.437 OFFCURVE",
"574 529 CURVE SMOOTH",
"574 623 OFFCURVE",
"506 700 OFFCURVE",
"401 700 CURVE SMOOTH",
"100 700 LINE",
"100 0 LINE"
);
},
{
closed = 1;
nodes = (
"132 356 LINE",
"375 356 LINE SMOOTH",
"483 356 OFFCURVE",
"563 304 OFFCURVE",
"563 192 CURVE SMOOTH",
"563 87 OFFCURVE",
"496 28 OFFCURVE",
"375 28 CURVE SMOOTH",
"132 28 LINE"
);
},
{
closed = 1;
nodes = (
"132 672 LINE",
"393 672 LINE SMOOTH",
"484 672 OFFCURVE",
"542 617 OFFCURVE",
"542 529 CURVE SMOOTH",
"542 442 OFFCURVE",
"477 386 OFFCURVE",
"393 386 CURVE SMOOTH",
"132 386 LINE"
);
}
);
width = 655;
},
{
anchors = (
{
name = bottom;
position = "{348, 0}";
},
{
name = top;
position = "{348, 700}";
}
);
background = {
paths = (
{
closed = 1;
nodes = (
"427 0 LINE SMOOTH",
"570 0 OFFCURVE",
"660 73 OFFCURVE",
"660 192 CURVE SMOOTH",
"660 309 OFFCURVE",
"570 361 OFFCURVE",
"479 369 CURVE",
"479 355 LINE",
"588 361 OFFCURVE",
"639 437 OFFCURVE",
"639 510 CURVE SMOOTH",
"639 633 OFFCURVE",
"559 700 OFFCURVE",
"412 700 CURVE SMOOTH",
"85 700 LINE",
"85 0 LINE"
);
},
{
closed = 1;
nodes = (
"247 680 LINE",
"202 572 LINE",
"398 572 LINE SMOOTH",
"449 572 OFFCURVE",
"477 544 OFFCURVE",
"477 494 CURVE SMOOTH",
"477 444 OFFCURVE",
"449 416 OFFCURVE",
"398 416 CURVE SMOOTH",
"240 416 LINE",
"240 288 LINE",
"390 288 LINE SMOOTH",
"463 288 OFFCURVE",
"498 262 OFFCURVE",
"498 208 CURVE SMOOTH",
"498 154 OFFCURVE",
"463 128 OFFCURVE",
"390 128 CURVE SMOOTH",
"202 128 LINE",
"247 66 LINE"
);
}
);
};
layerId = "204D14C0-8C16-4EB3-B338-290668FF7982";
paths = (
{
closed = 1;
nodes = (
"429 0 LINE SMOOTH",
"572 0 OFFCURVE",
"662 73 OFFCURVE",
"662 192 CURVE SMOOTH",
"662 290 OFFCURVE",
"599 343 OFFCURVE",
"524 362 CURVE",
"604 383 OFFCURVE",
"641 447 OFFCURVE",
"641 510 CURVE SMOOTH",
"641 633 OFFCURVE",
"561 700 OFFCURVE",
"414 700 CURVE SMOOTH",
"85 700 LINE",
"85 0 LINE"
);
},
{
closed = 1;
nodes = (
"247 288 LINE",
"399 288 LINE SMOOTH",
"467 288 OFFCURVE",
"500 262 OFFCURVE",
"500 208 CURVE SMOOTH",
"500 154 OFFCURVE",
"467 128 OFFCURVE",
"399 128 CURVE SMOOTH",
"247 128 LINE"
);
},
{
closed = 1;
nodes = (
"247 572 LINE",
"403 572 LINE SMOOTH",
"448 572 OFFCURVE",
"479 542 OFFCURVE",
"479 494 CURVE SMOOTH",
"479 446 OFFCURVE",
"448 416 OFFCURVE",
"403 416 CURVE SMOOTH",
"247 416 LINE"
);
}
);
width = 707;
},
{
anchors = (
{
name = bottom;
position = "{345, 0}";
},
{
name = top;
position = "{345, 700}";
}
);
layerId = "A9086263-9647-4033-A5C5-78BCE2A7193B";
paths = (
{
closed = 1;
nodes = (
"401 0 LINE SMOOTH",
"537 0 OFFCURVE",
"620 74 OFFCURVE",
"620 192 CURVE SMOOTH",
"620 294 OFFCURVE",
"556 349 OFFCURVE",
"482 368 CURVE",
"561 390 OFFCURVE",
"599 457 OFFCURVE",
"599 522 CURVE SMOOTH",
"599 627 OFFCURVE",
"526 700 OFFCURVE",
"406 700 CURVE SMOOTH",
"94 700 LINE",
"94 0 LINE"
);
},
{
closed = 1;
nodes = (
"174 331 LINE",
"384 331 LINE SMOOTH",
"477 331 OFFCURVE",
"540 288 OFFCURVE",
"540 198 CURVE SMOOTH",
"540 112 OFFCURVE",
"485 65 OFFCURVE",
"384 65 CURVE SMOOTH",
"174 65 LINE"
);
},
{
closed = 1;
nodes = (
"174 635 LINE",
"397 635 LINE SMOOTH",
"471 635 OFFCURVE",
"519 589 OFFCURVE",
"519 516 CURVE SMOOTH",
"519 443 OFFCURVE",
"466 397 OFFCURVE",
"397 397 CURVE SMOOTH",
"174 397 LINE"
);
}
);
width = 674;
}
);
leftMetricsKey = H;
note = B;
unicode = 0042;
},
{
glyphname = C;
lastChange = "2018-04-16 15:47:51 +0000";
layers = (
{
anchors = (
{
name = bottom;
position = "{343, 0}";
},
{
name = top;
position = "{343, 700}";
}
);
background = {
paths = (
{
closed = 1;
nodes = (
"457 -10 OFFCURVE",
"532 21 OFFCURVE",
"589 93 CURVE",
"567 114 LINE",
"521 53 OFFCURVE",
"452 18 OFFCURVE",
"343 18 CURVE SMOOTH",
"189 18 OFFCURVE",
"102 99 OFFCURVE",
"102 244 CURVE SMOOTH",
"102 456 LINE SMOOTH",
"102 601 OFFCURVE",
"189 682 OFFCURVE",
"343 682 CURVE SMOOTH",
"446 682 OFFCURVE",
"513 647 OFFCURVE",
"560 579 CURVE",
"583 599 LINE",
"530 671 OFFCURVE",
"458 710 OFFCURVE",
"343 710 CURVE SMOOTH",
"168 710 OFFCURVE",
"70 619 OFFCURVE",
"70 456 CURVE SMOOTH",
"70 244 LINE SMOOTH",
"70 81 OFFCURVE",
"168 -10 OFFCURVE",
"343 -10 CURVE SMOOTH"
);
}
);
};
guideLines = (
{
angle = 90;
position = "{583, 403}";
}
);
layerId = "0B1DFD06-3317-40CA-B510-4969A0718C16";
paths = (
{
closed = 1;
nodes = (
"102 602 OFFCURVE",
"186 683 OFFCURVE",
"335 683 CURVE SMOOTH",
"436 683 OFFCURVE",
"509 652 OFFCURVE",
"558 589 CURVE",
"581 608 LINE",
"525 677 OFFCURVE",
"445 711 OFFCURVE",
"335 711 CURVE SMOOTH",
"165 711 OFFCURVE",
"70 620 OFFCURVE",
"70 457 CURVE SMOOTH",
"70 244 LINE SMOOTH",
"70 81 OFFCURVE",
"168 -10 OFFCURVE",
"343 -10 CURVE SMOOTH",
"457 -10 OFFCURVE",
"532 21 OFFCURVE",
"589 93 CURVE",
"567 114 LINE",
"521 53 OFFCURVE",
"452 18 OFFCURVE",
"343 18 CURVE SMOOTH",
"189 18 OFFCURVE",
"102 99 OFFCURVE",
"102 244 CURVE SMOOTH",
"102 457 LINE SMOOTH"
);
}
);
width = 641;
},
{
anchors = (
{
name = bottom;
position = "{352, 0}";
},
{
name = top;
position = "{352, 700}";
}
);
background = {
paths = (
{
closed = 1;
nodes = (
"491 -15 OFFCURVE",
"578 27 OFFCURVE",
"639 108 CURVE",
"557 189 LINE",
"510 139 OFFCURVE",
"453 113 OFFCURVE",
"390 113 CURVE SMOOTH",
"280 113 OFFCURVE",
"222 163 OFFCURVE",
"222 259 CURVE SMOOTH",
"222 436 LINE SMOOTH",
"222 532 OFFCURVE",
"280 582 OFFCURVE",
"382 582 CURVE SMOOTH",
"453 582 OFFCURVE",
"510 556 OFFCURVE",
"557 507 CURVE",
"643 600 LINE",
"579 672 OFFCURVE",
"491 710 OFFCURVE",
"382 710 CURVE SMOOTH",
"180 710 OFFCURVE",
"60 608 OFFCURVE",
"60 436 CURVE SMOOTH",
"60 259 LINE SMOOTH",
"60 79 OFFCURVE",
"172 -15 OFFCURVE",
"388 -15 CURVE SMOOTH"
);
}
);
};
layerId = "204D14C0-8C16-4EB3-B338-290668FF7982";
paths = (
{
closed = 1;
nodes = (
"501 -12 OFFCURVE",
"596 27 OFFCURVE",
"648 99 CURVE",
"549 196 LINE",
"502 144 OFFCURVE",
"458 116 OFFCURVE",
"377 116 CURVE SMOOTH",
"274 116 OFFCURVE",
"222 170 OFFCURVE",
"222 272 CURVE SMOOTH",
"222 428 LINE SMOOTH",
"222 530 OFFCURVE",
"273 584 OFFCURVE",
"373 584 CURVE SMOOTH",
"447 584 OFFCURVE",
"486 557 OFFCURVE",
"533 508 CURVE",
"639 595 LINE",
"594 665 OFFCURVE",
"494 712 OFFCURVE",
"373 712 CURVE SMOOTH",
"168 712 OFFCURVE",
"60 615 OFFCURVE",
"60 428 CURVE SMOOTH",
"60 272 LINE SMOOTH",
"60 85 OFFCURVE",
"169 -12 OFFCURVE",
"377 -12 CURVE SMOOTH"
);
}
);
width = 686;
},
{
anchors = (
{
name = bottom;
position = "{346, 0}";
},
{
name = top;
position = "{346, 700}";
}
);
background = {
paths = (
{
closed = 1;
nodes = (
"473 -11 OFFCURVE",
"556 23 OFFCURVE",
"611 95 CURVE",
"560 144 LINE",
"514 87 OFFCURVE",
"454 54 OFFCURVE",
"356 54 CURVE SMOOTH",
"220 54 OFFCURVE",
"146 125 OFFCURVE",
"146 254 CURVE SMOOTH",
"146 446 LINE SMOOTH",
"146 575 OFFCURVE",
"219 646 OFFCURVE",
"353 646 CURVE SMOOTH",
"446 646 OFFCURVE",
"504 614 OFFCURVE",
"552 553 CURVE",
"605 598 LINE",
"554 669 OFFCURVE",
"471 711 OFFCURVE",
"353 711 CURVE SMOOTH",
"167 711 OFFCURVE",
"66 618 OFFCURVE",
"66 446 CURVE SMOOTH",
"66 254 LINE SMOOTH",
"66 82 OFFCURVE",
"168 -11 OFFCURVE",
"356 -11 CURVE SMOOTH"
);
}
);
};
layerId = "A9086263-9647-4033-A5C5-78BCE2A7193B";
paths = (
{
closed = 1;
nodes = (
"146 575 OFFCURVE",
"215 646 OFFCURVE",
"346 646 CURVE SMOOTH",
"440 646 OFFCURVE",
"494 614 OFFCURVE",
"550 559 CURVE",
"603 606 LINE",
"544 668 OFFCURVE",
"474 711 OFFCURVE",
"346 711 CURVE SMOOTH",
"163 711 OFFCURVE",
"66 618 OFFCURVE",
"66 446 CURVE SMOOTH",
"66 254 LINE SMOOTH",
"66 82 OFFCURVE",
"168 -11 OFFCURVE",
"356 -11 CURVE SMOOTH",
"473 -11 OFFCURVE",
"556 23 OFFCURVE",
"611 95 CURVE",
"560 144 LINE",
"514 87 OFFCURVE",
"454 54 OFFCURVE",
"356 54 CURVE SMOOTH",
"220 54 OFFCURVE",
"146 125 OFFCURVE",
"146 254 CURVE SMOOTH",
"146 446 LINE SMOOTH"
);
}
);
width = 658;
}
);
leftKerningGroup = O;
leftMetricsKey = O;
note = C;
unicode = 0043;
},
{
glyphname = D;
lastChange = "2018-04-10 14:14:53 +0000";
layers = (
{
anchors = (
{
name = bottom;
position = "{349, 0}";
},
{
name = center;
position = "{349, 350}";
},
{
name = top;
position = "{349, 700}";
}
);
layerId = "0B1DFD06-3317-40CA-B510-4969A0718C16";
paths = (
{
closed = 1;
nodes = (
"342 0 LINE SMOOTH",
"551 0 OFFCURVE",
"628 91 OFFCURVE",
"628 350 CURVE SMOOTH",
"628 608 OFFCURVE",
"551 700 OFFCURVE",
"342 700 CURVE SMOOTH",
"100 700 LINE",
"100 0 LINE"
);
},
{
closed = 1;
nodes = (
"132 672 LINE",
"342 672 LINE SMOOTH",
"529 672 OFFCURVE",
"596 585 OFFCURVE",
"596 350 CURVE SMOOTH",
"596 113 OFFCURVE",
"530 28 OFFCURVE",
"342 28 CURVE SMOOTH",
"132 28 LINE"
);
}
);
width = 698;
},
{
anchors = (
{
name = bottom;
position = "{379, 0}";
},
{
name = center;
position = "{379, 350}";
},
{
name = top;
position = "{379, 700}";
}
);
layerId = "204D14C0-8C16-4EB3-B338-290668FF7982";
paths = (
{
closed = 1;
nodes = (
"336 0 LINE SMOOTH",
"594 0 OFFCURVE",
"682 90 OFFCURVE",
"682 350 CURVE SMOOTH",
"682 610 OFFCURVE",
"594 700 OFFCURVE",
"336 700 CURVE SMOOTH",
"85 700 LINE",
"85 0 LINE"
);
},
{
closed = 1;
nodes = (
"247 572 LINE",
"336 572 LINE SMOOTH",
"473 572 OFFCURVE",
"520 515 OFFCURVE",
"520 350 CURVE SMOOTH",
"520 185 OFFCURVE",
"473 128 OFFCURVE",
"336 128 CURVE SMOOTH",
"247 128 LINE"
);
}
);
width = 742;
},
{
anchors = (
{
name = bottom;
position = "{360, 0}";
},
{
name = center;
position = "{360, 350}";
},
{
name = top;
position = "{360, 700}";
}
);
layerId = "A9086263-9647-4033-A5C5-78BCE2A7193B";
paths = (
{
closed = 1;
nodes = (
"340 0 LINE SMOOTH",
"567 0 OFFCURVE",
"648 91 OFFCURVE",
"648 350 CURVE SMOOTH",
"648 609 OFFCURVE",
"567 700 OFFCURVE",
"340 700 CURVE SMOOTH",
"94 700 LINE",
"94 0 LINE"
);
},
{
closed = 1;
nodes = (
"174 635 LINE",
"340 635 LINE SMOOTH",
"508 635 OFFCURVE",
"568 559 OFFCURVE",
"568 350 CURVE SMOOTH",
"568 140 OFFCURVE",
"509 65 OFFCURVE",
"340 65 CURVE SMOOTH",
"174 65 LINE"
);
}
);
width = 714;
}
);
leftMetricsKey = H;
note = D;
rightKerningGroup = O;
rightMetricsKey = O;
unicode = 0044;
},
{
glyphname = E;
lastChange = "2018-04-10 14:14:53 +0000";
layers = (
{
anchors = (
{
name = bottom;
position = "{293, 0}";
},
{
name = ogonek;
position = "{526, 10}";
},
{
name = top;
position = "{293, 700}";
},
{
name = topleft;
position = "{20, 700}";
}
);
layerId = "0B1DFD06-3317-40CA-B510-4969A0718C16";
paths = (
{
closed = 1;
nodes = (
"540 0 LINE",
"540 28 LINE",
"286 28 LINE SMOOTH",
"158 28 OFFCURVE",
"100 83 OFFCURVE",
"100 204 CURVE SMOOTH",
"100 337 LINE",
"477 337 LINE",
"477 365 LINE",
"100 365 LINE",
"100 496 LINE SMOOTH",
"100 617 OFFCURVE",
"158 672 OFFCURVE",
"286 672 CURVE SMOOTH",
"531 672 LINE",
"531 700 LINE",
"286 700 LINE SMOOTH",
"124 700 OFFCURVE",
"68 621 OFFCURVE",
"68 496 CURVE SMOOTH",
"68 204 LINE SMOOTH",
"68 79 OFFCURVE",
"124 0 OFFCURVE",
"286 0 CURVE SMOOTH"
);
}
);
width = 591;
},
{
anchors = (
{
name = bottom;
position = "{324, 0}";
},
{
name = ogonek;
position = "{579, 10}";
},
{
name = top;
position = "{324, 700}";
},
{
name = topleft;
position = "{25, 700}";
}
);
background = {
paths = (
{
closed = 1;
nodes = (
"610 0 LINE",
"610 128 LINE",
"346 128 LINE SMOOTH",
"259 128 OFFCURVE",
"220 157 OFFCURVE",
"220 221 CURVE SMOOTH",
"220 294 LINE",
"206 287 LINE",
"547 287 LINE",
"547 415 LINE",
"208 415 LINE",
"220 403 LINE",
"220 479 LINE SMOOTH",
"220 543 OFFCURVE",
"259 572 OFFCURVE",
"346 572 CURVE SMOOTH",
"601 572 LINE",
"601 700 LINE",
"346 700 LINE SMOOTH",
"132 700 OFFCURVE",
"58 614 OFFCURVE",
"58 479 CURVE SMOOTH",
"58 221 LINE SMOOTH",
"58 86 OFFCURVE",
"132 0 OFFCURVE",
"346 0 CURVE SMOOTH"
);
}
);
};
layerId = "204D14C0-8C16-4EB3-B338-290668FF7982";
paths = (
{
closed = 1;
nodes = (
"593 0 LINE",
"593 128 LINE",
"307 128 LINE SMOOTH",
"247 128 OFFCURVE",
"220 157 OFFCURVE",
"220 221 CURVE SMOOTH",
"220 287 LINE",
"547 287 LINE",
"547 415 LINE",
"220 415 LINE",
"220 479 LINE SMOOTH",
"220 543 OFFCURVE",
"247 572 OFFCURVE",
"307 572 CURVE SMOOTH",
"591 572 LINE",
"591 700 LINE",
"307 700 LINE SMOOTH",
"122 700 OFFCURVE",
"58 614 OFFCURVE",
"58 479 CURVE SMOOTH",
"58 221 LINE SMOOTH",
"58 86 OFFCURVE",
"122 0 OFFCURVE",
"307 0 CURVE SMOOTH"
);
}
);
width = 643;
},
{
anchors = (
{
name = bottom;
position = "{304, 0}";
},
{
name = ogonek;
position = "{546, 10}";
},
{
name = top;
position = "{304, 700}";
},
{
name = topleft;
position = "{22, 700}";
}
);
layerId = "A9086263-9647-4033-A5C5-78BCE2A7193B";
paths = (
{
closed = 1;
nodes = (
"560 0 LINE",
"560 65 LINE",
"294 65 LINE SMOOTH",
"191 65 OFFCURVE",
"144 110 OFFCURVE",
"144 210 CURVE SMOOTH",
"144 319 LINE",
"503 319 LINE",
"503 383 LINE",
"144 383 LINE",
"144 490 LINE SMOOTH",
"144 590 OFFCURVE",
"191 635 OFFCURVE",
"294 635 CURVE SMOOTH",
"553 635 LINE",
"553 700 LINE",
"294 700 LINE SMOOTH",
"123 700 OFFCURVE",
"64 618 OFFCURVE",
"64 490 CURVE SMOOTH",
"64 210 LINE SMOOTH",
"64 82 OFFCURVE",
"123 0 OFFCURVE",
"294 0 CURVE SMOOTH"
);
}
);
width = 610;
}
);
note = E;
unicode = 0045;
},
{
glyphname = F;
lastChange = "2018-04-10 14:14:53 +0000";
layers = (
{
anchors = (
{
name = bottom;
position = "{287, 0}";
},
{
name = top;
position = "{287, 700}";
}
);
layerId = "0B1DFD06-3317-40CA-B510-4969A0718C16";
paths = (
{
closed = 1;
nodes = (
"107 0 LINE",
"107 315 LINE",
"484 315 LINE",
"484 343 LINE",
"107 343 LINE",
"107 496 LINE SMOOTH",
"107 617 OFFCURVE",
"165 672 OFFCURVE",
"293 672 CURVE SMOOTH",
"518 672 LINE",
"518 700 LINE",
"293 700 LINE SMOOTH",
"131 700 OFFCURVE",
"75 621 OFFCURVE",
"75 496 CURVE SMOOTH",
"75 0 LINE"
);
}
);
width = 568;
},
{
anchors = (
{
name = bottom;
position = "{307, 0}";
},
{
name = top;
position = "{307, 700}";
}
);
background = {
paths = (
{
closed = 1;
nodes = (
"227 0 LINE",
"227 265 LINE",
"514 265 LINE",
"514 393 LINE",
"227 393 LINE",
"227 505 LINE SMOOTH",
"227 552 OFFCURVE",
"241 572 OFFCURVE",
"283 572 CURVE SMOOTH",
"568 572 LINE",
"568 700 LINE",
"283 700 LINE SMOOTH",
"121 700 OFFCURVE",
"65 621 OFFCURVE",
"65 496 CURVE SMOOTH",
"65 0 LINE"
);
}
);
};
layerId = "204D14C0-8C16-4EB3-B338-290668FF7982";
paths = (
{
closed = 1;
nodes = (
"227 0 LINE",
"227 265 LINE",
"514 265 LINE",
"514 393 LINE",
"227 393 LINE",
"227 505 LINE SMOOTH",
"227 552 OFFCURVE",
"244 572 OFFCURVE",
"293 572 CURVE SMOOTH",
"568 572 LINE",
"568 700 LINE",
"293 700 LINE SMOOTH",
"124 700 OFFCURVE",
"65 621 OFFCURVE",
"65 496 CURVE SMOOTH",
"65 0 LINE"
);
}
);
width = 608;
},
{
anchors = (
{
name = bottom;
position = "{294, 0}";
},
{
name = top;
position = "{294, 700}";
}
);
layerId = "A9086263-9647-4033-A5C5-78BCE2A7193B";
paths = (
{
closed = 1;
nodes = (
"151 0 LINE",
"151 297 LINE",
"495 297 LINE",
"495 361 LINE",
"151 361 LINE",
"151 499 LINE SMOOTH",
"151 593 OFFCURVE",
"194 635 OFFCURVE",
"293 635 CURVE SMOOTH",
"536 635 LINE",
"536 700 LINE",
"293 700 LINE SMOOTH",
"128 700 OFFCURVE",
"71 621 OFFCURVE",
"71 496 CURVE SMOOTH",
"71 0 LINE"
);
}
);
width = 583;
}
);
note = F;
unicode = 0046;
},
{
color = 4;
glyphname = G;
lastChange = "2018-04-16 16:26:14 +0000";
layers = (
{
anchors = (
{
name = bottom;
position = "{334, 0}";
},
{
name = top;
position = "{334, 700}";
}
);
background = {
paths = (
{
closed = 1;
nodes = (
"497 -10 OFFCURVE",
"600 59 OFFCURVE",
"600 168 CURVE SMOOTH",
"600 251 LINE SMOOTH",
"600 341 OFFCURVE",
"549 388 OFFCURVE",
"456 388 CURVE SMOOTH",
"333 388 LINE",
"333 361 LINE",
"456 361 LINE SMOOTH",
"515 361 OFFCURVE",
"569 337 OFFCURVE",
"569 251 CURVE SMOOTH",
"569 168 LINE SMOOTH",
"569 76 OFFCURVE",
"478 18 OFFCURVE",
"335 18 CURVE SMOOTH",
"186 18 OFFCURVE",
"102 99 OFFCURVE",
"102 244 CURVE SMOOTH",
"102 456 LINE SMOOTH",
"102 601 OFFCURVE",
"186 682 OFFCURVE",
"335 682 CURVE SMOOTH",
"438 682 OFFCURVE",
"505 647 OFFCURVE",
"552 579 CURVE",
"575 599 LINE SMOOTH",
"522 671 OFFCURVE",
"450 710 OFFCURVE",
"335 710 CURVE SMOOTH",
"165 710 OFFCURVE",
"70 619 OFFCURVE",
"70 456 CURVE SMOOTH",
"70 244 LINE SMOOTH",
"70 81 OFFCURVE",
"165 -10 OFFCURVE",
"335 -10 CURVE SMOOTH"
);
},
{
closed = 1;
nodes = (
"102 602 OFFCURVE",
"186 683 OFFCURVE",
"335 683 CURVE SMOOTH",
"436 683 OFFCURVE",
"508 650 OFFCURVE",
"558 589 CURVE",
"581 608 LINE",
"525 677 OFFCURVE",
"445 711 OFFCURVE",
"335 711 CURVE SMOOTH",
"165 711 OFFCURVE",
"70 620 OFFCURVE",
"70 457 CURVE SMOOTH",
"70 244 LINE SMOOTH",
"70 81 OFFCURVE",
"165 -10 OFFCURVE",
"335 -10 CURVE SMOOTH",
"497 -10 OFFCURVE",
"600 59 OFFCURVE",
"600 168 CURVE SMOOTH",
"600 251 LINE SMOOTH",
"600 341 OFFCURVE",
"549 388 OFFCURVE",
"456 388 CURVE SMOOTH",
"333 388 LINE",
"333 361 LINE",
"456 361 LINE SMOOTH",
"515 361 OFFCURVE",
"569 337 OFFCURVE",
"569 251 CURVE SMOOTH",
"569 168 LINE SMOOTH",
"569 76 OFFCURVE",
"478 18 OFFCURVE",
"335 18 CURVE SMOOTH",
"186 18 OFFCURVE",
"102 99 OFFCURVE",
"102 244 CURVE SMOOTH",
"102 457 LINE SMOOTH"
);
}
);
};
layerId = "0B1DFD06-3317-40CA-B510-4969A0718C16";
paths = (
{
closed = 1;
nodes = (
"582 630 LINE",
"520 685 OFFCURVE",
"451 711 OFFCURVE",
"333 711 CURVE SMOOTH",
"164 711 OFFCURVE",
"70 620 OFFCURVE",
"70 457 CURVE SMOOTH",
"70 244 LINE SMOOTH",
"70 81 OFFCURVE",
"165 -10 OFFCURVE",
"335 -10 CURVE SMOOTH",
"497 -10 OFFCURVE",
"600 59 OFFCURVE",
"600 168 CURVE SMOOTH",
"600 251 LINE SMOOTH",
"600 341 OFFCURVE",
"549 388 OFFCURVE",
"456 388 CURVE SMOOTH",
"333 388 LINE",
"333 361 LINE",
"456 361 LINE SMOOTH",
"515 361 OFFCURVE",
"569 337 OFFCURVE",
"569 251 CURVE SMOOTH",
"569 168 LINE SMOOTH",
"569 76 OFFCURVE",
"478 18 OFFCURVE",
"335 18 CURVE SMOOTH",
"186 18 OFFCURVE",
"102 99 OFFCURVE",
"102 244 CURVE SMOOTH",
"102 457 LINE SMOOTH",
"102 602 OFFCURVE",
"185 683 OFFCURVE",
"333 683 CURVE SMOOTH",
"435 683 OFFCURVE",
"511 657 OFFCURVE",
"562 607 CURVE"
);
}
);
width = 658;
},
{
anchors = (
{
name = bottom;
position = "{358, 0}";
},
{
name = top;
position = "{358, 700}";
}
);
background = {
paths = (
{
closed = 1;
nodes = (
"551 -12 OFFCURVE",
"660 60 OFFCURVE",
"660 180 CURVE SMOOTH",
"660 241 LINE SMOOTH",
"660 345 OFFCURVE",
"608 393 OFFCURVE",
"496 393 CURVE SMOOTH",
"342 393 LINE",
"342 263 LINE",
"456 263 LINE SMOOTH",
"486 263 OFFCURVE",
"501 249 OFFCURVE",
"501 221 CURVE SMOOTH",
"501 190 LINE SMOOTH",
"501 142 OFFCURVE",
"458 116 OFFCURVE",
"377 116 CURVE SMOOTH",
"278 116 OFFCURVE",
"222 170 OFFCURVE",
"222 272 CURVE SMOOTH",
"222 428 LINE SMOOTH",
"222 530 OFFCURVE",
"271 584 OFFCURVE",
"377 584 CURVE SMOOTH",
"444 584 OFFCURVE",
"492 557 OFFCURVE",
"539 508 CURVE",
"643 595 LINE",
"597 665 OFFCURVE",
"495 712 OFFCURVE",
"377 712 CURVE SMOOTH",
"166 712 OFFCURVE",
"60 615 OFFCURVE",
"60 428 CURVE SMOOTH",
"60 272 LINE SMOOTH",
"60 86 OFFCURVE",
"165 -12 OFFCURVE",
"377 -12 CURVE SMOOTH"
);
}
);
};
layerId = "204D14C0-8C16-4EB3-B338-290668FF7982";
paths = (
{
closed = 1;
nodes = (
"644 607 LINE",
"595 670 OFFCURVE",
"502 712 OFFCURVE",
"377 712 CURVE SMOOTH",
"166 712 OFFCURVE",
"60 615 OFFCURVE",
"60 428 CURVE SMOOTH",
"60 272 LINE SMOOTH",
"60 86 OFFCURVE",
"165 -12 OFFCURVE",
"377 -12 CURVE SMOOTH",
"551 -12 OFFCURVE",
"660 60 OFFCURVE",
"660 180 CURVE SMOOTH",
"660 241 LINE SMOOTH",
"660 345 OFFCURVE",
"608 393 OFFCURVE",
"496 393 CURVE SMOOTH",
"342 393 LINE",
"342 263 LINE",
"456 263 LINE SMOOTH",
"486 263 OFFCURVE",
"501 249 OFFCURVE",
"501 221 CURVE SMOOTH",
"501 190 LINE SMOOTH",
"501 142 OFFCURVE",
"458 116 OFFCURVE",
"377 116 CURVE SMOOTH",
"278 116 OFFCURVE",
"222 170 OFFCURVE",
"222 272 CURVE SMOOTH",
"222 428 LINE SMOOTH",
"222 530 OFFCURVE",
"271 584 OFFCURVE",
"377 584 CURVE SMOOTH",
"448 584 OFFCURVE",
"502 558 OFFCURVE",
"549 512 CURVE"
);
}
);
width = 704;
},
{
anchors = (
{
name = bottom;
position = "{343, 0}";
},
{
name = top;
position = "{343, 700}";
}
);
background = {
paths = (
{
closed = 1;
nodes = (
"517 -11 OFFCURVE",
"622 59 OFFCURVE",
"622 172 CURVE SMOOTH",
"622 247 LINE SMOOTH",
"622 342 OFFCURVE",
"571 390 OFFCURVE",
"471 390 CURVE SMOOTH",
"336 390 LINE",
"336 325 LINE",
"456 325 LINE SMOOTH",
"504 325 OFFCURVE",
"544 305 OFFCURVE",
"544 240 CURVE SMOOTH",
"544 176 LINE SMOOTH",
"544 100 OFFCURVE",
"471 54 OFFCURVE",
"351 54 CURVE SMOOTH",
"220 54 OFFCURVE",
"146 125 OFFCURVE",
"146 254 CURVE SMOOTH",
"146 446 LINE SMOOTH",
"146 575 OFFCURVE",
"215 646 OFFCURVE",
"346 646 CURVE SMOOTH",
"440 646 OFFCURVE",
"494 614 OFFCURVE",
"550 559 CURVE",
"603 606 LINE",
"544 668 OFFCURVE",
"474 711 OFFCURVE",
"346 711 CURVE SMOOTH",
"163 711 OFFCURVE",
"66 618 OFFCURVE",
"66 446 CURVE SMOOTH",
"66 254 LINE SMOOTH",
"66 83 OFFCURVE",
"165 -11 OFFCURVE",
"351 -11 CURVE SMOOTH"
);
}
);
};
layerId = "A9086263-9647-4033-A5C5-78BCE2A7193B";
paths = (
{
closed = 1;
nodes = (
"608 616 LINE",
"540 678 OFFCURVE",
"481 711 OFFCURVE",
"346 711 CURVE SMOOTH",
"163 711 OFFCURVE",
"66 618 OFFCURVE",
"66 446 CURVE SMOOTH",
"66 254 LINE SMOOTH",
"66 83 OFFCURVE",
"165 -11 OFFCURVE",
"351 -11 CURVE SMOOTH",
"517 -11 OFFCURVE",
"622 59 OFFCURVE",
"622 172 CURVE SMOOTH",
"622 247 LINE SMOOTH",
"622 342 OFFCURVE",
"571 390 OFFCURVE",
"471 390 CURVE SMOOTH",
"336 390 LINE",
"336 325 LINE",
"456 325 LINE SMOOTH",
"504 325 OFFCURVE",
"544 305 OFFCURVE",
"544 240 CURVE SMOOTH",
"544 176 LINE SMOOTH",
"544 100 OFFCURVE",
"471 54 OFFCURVE",
"351 54 CURVE SMOOTH",
"220 54 OFFCURVE",
"146 125 OFFCURVE",
"146 254 CURVE SMOOTH",
"146 446 LINE SMOOTH",
"146 575 OFFCURVE",
"215 646 OFFCURVE",
"346 646 CURVE SMOOTH",
"445 646 OFFCURVE",
"504 617 OFFCURVE",
"560 563 CURVE"
);
}
);
width = 675;
}
);
leftKerningGroup = O;
leftMetricsKey = O;
note = G;
unicode = 0047;
},
{
glyphname = H;
lastChange = "2018-04-10 14:14:53 +0000";
layers = (
{
anchors = (
{
name = bottom;
position = "{358, 0}";
},
{
name = center;
position = "{358, 350}";
},
{
name = top;
position = "{358, 700}";
},
{
name = topleft;
position = "{20, 700}";
}
);
layerId = "0B1DFD06-3317-40CA-B510-4969A0718C16";
paths = (
{
closed = 1;
nodes = (
"132 0 LINE",
"132 337 LINE",
"584 337 LINE",
"584 0 LINE",
"616 0 LINE",
"616 700 LINE",
"584 700 LINE",
"584 365 LINE",
"132 365 LINE",
"132 700 LINE",
"100 700 LINE",
"100 0 LINE"
);
}
);
width = 716;
},
{
anchors = (
{
name = bottom;
position = "{383, 0}";
},
{
name = center;
position = "{383, 350}";
},
{
name = top;
position = "{383, 700}";
},
{
name = topleft;
position = "{25, 700}";
}
);
background = {
paths = (
{
closed = 1;
nodes = (
"18 394 OFFCURVE",
"57 351 OFFCURVE",
"119 341 CURVE",
"117 328 OFFCURVE",
"113 301 OFFCURVE",
"113 268 CURVE SMOOTH",
"113 0 LINE",
"605 0 LINE",
"605 557 LINE",
"443 557 LINE",
"443 115 LINE",
"275 115 LINE",
"275 448 LINE SMOOTH",
"275 520 OFFCURVE",
"227 565 OFFCURVE",
"147 565 CURVE SMOOTH",
"71 565 OFFCURVE",
"18 522 OFFCURVE",
"18 452 CURVE SMOOTH"
);
},
{
closed = 1;
nodes = (
"113 473 OFFCURVE",
"128 487 OFFCURVE",
"147 487 CURVE SMOOTH",
"167 487 OFFCURVE",
"181 473 OFFCURVE",
"181 452 CURVE SMOOTH",
"181 433 OFFCURVE",
"167 417 OFFCURVE",
"147 417 CURVE SMOOTH",
"128 417 OFFCURVE",
"113 433 OFFCURVE",
"113 452 CURVE SMOOTH"
);
},
{
closed = 1;
nodes = (
"246 0 LINE",
"246 700 LINE",
"70 700 LINE",
"70 0 LINE"
);
}
);
};
layerId = "204D14C0-8C16-4EB3-B338-290668FF7982";
paths = (
{
closed = 1;
nodes = (
"247 0 LINE",
"247 287 LINE",
"519 287 LINE",
"519 0 LINE",
"681 0 LINE",
"681 700 LINE",
"519 700 LINE",
"519 415 LINE",
"247 415 LINE",
"247 700 LINE",
"85 700 LINE",
"85 0 LINE"
);
}
);
width = 766;
},
{
anchors = (
{
name = bottom;
position = "{367, 0}";
},
{
name = center;
position = "{367, 350}";
},
{
name = top;
position = "{367, 700}";
},
{
name = topleft;
position = "{22, 700}";
}
);
layerId = "A9086263-9647-4033-A5C5-78BCE2A7193B";
paths = (
{
closed = 1;
nodes = (
"174 0 LINE",
"174 319 LINE",
"560 319 LINE",
"560 0 LINE",
"640 0 LINE",
"640 700 LINE",
"560 700 LINE",
"560 383 LINE",
"174 383 LINE",
"174 700 LINE",
"94 700 LINE",
"94 0 LINE"
);
}
);
width = 734;
}
);
note = H;
rightMetricsKey = "=|";
unicode = 0048;
},
{
glyphname = I;
lastChange = "2018-04-10 14:14:53 +0000";
layers = (
{
anchors = (
{
name = bottom;
position = "{116, 0}";
},
{
name = ogonek;
position = "{209, 10}";
},
{
name = top;
position = "{116, 700}";
},
{
name = topleft;
position = "{20, 700}";
}
);
background = {
paths = (
{
closed = 1;
nodes = (
"74 703 LINE",
"74 0 LINE",
"118 0 LINE",
"120 703 LINE"
);
}
);
};
layerId = "0B1DFD06-3317-40CA-B510-4969A0718C16";
paths = (
{
closed = 1;
nodes = (
"132 0 LINE",
"132 700 LINE",
"100 700 LINE",
"100 0 LINE"
);
}
);
width = 232;
},
{
anchors = (
{
name = bottom;
position = "{166, 0}";
},
{
name = ogonek;
position = "{259, 10}";
},
{
name = top;
position = "{166, 700}";
},
{
name = topleft;
position = "{70, 700}";
}
);
layerId = "204D14C0-8C16-4EB3-B338-290668FF7982";
paths = (
{
closed = 1;
nodes = (
"247 0 LINE",
"247 700 LINE",
"85 700 LINE",
"85 0 LINE"
);
}
);
width = 332;
},
{
anchors = (
{
name = bottom;
position = "{134, 0}";
},
{
name = ogonek;
position = "{227, 10}";
},
{
name = top;
position = "{134, 700}";
},
{
name = topleft;
position = "{38, 700}";
}
);
layerId = "A9086263-9647-4033-A5C5-78BCE2A7193B";
paths = (
{
closed = 1;
nodes = (
"174 0 LINE",
"174 700 LINE",
"94 700 LINE",
"94 0 LINE"
);
}
);
width = 268;
}
);
leftMetricsKey = H;
note = I;
rightMetricsKey = "=|";
unicode = 0049;
},
{
glyphname = J;
lastChange = "2018-04-10 14:14:53 +0000";
layers = (
{
anchors = (
{
name = bottom;
position = "{255, 0}";
},
{
name = top;
position = "{416, 700}";
}
);
background = {
paths = (
{
closed = 1;
nodes = (
"382 -10 OFFCURVE",
"434 61 OFFCURVE",
"434 177 CURVE SMOOTH",
"434 700 LINE",
"400 700 LINE",
"400 177 LINE SMOOTH",
"400 76 OFFCURVE",
"355 20 OFFCURVE",
"275 20 CURVE SMOOTH",
"201 20 OFFCURVE",
"153 63 OFFCURVE",
"152 141 CURVE",
"118 141 LINE",
"118 44 OFFCURVE",
"172 -10 OFFCURVE",
"275 -10 CURVE SMOOTH"
);
}
);
};
layerId = "0B1DFD06-3317-40CA-B510-4969A0718C16";
paths = (
{
closed = 1;
nodes = (
"334 -10 OFFCURVE",
"432 39 OFFCURVE",
"432 179 CURVE SMOOTH",
"432 700 LINE",
"400 700 LINE",
"400 181 LINE SMOOTH",
"400 79 OFFCURVE",
"342 18 OFFCURVE",
"232 18 CURVE SMOOTH",
"155 18 OFFCURVE",
"104 44 OFFCURVE",
"67 90 CURVE",
"45 68 LINE",
"97 11 OFFCURVE",
"152 -10 OFFCURVE",
"232 -10 CURVE SMOOTH"
);
}
);
width = 507;
},
{
anchors = (
{
name = bottom;
position = "{285, 0}";
},
{
name = top;
position = "{467, 700}";
}
);
layerId = "204D14C0-8C16-4EB3-B338-290668FF7982";
paths = (
{
closed = 1;
nodes = (
"446 -12 OFFCURVE",
"548 82 OFFCURVE",
"548 262 CURVE SMOOTH",
"548 700 LINE",
"386 700 LINE",
"386 264 LINE SMOOTH",
"386 167 OFFCURVE",
"343 116 OFFCURVE",
"261 116 CURVE SMOOTH",
"207 116 OFFCURVE",
"156 136 OFFCURVE",
"99 179 CURVE",
"31 68 LINE",
"110 7 OFFCURVE",
"189 -12 OFFCURVE",
"265 -12 CURVE SMOOTH"
);
}
);
width = 613;
},
{
anchors = (
{
name = bottom;
position = "{266, 0}";
},
{
name = top;
position = "{435, 700}";
}
);
layerId = "A9086263-9647-4033-A5C5-78BCE2A7193B";
paths = (
{
closed = 1;
nodes = (
"375 -11 OFFCURVE",
"475 55 OFFCURVE",
"475 210 CURVE SMOOTH",
"475 700 LINE",
"395 700 LINE",
"395 212 LINE SMOOTH",
"395 111 OFFCURVE",
"342 54 OFFCURVE",
"243 54 CURVE SMOOTH",
"174 54 OFFCURVE",
"123 78 OFFCURVE",
"79 123 CURVE",
"40 68 LINE",
"102 10 OFFCURVE",
"166 -11 OFFCURVE",
"244 -11 CURVE SMOOTH"
);
}
);
width = 546;
}
);
note = J;
unicode = 004A;
},
{
glyphname = K;
lastChange = "2018-04-10 14:14:53 +0000";
layers = (
{
anchors = (
{
name = bottom;
position = "{324, 0}";
},
{
name = top;
position = "{324, 700}";
}
);
background = {
paths = (
{
closed = 1;
nodes = (
"557 700 LINE",
"508 700 LINE",
"112 317 LINE",
"112 270 LINE"
);
},
{
closed = 1;
nodes = (
"132 0 LINE",
"132 700 LINE",
"100 700 LINE",
"100 0 LINE"
);
},
{
closed = 1;
nodes = (
"567 0 LINE",
"567 220 LINE SMOOTH",
"567 382 OFFCURVE",
"481 461 OFFCURVE",
"304 464 CURVE",
"276 434 LINE",
"450 434 OFFCURVE",
"533 374 OFFCURVE",
"533 220 CURVE SMOOTH",
"533 0 LINE"
);
},
{
closed = 1;
nodes = (
"616 700 LINE",
"572 700 LINE",
"116 272 LINE",
"111 225 LINE"
);
},
{
closed = 1;
nodes = (
"132 0 LINE",
"132 700 LINE",
"100 700 LINE",
"100 0 LINE"
);
},
{
closed = 1;
nodes = (
"616 0 LINE",
"522 263 LINE SMOOTH",
"488 357 OFFCURVE",
"455 423 OFFCURVE",
"295 426 CURVE",
"268 398 LINE",
"425 398 OFFCURVE",
"456 357 OFFCURVE",
"490 263 CURVE SMOOTH",
"584 0 LINE"
);
},
{
closed = 1;
nodes = (
"556 697 LINE",
"494 697 LINE",
"137 352 LINE",
"137 700 LINE",
"91 700 LINE",
"91 0 LINE",
"137 0 LINE",
"137 284 LINE",
"292 438 LINE",
"345 434 OFFCURVE",
"404 422 OFFCURVE",
"450 389 CURVE SMOOTH",
"495 357 OFFCURVE",
"524 304 OFFCURVE",
"523 220 CURVE SMOOTH",
"521 -1 LINE",
"567 -1 LINE",
"567 223 LINE SMOOTH",
"567 316 OFFCURVE",
"538 376 OFFCURVE",
"494 415 CURVE SMOOTH",
"450 454 OFFCURVE",
"392 469 OFFCURVE",
"330 475 CURVE"
);
}
);
};
layerId = "0B1DFD06-3317-40CA-B510-4969A0718C16";
paths = (
{
closed = 1;
nodes = (
"116 259 LINE",
"111 212 LINE",
"606 700 LINE",
"562 700 LINE"
);
},
{
closed = 1;
nodes = (
"132 0 LINE",
"132 700 LINE",
"100 700 LINE",
"100 0 LINE"
);
},
{
closed = 1;
nodes = (
"597 0 LINE",
"532 263 LINE SMOOTH",
"507 364 OFFCURVE",
"468 432 OFFCURVE",
"314 435 CURVE",
"287 407 LINE",
"438 407 OFFCURVE",
"475 365 OFFCURVE",
"500 263 CURVE SMOOTH",
"565 0 LINE"
);
}
);
width = 644;
},
{
anchors = (
{
name = bottom;
position = "{329, 0}";
},
{
name = top;
position = "{329, 700}";
}
);
background = {
paths = (
{
closed = 1;
nodes = (
"703 0 LINE",
"364 466 LINE",
"250 358 LINE",
"521 0 LINE"
);
}
);
};
layerId = "204D14C0-8C16-4EB3-B338-290668FF7982";
paths = (
{
closed = 1;
nodes = (
"161 312 LINE",
"161 107 LINE",
"696 700 LINE",
"502 700 LINE"
);
},
{
closed = 1;
nodes = (
"247 0 LINE",
"247 700 LINE",
"85 700 LINE",
"85 0 LINE"
);
},
{
closed = 1;
nodes = (
"702 0 LINE",
"652 224 LINE SMOOTH",
"616 386 OFFCURVE",
"551 431 OFFCURVE",
"389 444 CURVE",
"323 329 LINE",
"453 324 OFFCURVE",
"480 292 OFFCURVE",
"498 210 CURVE SMOOTH",
"544 0 LINE"
);
}
);
width = 737;
},
{
anchors = (
{
name = bottom;
position = "{326, 0}";
},
{
name = top;
position = "{326, 700}";
}
);
layerId = "A9086263-9647-4033-A5C5-78BCE2A7193B";
paths = (
{
closed = 1;
nodes = (
"133 279 LINE",
"129 173 LINE",
"639 700 LINE",
"540 700 LINE"
);
},
{
closed = 1;
nodes = (
"174 0 LINE",
"174 700 LINE",
"94 700 LINE",
"94 0 LINE"
);
},
{
closed = 1;
nodes = (
"636 0 LINE",
"576 249 LINE SMOOTH",
"547 372 OFFCURVE",
"499 432 OFFCURVE",
"342 438 CURVE",
"300 378 LINE",
"444 376 OFFCURVE",
"477 338 OFFCURVE",
"499 243 CURVE SMOOTH",
"557 0 LINE"
);
}
);
width = 678;
}
);
leftMetricsKey = H;
note = K;
unicode = 004B;
},
{
glyphname = L;
lastChange = "2018-04-10 14:14:53 +0000";
layers = (
{
anchors = (
{
name = bottom;
position = "{279, 0}";
},
{
name = center;
position = "{279, 350}";
},
{
name = top;
position = "{91, 700}";
},
{
name = topright;
position = "{538, 700}";
}
);
layerId = "0B1DFD06-3317-40CA-B510-4969A0718C16";
paths = (
{
closed = 1;
nodes = (
"75 204 LINE SMOOTH",
"75 79 OFFCURVE",
"131 0 OFFCURVE",
"293 0 CURVE SMOOTH",
"508 0 LINE",
"508 28 LINE",
"293 28 LINE SMOOTH",
"165 28 OFFCURVE",
"107 83 OFFCURVE",
"107 204 CURVE SMOOTH",
"107 700 LINE",
"75 700 LINE"
);
}
);
width = 548;
},
{
anchors = (
{
name = bottom;
position = "{291, 0}";
},
{
name = center;
position = "{291, 350}";
},
{
name = top;
position = "{291, 700}";
},
{
name = topright;
position = "{562, 700}";
}
);
layerId = "204D14C0-8C16-4EB3-B338-290668FF7982";
paths = (
{
closed = 1;
nodes = (
"65 204 LINE SMOOTH",
"65 64 OFFCURVE",
"134 0 OFFCURVE",
"283 0 CURVE SMOOTH",
"556 0 LINE",
"556 128 LINE",
"313 128 LINE SMOOTH",
"254 128 OFFCURVE",
"227 152 OFFCURVE",
"227 204 CURVE SMOOTH",
"227 700 LINE",
"65 700 LINE"
);
}
);
width = 582;
},
{
anchors = (
{
name = bottom;
position = "{283, 0}";
},
{
name = center;
position = "{283, 350}";
},
{
name = top;
position = "{165, 700}";
},
{
name = topright;
position = "{547, 700}";
}
);
layerId = "A9086263-9647-4033-A5C5-78BCE2A7193B";
paths = (
{
closed = 1;
nodes = (
"71 204 LINE SMOOTH",
"71 73 OFFCURVE",
"132 0 OFFCURVE",
"289 0 CURVE SMOOTH",
"526 0 LINE",
"526 65 LINE",
"300 65 LINE SMOOTH",
"198 65 OFFCURVE",
"151 108 OFFCURVE",
"151 204 CURVE SMOOTH",
"151 700 LINE",
"71 700 LINE"
);
}
);
width = 561;
}
);
note = L;
unicode = 004C;
},
{
glyphname = M;
lastChange = "2018-04-10 14:14:53 +0000";
layers = (
{
anchors = (
{
name = bottom;
position = "{386, 0}";
},
{
name = top;
position = "{386, 700}";
}
);
background = {
paths = (
{
closed = 1;
nodes = (
"132 0 LINE",
"132 659 LINE",
"208 591 OFFCURVE",
"315 411 OFFCURVE",
"386 230 CURVE",
"457 411 OFFCURVE",
"564 591 OFFCURVE",
"640 659 CURVE",
"640 0 LINE",
"672 0 LINE",
"672 700 LINE",
"640 700 LINE",
"551 623 OFFCURVE",
"445 459 OFFCURVE",
"386 304 CURVE",
"327 459 OFFCURVE",
"221 623 OFFCURVE",
"132 700 CURVE",
"100 700 LINE",
"100 0 LINE"
);
}
);
};
layerId = "0B1DFD06-3317-40CA-B510-4969A0718C16";
paths = (
{
closed = 1;
nodes = (
"132 0 LINE",
"132 672 LINE",
"158 670 OFFCURVE",
"169 658 OFFCURVE",
"180 637 CURVE SMOOTH",
"406 209 LINE",
"632 637 LINE SMOOTH",
"643 658 OFFCURVE",
"654 670 OFFCURVE",
"680 672 CURVE",
"680 0 LINE",
"712 0 LINE",
"712 700 LINE",
"687 700 LINE SMOOTH",
"664 700 OFFCURVE",
"631 697 OFFCURVE",
"607 652 CURVE SMOOTH",
"406 273 LINE",
"205 652 LINE SMOOTH",
"182 696 OFFCURVE",
"148 700 OFFCURVE",
"125 700 CURVE SMOOTH",
"100 700 LINE",
"100 0 LINE"
);
}
);
width = 812;
},
{
anchors = (
{
name = bottom;
position = "{433, 0}";
},
{
name = top;
position = "{433, 700}";
}
);
layerId = "204D14C0-8C16-4EB3-B338-290668FF7982";
paths = (
{
closed = 1;
nodes = (
"232 0 LINE",
"232 554 LINE",
"249 553 OFFCURVE",
"259 534 OFFCURVE",
"276 503 CURVE SMOOTH",
"436 206 LINE",
"596 503 LINE SMOOTH",
"613 534 OFFCURVE",
"623 553 OFFCURVE",
"640 553 CURVE",
"640 0 LINE",
"787 0 LINE",
"787 700 LINE",
"685 700 LINE SMOOTH",
"574 700 OFFCURVE",
"542 657 OFFCURVE",
"484 540 CURVE SMOOTH",
"436 443 LINE",
"388 540 LINE SMOOTH",
"330 657 OFFCURVE",
"298 700 OFFCURVE",
"187 700 CURVE SMOOTH",
"85 700 LINE",
"85 0 LINE"
);
}
);
width = 872;
},
{
anchors = (
{
name = bottom;
position = "{403, 0}";
},
{
name = top;
position = "{403, 700}";
}
);
layerId = "A9086263-9647-4033-A5C5-78BCE2A7193B";
paths = (
{
closed = 1;
nodes = (
"169 0 LINE",
"169 628 LINE",
"192 627 OFFCURVE",
"202 612 OFFCURVE",
"215 588 CURVE SMOOTH",
"417 208 LINE",
"619 588 LINE SMOOTH",
"632 612 OFFCURVE",
"643 627 OFFCURVE",
"665 628 CURVE",
"665 0 LINE",
"740 0 LINE",
"740 700 LINE",
"686 700 LINE SMOOTH",
"631 700 OFFCURVE",
"598 682 OFFCURVE",
"562 611 CURVE SMOOTH",
"417 336 LINE",
"273 611 LINE SMOOTH",
"237 682 OFFCURVE",
"203 700 OFFCURVE",
"148 700 CURVE SMOOTH",
"94 700 LINE",
"94 0 LINE"
);
}
);
width = 834;
}
);
leftMetricsKey = H;
note = M;
rightMetricsKey = H;
unicode = 004D;
},
{
glyphname = N;
lastChange = "2018-04-10 14:14:53 +0000";
layers = (
{
anchors = (
{
name = bottom;
position = "{351, 0}";
},
{
name = top;
position = "{351, 700}";
}
);
background = {
paths = (
{
closed = 1;
nodes = (
"569 2 LINE SMOOTH",
"589 14 OFFCURVE",
"612 33 OFFCURVE",
"612 85 CURVE SMOOTH",
"612 700 LINE",
"580 700 LINE",
"580 85 LINE SMOOTH",
"580 61.546 OFFCURVE",
"579.045 44.777 OFFCURVE",
"558.468 30.96 CURVE",
"143 700 LINE",
"100 700 LINE",
"100 0 LINE",
"132 0 LINE",
"132 660.276 LINE",
"548 -10 LINE"
);
}
);
};
layerId = "0B1DFD06-3317-40CA-B510-4969A0718C16";
paths = (
{
closed = 1;
nodes = (
"132 0 LINE",
"132 660 LINE",
"532 0 LINE",
"556 0 LINE SMOOTH",
"587 0 OFFCURVE",
"616 11 OFFCURVE",
"616 69 CURVE SMOOTH",
"616 700 LINE",
"584 700 LINE",
"584 69 LINE SMOOTH",
"584 40 OFFCURVE",
"577 30 OFFCURVE",
"558 30 CURVE SMOOTH",
"550 30 LINE",
"550 30 LINE",
"143 700 LINE",
"100 700 LINE",
"100 0 LINE"
);
}
);
width = 702;
},
{
anchors = (
{
name = bottom;
position = "{376, 0}";
},
{
name = top;
position = "{383, 700}";
}
);
background = {
paths = (
{
closed = 1;
nodes = (
"534 10 LINE SMOOTH",
"644 59 OFFCURVE",
"677 114 OFFCURVE",
"677 249 CURVE SMOOTH",
"677 700 LINE",
"527 700 LINE",
"527 249 LINE SMOOTH",
"527 200 OFFCURVE",
"521 175 OFFCURVE",
"488 162 CURVE",
"551 136 LINE",
"248 700 LINE",
"85 700 LINE",
"85 0 LINE",
"235 0 LINE",
"235 417 LINE",
"478 -15 LINE"
);
}
);
};
layerId = "204D14C0-8C16-4EB3-B338-290668FF7982";
paths = (
{
closed = 1;
nodes = (
"237 0 LINE",
"237 447 LINE",
"470 0 LINE",
"562 0 LINE SMOOTH",
"648 0 OFFCURVE",
"681 49 OFFCURVE",
"681 135 CURVE SMOOTH",
"681 700 LINE",
"529 700 LINE",
"529 215 LINE SMOOTH",
"529 166 OFFCURVE",
"523 128 OFFCURVE",
"490 128 CURVE SMOOTH",
"469 128 LINE",
"558 108 LINE",
"248 700 LINE",
"85 700 LINE",
"85 0 LINE"
);
}
);
width = 754;
},
{
anchors = (
{
name = bottom;
position = "{360, 0}";
},
{
name = top;
position = "{363, 700}";
}
);
layerId = "A9086263-9647-4033-A5C5-78BCE2A7193B";
paths = (
{
closed = 1;
nodes = (
"171 0 LINE",
"171 581 LINE",
"509 0 LINE",
"558 0 LINE SMOOTH",
"610 0 OFFCURVE",
"640 25 OFFCURVE",
"640 93 CURVE SMOOTH",
"640 700 LINE",
"564 700 LINE",
"564 123 LINE SMOOTH",
"564 87 OFFCURVE",
"557 66 OFFCURVE",
"533 66 CURVE SMOOTH",
"520 66 LINE",
"553 59 LINE",
"182 700 LINE",
"94 700 LINE",
"94 0 LINE"
);
}
);
width = 721;
}
);
leftMetricsKey = H;
note = N;
unicode = 004E;
},
{
glyphname = O;
lastChange = "2018-04-10 14:14:53 +0000";
layers = (
{
anchors = (
{
name = bottom;
position = "{338, 0}";
},
{
name = center;
position = "{338, 350}";
},
{
name = ogonek;
position = "{608, 10}";
},
{
name = top;
position = "{338, 700}";
},
{
name = topleft;
position = "{20, 700}";
},
{
name = topright;
position = "{564, 700}";
}
);
layerId = "0B1DFD06-3317-40CA-B510-4969A0718C16";
paths = (
{
closed = 1;
nodes = (
"510 -10 OFFCURVE",
"606 81 OFFCURVE",
"606 244 CURVE SMOOTH",
"606 456 LINE SMOOTH",
"606 619 OFFCURVE",
"510 710 OFFCURVE",
"338 710 CURVE SMOOTH",
"166 710 OFFCURVE",
"70 619 OFFCURVE",
"70 456 CURVE SMOOTH",
"70 244 LINE SMOOTH",
"70 81 OFFCURVE",
"166 -10 OFFCURVE",
"338 -10 CURVE SMOOTH"
);
},
{
closed = 1;
nodes = (
"187 18 OFFCURVE",
"102 99 OFFCURVE",
"102 244 CURVE SMOOTH",
"102 456 LINE SMOOTH",
"102 601 OFFCURVE",
"187 682 OFFCURVE",
"338 682 CURVE SMOOTH",
"489 682 OFFCURVE",
"574 601 OFFCURVE",
"574 456 CURVE SMOOTH",
"574 244 LINE SMOOTH",
"574 99 OFFCURVE",
"489 18 OFFCURVE",
"338 18 CURVE SMOOTH"
);
}
);
width = 676;
},
{
anchors = (
{
name = bottom;
position = "{368, 0}";
},
{
name = center;
position = "{368, 350}";
},
{
name = ogonek;
position = "{658, 10}";
},
{
name = top;
position = "{368, 700}";
},
{
name = topleft;
position = "{65, 700}";
},
{
name = topright;
position = "{596, 700}";
}
);
background = {
paths = (
{
closed = 1;
nodes = (
"575 -12 OFFCURVE",
"676 80 OFFCURVE",
"676 267 CURVE SMOOTH",
"676 433 LINE SMOOTH",
"676 620 OFFCURVE",
"575 712 OFFCURVE",
"368 712 CURVE SMOOTH",
"161 712 OFFCURVE",
"60 620 OFFCURVE",
"60 433 CURVE SMOOTH",
"60 267 LINE SMOOTH",
"60 80 OFFCURVE",
"161 -12 OFFCURVE",
"368 -12 CURVE SMOOTH"
);
},
{
closed = 1;
nodes = (
"274 118 OFFCURVE",
"222 164 OFFCURVE",
"222 267 CURVE SMOOTH",
"222 436 LINE SMOOTH",
"222 537 OFFCURVE",
"274 582 OFFCURVE",
"368 582 CURVE SMOOTH",
"462 582 OFFCURVE",
"514 537 OFFCURVE",
"514 436 CURVE SMOOTH",
"514 267 LINE SMOOTH",
"514 164 OFFCURVE",
"462 118 OFFCURVE",
"368 118 CURVE SMOOTH"
);
}
);
};
layerId = "204D14C0-8C16-4EB3-B338-290668FF7982";
paths = (
{
closed = 1;
nodes = (
"575 -12 OFFCURVE",
"676 80 OFFCURVE",
"676 267 CURVE SMOOTH",
"676 435 LINE SMOOTH",
"676 620 OFFCURVE",
"575 712 OFFCURVE",
"368 712 CURVE SMOOTH",
"161 712 OFFCURVE",
"60 620 OFFCURVE",
"60 433 CURVE SMOOTH",
"60 267 LINE SMOOTH",
"60 80 OFFCURVE",
"161 -12 OFFCURVE",
"368 -12 CURVE SMOOTH"
);
},
{
closed = 1;
nodes = (
"274 116 OFFCURVE",
"222 163 OFFCURVE",
"222 267 CURVE SMOOTH",
"222 435 LINE SMOOTH",
"222 537 OFFCURVE",
"274 584 OFFCURVE",
"368 584 CURVE SMOOTH",
"462 584 OFFCURVE",
"514 537 OFFCURVE",
"514 433 CURVE SMOOTH",
"514 267 LINE SMOOTH",
"514 163 OFFCURVE",
"462 116 OFFCURVE",
"368 116 CURVE SMOOTH"
);
}
);
width = 736;
},
{
anchors = (
{
name = bottom;
position = "{349, 0}";
},
{
name = center;
position = "{349, 350}";
},
{
name = ogonek;
position = "{626, 10}";
},
{
name = top;
position = "{349, 700}";
},
{
name = topleft;
position = "{37, 700}";
},
{
name = topright;
position = "{576, 700}";
}
);
layerId = "A9086263-9647-4033-A5C5-78BCE2A7193B";
paths = (
{
closed = 1;
nodes = (
"534 -11 OFFCURVE",
"632 81 OFFCURVE",
"632 252 CURVE SMOOTH",
"632 448 LINE SMOOTH",
"632 619 OFFCURVE",
"534 711 OFFCURVE",
"349 711 CURVE SMOOTH",
"164 711 OFFCURVE",
"66 619 OFFCURVE",
"66 448 CURVE SMOOTH",
"66 252 LINE SMOOTH",
"66 81 OFFCURVE",
"164 -11 OFFCURVE",
"349 -11 CURVE SMOOTH"
);
},
{
closed = 1;
nodes = (
"219 54 OFFCURVE",
"146 123 OFFCURVE",
"146 252 CURVE SMOOTH",
"146 448 LINE SMOOTH",
"146 577 OFFCURVE",
"219 646 OFFCURVE",
"349 646 CURVE SMOOTH",
"479 646 OFFCURVE",
"552 577 OFFCURVE",
"552 448 CURVE SMOOTH",
"552 252 LINE SMOOTH",
"552 123 OFFCURVE",
"479 54 OFFCURVE",
"349 54 CURVE SMOOTH"
);
}
);
width = 698;
}
);
leftKerningGroup = O;
note = O;
rightKerningGroup = O;
rightMetricsKey = "=|";
unicode = 004F;
},
{
glyphname = P;
lastChange = "2018-04-10 14:14:53 +0000";
layers = (
{
anchors = (
{
name = bottom;
position = "{309, 0}";
},
{
name = top;
position = "{309, 700}";
}
);
layerId = "0B1DFD06-3317-40CA-B510-4969A0718C16";
paths = (
{
closed = 1;
nodes = (
"132 0 LINE",
"132 316 LINE",
"405 316 LINE SMOOTH",
"469 316 OFFCURVE",
"583 360 OFFCURVE",
"583 508 CURVE SMOOTH",
"583 656 OFFCURVE",
"469 700 OFFCURVE",
"405 700 CURVE SMOOTH",
"100 700 LINE",
"100 0 LINE"
);
},
{
closed = 1;
nodes = (
"132 670 LINE",
"393 670 LINE SMOOTH",
"494 670 OFFCURVE",
"551 607 OFFCURVE",
"551 508 CURVE SMOOTH",
"551 409 OFFCURVE",
"494 346 OFFCURVE",
"393 346 CURVE SMOOTH",
"132 346 LINE"
);
}
);
width = 618;
},
{
anchors = (
{
name = bottom;
position = "{338, 0}";
},
{
name = top;
position = "{338, 700}";
}
);
layerId = "204D14C0-8C16-4EB3-B338-290668FF7982";
paths = (
{
closed = 1;
nodes = (
"247 0 LINE",
"247 226 LINE",
"330 226 LINE SMOOTH",
"565 226 OFFCURVE",
"646 289 OFFCURVE",
"646 463 CURVE SMOOTH",
"646 641 OFFCURVE",
"568 700 OFFCURVE",
"343 700 CURVE SMOOTH",
"85 700 LINE",
"85 0 LINE"
);
},
{
closed = 1;
nodes = (
"247 572 LINE",
"337 572 LINE SMOOTH",
"446 572 OFFCURVE",
"484 543 OFFCURVE",
"484 463 CURVE SMOOTH",
"484 381 OFFCURVE",
"446 354 OFFCURVE",
"336 354 CURVE SMOOTH",
"247 354 LINE"
);
}
);
width = 671;
},
{
anchors = (
{
name = bottom;
position = "{320, 0}";
},
{
name = top;
position = "{320, 700}";
}
);
layerId = "A9086263-9647-4033-A5C5-78BCE2A7193B";
paths = (
{
closed = 1;
nodes = (
"174 0 LINE",
"174 283 LINE",
"377 283 LINE SMOOTH",
"504 283 OFFCURVE",
"606 334 OFFCURVE",
"606 491 CURVE SMOOTH",
"606 650 OFFCURVE",
"506 700 OFFCURVE",
"382 700 CURVE SMOOTH",
"94 700 LINE",
"94 0 LINE"
);
},
{
closed = 1;
nodes = (
"174 634 LINE",
"372 634 LINE SMOOTH",
"476 634 OFFCURVE",
"526 583 OFFCURVE",
"526 491 CURVE SMOOTH",
"526 399 OFFCURVE",
"476 349 OFFCURVE",
"372 349 CURVE SMOOTH",
"174 349 LINE"
);
}
);
width = 638;
}
);
leftMetricsKey = H;
note = P;
unicode = 0050;
},
{
glyphname = Q;
lastChange = "2018-04-10 14:14:53 +0000";
layers = (
{
components = (
{
name = O;
}
);
layerId = "0B1DFD06-3317-40CA-B510-4969A0718C16";
paths = (
{
closed = 1;
nodes = (
"538 -81 LINE",
"458 -77 OFFCURVE",
"397 -47 OFFCURVE",
"367 2 CURVE",
"329 2 LINE",
"362 -69 OFFCURVE",
"430 -106 OFFCURVE",
"538 -111 CURVE"
);
}
);
width = 676;
},
{
components = (
{
name = O;
}
);
layerId = "204D14C0-8C16-4EB3-B338-290668FF7982";
paths = (
{
closed = 1;
nodes = (
"594 -45 LINE",
"521 -39 OFFCURVE",
"441 -21 OFFCURVE",
"424 22 CURVE",
"269 22 LINE",
"300 -91 OFFCURVE",
"403 -145 OFFCURVE",
"594 -149 CURVE"
);
}
);
width = 736;
},
{
components = (
{
name = O;
}
);
layerId = "A9086263-9647-4033-A5C5-78BCE2A7193B";
paths = (
{
closed = 1;
nodes = (
"559 -68 LINE",
"481 -63 OFFCURVE",
"413 -37 OFFCURVE",
"388 9 CURVE",
"307 9 LINE",
"339 -77 OFFCURVE",
"420 -120 OFFCURVE",
"559 -125 CURVE"
);
}
);
width = 698;
}
);
leftKerningGroup = O;
leftMetricsKey = O;
note = Q;
rightKerningGroup = O;
rightMetricsKey = O;
unicode = 0051;
},
{
glyphname = R;
lastChange = "2018-04-10 14:14:53 +0000";
layers = (
{
anchors = (
{
name = bottom;
position = "{327, 0}";
},
{
name = top;
position = "{327, 700}";
}
);
background = {
paths = (
{
closed = 1;
nodes = (
"132 0 LINE",
"132 336 LINE",
"329 336 LINE SMOOTH",
"457 336 OFFCURVE",
"482 293 OFFCURVE",
"517 195 CURVE SMOOTH",
"587 0 LINE",
"621 0 LINE",
"551 195 LINE SMOOTH",
"517 289 OFFCURVE",
"498 345 OFFCURVE",
"372 358 CURVE",
"410 342 LINE",
"497 342 OFFCURVE",
"582 401 OFFCURVE",
"582 518 CURVE SMOOTH",
"582 659 OFFCURVE",
"472 700 OFFCURVE",
"410 700 CURVE SMOOTH",
"100 700 LINE",
"100 0 LINE"
);
},
{
closed = 1;
nodes = (
"132 672 LINE",
"394 672 LINE SMOOTH",
"485 672 OFFCURVE",
"550 624 OFFCURVE",
"550 518 CURVE SMOOTH",
"550 413 OFFCURVE",
"485 364 OFFCURVE",
"394 364 CURVE SMOOTH",
"132 364 LINE"
);
}
);
};
layerId = "0B1DFD06-3317-40CA-B510-4969A0718C16";
paths = (
{
closed = 1;
nodes = (
"132 0 LINE",
"132 336 LINE",
"329 336 LINE SMOOTH",
"457 336 OFFCURVE",
"491 295 OFFCURVE",
"517 195 CURVE SMOOTH",
"567 0 LINE",
"601 0 LINE",
"551 195 LINE SMOOTH",
"526 292 OFFCURVE",
"498 350 OFFCURVE",
"372 358 CURVE",
"410 342 LINE",
"497 342 OFFCURVE",
"582 401 OFFCURVE",
"582 518 CURVE SMOOTH",
"582 659 OFFCURVE",
"472 700 OFFCURVE",
"410 700 CURVE SMOOTH",
"100 700 LINE",
"100 0 LINE"
);
},
{
closed = 1;
nodes = (
"132 672 LINE",
"394 672 LINE SMOOTH",
"485 672 OFFCURVE",
"550 624 OFFCURVE",
"550 518 CURVE SMOOTH",
"550 413 OFFCURVE",
"485 364 OFFCURVE",
"394 364 CURVE SMOOTH",
"132 364 LINE"
);
}
);
width = 649;
},
{
anchors = (
{
name = bottom;
position = "{347, 0}";
},
{
name = top;
position = "{347, 700}";
}
);
layerId = "204D14C0-8C16-4EB3-B338-290668FF7982";
paths = (
{
closed = 1;
nodes = (
"247 0 LINE",
"247 250 LINE",
"368 250 LINE SMOOTH",
"432 250 OFFCURVE",
"447 218 OFFCURVE",
"462 155 CURVE SMOOTH",
"500 0 LINE",
"668 0 LINE",
"636 131 LINE SMOOTH",
"606 255 OFFCURVE",
"585 312 OFFCURVE",
"465 313 CURVE",
"465 300 LINE",
"586 300 OFFCURVE",
"649 363 OFFCURVE",
"649 485 CURVE SMOOTH",
"649 632 OFFCURVE",
"567 700 OFFCURVE",
"389 700 CURVE SMOOTH",
"85 700 LINE",
"85 0 LINE"
);
},
{
closed = 1;
nodes = (
"247 572 LINE",
"373 572 LINE SMOOTH",
"454 572 OFFCURVE",
"487 544 OFFCURVE",
"487 473 CURVE SMOOTH",
"487 402 OFFCURVE",
"454 374 OFFCURVE",
"373 374 CURVE SMOOTH",
"247 374 LINE"
);
}
);
width = 713;
},
{
anchors = (
{
name = bottom;
position = "{334, 0}";
},
{
name = top;
position = "{334, 700}";
}
);
layerId = "A9086263-9647-4033-A5C5-78BCE2A7193B";
paths = (
{
closed = 1;
nodes = (
"174 0 LINE",
"174 304 LINE",
"343 304 LINE SMOOTH",
"448 304 OFFCURVE",
"475 267 OFFCURVE",
"497 180 CURVE SMOOTH",
"542 0 LINE",
"626 0 LINE",
"582 171 LINE SMOOTH",
"556 278 OFFCURVE",
"530 336 OFFCURVE",
"406 341 CURVE",
"430 326 LINE",
"530 326 OFFCURVE",
"607 387 OFFCURVE",
"607 506 CURVE SMOOTH",
"607 649 OFFCURVE",
"507 700 OFFCURVE",
"402 700 CURVE SMOOTH",
"94 700 LINE",
"94 0 LINE"
);
},
{
closed = 1;
nodes = (
"174 635 LINE",
"386 635 LINE SMOOTH",
"474 635 OFFCURVE",
"527 594 OFFCURVE",
"527 501 CURVE SMOOTH",
"527 409 OFFCURVE",
"474 368 OFFCURVE",
"386 368 CURVE SMOOTH",
"174 368 LINE"
);
}
);
width = 673;
}
);
leftMetricsKey = H;
note = R;
unicode = 0052;
},
{
glyphname = S;
lastChange = "2018-04-10 14:14:53 +0000";
layers = (
{
anchors = (
{
name = bottom;
position = "{310, 0}";
},
{
name = top;
position = "{310, 700}";
}
);
layerId = "0B1DFD06-3317-40CA-B510-4969A0718C16";
paths = (
{
closed = 1;
nodes = (
"456 -10 OFFCURVE",
"556 53 OFFCURVE",
"556 181 CURVE SMOOTH",
"556 332 OFFCURVE",
"421 349 OFFCURVE",
"304 370 CURVE SMOOTH",
"200 389 OFFCURVE",
"102 421 OFFCURVE",
"102 525 CURVE SMOOTH",
"102 623 OFFCURVE",
"191 682 OFFCURVE",
"299 682 CURVE SMOOTH",
"382 682 OFFCURVE",
"467 659 OFFCURVE",
"509 582 CURVE",
"533 601 LINE",
"487 677 OFFCURVE",
"404 710 OFFCURVE",
"299 710 CURVE SMOOTH",
"181 710 OFFCURVE",
"70 650 OFFCURVE",
"70 528 CURVE SMOOTH",
"70 399 OFFCURVE",
"168 364 OFFCURVE",
"279 343 CURVE SMOOTH",
"396 321 OFFCURVE",
"524 305 OFFCURVE",
"524 184 CURVE SMOOTH",
"524 68 OFFCURVE",
"425 18 OFFCURVE",
"299 18 CURVE SMOOTH",
"172 18 OFFCURVE",
"120 61 OFFCURVE",
"73 124 CURVE",
"50 103 LINE",
"98 42 OFFCURVE",
"162 -10 OFFCURVE",
"299 -10 CURVE SMOOTH"
);
}
);
width = 608;
},
{
anchors = (
{
name = bottom;
position = "{325, 0}";
},
{
name = top;
position = "{325, 700}";
}
);
layerId = "204D14C0-8C16-4EB3-B338-290668FF7982";
paths = (
{
closed = 1;
nodes = (
"502 -12 OFFCURVE",
"596 55 OFFCURVE",
"596 194 CURVE SMOOTH",
"596 354 OFFCURVE",
"474 383 OFFCURVE",
"340 412 CURVE SMOOTH",
"290 423 OFFCURVE",
"219 442 OFFCURVE",
"219 505 CURVE SMOOTH",
"219 556 OFFCURVE",
"254 584 OFFCURVE",
"323 584 CURVE SMOOTH",
"394 584 OFFCURVE",
"425 557 OFFCURVE",
"476 508 CURVE",
"582 595 LINE",
"535 665 OFFCURVE",
"467 712 OFFCURVE",
"323 712 CURVE SMOOTH",
"161 712 OFFCURVE",
"57 633 OFFCURVE",
"57 508 CURVE SMOOTH",
"57 390 OFFCURVE",
"122 320 OFFCURVE",
"255 294 CURVE SMOOTH",
"397 266 OFFCURVE",
"434 244 OFFCURVE",
"434 195 CURVE SMOOTH",
"434 140 OFFCURVE",
"397 116 OFFCURVE",
"309 116 CURVE SMOOTH",
"225 116 OFFCURVE",
"188 142 OFFCURVE",
"135 207 CURVE",
"30 116 LINE",
"88 38 OFFCURVE",
"138 -12 OFFCURVE",
"309 -12 CURVE SMOOTH"
);
}
);
width = 628;
},
{
anchors = (
{
name = bottom;
position = "{316, 0}";
},
{
name = top;
position = "{316, 700}";
}
);
layerId = "A9086263-9647-4033-A5C5-78BCE2A7193B";
paths = (
{
closed = 1;
nodes = (
"473 -11 OFFCURVE",
"571 54 OFFCURVE",
"571 186 CURVE SMOOTH",
"571 340 OFFCURVE",
"441 362 OFFCURVE",
"317 386 CURVE SMOOTH",
"233 402 OFFCURVE",
"145 429 OFFCURVE",
"145 518 CURVE SMOOTH",
"145 598 OFFCURVE",
"214 646 OFFCURVE",
"308 646 CURVE SMOOTH",
"386 646 OFFCURVE",
"451 621 OFFCURVE",
"497 555 CURVE",
"551 599 LINE",
"505 673 OFFCURVE",
"427 711 OFFCURVE",
"308 711 CURVE SMOOTH",
"174 711 OFFCURVE",
"65 644 OFFCURVE",
"65 521 CURVE SMOOTH",
"65 396 OFFCURVE",
"151 348 OFFCURVE",
"270 325 CURVE SMOOTH",
"396 301 OFFCURVE",
"491 282 OFFCURVE",
"491 188 CURVE SMOOTH",
"491 95 OFFCURVE",
"415 54 OFFCURVE",
"303 54 CURVE SMOOTH",
"192 54 OFFCURVE",
"145 91 OFFCURVE",
"96 155 CURVE",
"43 108 LINE",
"94 41 OFFCURVE",
"153 -11 OFFCURVE",
"303 -11 CURVE SMOOTH"
);
}
);
width = 615;
}
);
note = S;
unicode = 0053;
},
{
glyphname = T;
lastChange = "2018-04-10 14:14:53 +0000";
layers = (
{
anchors = (
{
name = bottom;
position = "{287, 0}";
},
{
name = center;
position = "{287, 350}";
},
{
name = top;
position = "{287, 700}";
}
);
layerId = "0B1DFD06-3317-40CA-B510-4969A0718C16";
paths = (
{
closed = 1;
nodes = (
"303 0 LINE",
"303 672 LINE",
"539 672 LINE",
"539 700 LINE",
"35 700 LINE",
"35 672 LINE",
"271 672 LINE",
"271 0 LINE"
);
}
);
width = 574;
},
{
anchors = (
{
name = bottom;
position = "{322, 0}";
},
{
name = center;
position = "{322, 350}";
},
{
name = top;
position = "{322, 700}";
}
);
layerId = "204D14C0-8C16-4EB3-B338-290668FF7982";
paths = (
{
closed = 1;
nodes = (
"403 0 LINE",
"403 572 LINE",
"614 572 LINE",
"614 700 LINE",
"30 700 LINE",
"30 572 LINE",
"241 572 LINE",
"241 0 LINE"
);
}
);
width = 644;
},
{
anchors = (
{
name = bottom;
position = "{300, 0}";
},
{
name = center;
position = "{300, 350}";
},
{
name = top;
position = "{300, 700}";
}
);
layerId = "A9086263-9647-4033-A5C5-78BCE2A7193B";
paths = (
{
closed = 1;
nodes = (
"340 0 LINE",
"340 635 LINE",
"567 635 LINE",
"567 700 LINE",
"33 700 LINE",
"33 635 LINE",
"260 635 LINE",
"260 0 LINE"
);
}
);
width = 600;
}
);
note = T;
rightMetricsKey = "=|";
unicode = 0054;
},
{
glyphname = U;
lastChange = "2018-04-10 14:14:53 +0000";
layers = (
{
anchors = (
{
name = bottom;
position = "{334, 0}";
},
{
name = ogonek;
position = "{600, 10}";
},
{
name = top;
position = "{334, 700}";
},
{
name = topright;
position = "{591, 700}";
}
);
layerId = "0B1DFD06-3317-40CA-B510-4969A0718C16";
paths = (
{
closed = 1;
nodes = (
"490 -10 OFFCURVE",
"591 63 OFFCURVE",
"591 179 CURVE SMOOTH",
"591 700 LINE",
"559 700 LINE",
"559 179 LINE SMOOTH",
"559 81 OFFCURVE",
"471 18 OFFCURVE",
"333 18 CURVE SMOOTH",
"195 18 OFFCURVE",
"107 81 OFFCURVE",
"107 179 CURVE SMOOTH",
"107 700 LINE",
"75 700 LINE",
"75 179 LINE SMOOTH",
"75 63 OFFCURVE",
"175 -10 OFFCURVE",
"333 -10 CURVE SMOOTH"
);
}
);
width = 666;
},
{
anchors = (
{
name = bottom;
position = "{363, 0}";
},
{
name = ogonek;
position = "{649, 10}";
},
{
name = top;
position = "{363, 700}";
},
{
name = topright;
position = "{651, 700}";
}
);
background = {
paths = (
{
closed = 1;
nodes = (
"525 -10 OFFCURVE",
"626 63 OFFCURVE",
"626 179 CURVE SMOOTH",
"626 700 LINE",
"594 700 LINE",
"594 179 LINE SMOOTH",
"594 81 OFFCURVE",
"506 18 OFFCURVE",
"368 18 CURVE SMOOTH",
"230 18 OFFCURVE",
"142 81 OFFCURVE",
"142 179 CURVE SMOOTH",
"142 700 LINE",
"110 700 LINE",
"110 179 LINE SMOOTH",
"110 63 OFFCURVE",
"210 -10 OFFCURVE",
"368 -10 CURVE SMOOTH"
);
}
);
};
layerId = "204D14C0-8C16-4EB3-B338-290668FF7982";
paths = (
{
closed = 1;
nodes = (
"565 -15 OFFCURVE",
"661 77 OFFCURVE",
"661 224 CURVE SMOOTH",
"661 700 LINE",
"499 700 LINE",
"499 224 LINE SMOOTH",
"499 149 OFFCURVE",
"456 113 OFFCURVE",
"368 113 CURVE SMOOTH",
"273 113 OFFCURVE",
"227 149 OFFCURVE",
"227 224 CURVE SMOOTH",
"227 700 LINE",
"65 700 LINE",
"65 224 LINE SMOOTH",
"65 77 OFFCURVE",
"165 -15 OFFCURVE",
"368 -15 CURVE SMOOTH"
);
}
);
width = 726;
},
{
anchors = (
{
name = bottom;
position = "{345, 0}";
},
{
name = ogonek;
position = "{618, 10}";
},
{
name = top;
position = "{345, 700}";
},
{
name = topright;
position = "{613, 700}";
}
);
layerId = "A9086263-9647-4033-A5C5-78BCE2A7193B";
paths = (
{
closed = 1;
nodes = (
"518 -12 OFFCURVE",
"617 68 OFFCURVE",
"617 196 CURVE SMOOTH",
"617 700 LINE",
"537 700 LINE",
"537 196 LINE SMOOTH",
"537 106 OFFCURVE",
"465 53 OFFCURVE",
"346 53 CURVE SMOOTH",
"224 53 OFFCURVE",
"151 106 OFFCURVE",
"151 196 CURVE SMOOTH",
"151 700 LINE",
"71 700 LINE",
"71 196 LINE SMOOTH",
"71 68 OFFCURVE",
"171 -12 OFFCURVE",
"346 -12 CURVE SMOOTH"
);
}
);
width = 688;
}
);
note = U;
rightMetricsKey = "=|";
unicode = 0055;
},
{
glyphname = V;
lastChange = "2018-04-10 14:14:53 +0000";
layers = (
{
anchors = (
{
name = bottom;
position = "{310, 0}";
},
{
name = top;
position = "{310, 700}";
}
);
layerId = "0B1DFD06-3317-40CA-B510-4969A0718C16";
paths = (
{
closed = 1;
nodes = (
"359 -10 OFFCURVE",
"381 24 OFFCURVE",
"404 99 CURVE SMOOTH",
"585 700 LINE",
"552 700 LINE",
"368 99 LINE SMOOTH",
"350 39 OFFCURVE",
"336 20 OFFCURVE",
"310 20 CURVE SMOOTH",
"284 20 OFFCURVE",
"270 39 OFFCURVE",
"252 99 CURVE SMOOTH",
"68 700 LINE",
"35 700 LINE",
"216 99 LINE SMOOTH",
"239 24 OFFCURVE",
"261 -10 OFFCURVE",
"310 -10 CURVE SMOOTH"
);
}
);
width = 620;
},
{
anchors = (
{
name = bottom;
position = "{361, 0}";
},
{
name = top;
position = "{361, 700}";
}
);
layerId = "204D14C0-8C16-4EB3-B338-290668FF7982";
paths = (
{
closed = 1;
nodes = (
"456 -12 OFFCURVE",
"500 28 OFFCURVE",
"535 142 CURVE SMOOTH",
"706 700 LINE",
"543 700 LINE",
"384 165 LINE SMOOTH",
"380 150 OFFCURVE",
"372 140 OFFCURVE",
"362 140 CURVE SMOOTH",
"350 140 OFFCURVE",
"344 151 OFFCURVE",
"340 166 CURVE SMOOTH",
"178 700 LINE",
"15 700 LINE",
"189 142 LINE SMOOTH",
"225 28 OFFCURVE",
"268 -12 OFFCURVE",
"362 -12 CURVE SMOOTH"
);
}
);
width = 721;
},
{
anchors = (
{
name = bottom;
position = "{329, 0}";
},
{
name = top;
position = "{329, 700}";
}
);
layerId = "A9086263-9647-4033-A5C5-78BCE2A7193B";
paths = (
{
closed = 1;
nodes = (
"395 -11 OFFCURVE",
"425 25 OFFCURVE",
"452 115 CURVE SMOOTH",
"630 700 LINE",
"549 700 LINE",
"374 123 LINE SMOOTH",
"361 80 OFFCURVE",
"349 64 OFFCURVE",
"329 64 CURVE SMOOTH",
"308 64 OFFCURVE",
"297 80 OFFCURVE",
"284 124 CURVE SMOOTH",
"109 700 LINE",
"28 700 LINE",
"206 115 LINE SMOOTH",
"234 25 OFFCURVE",
"264 -11 OFFCURVE",
"329 -11 CURVE SMOOTH"
);
}
);
width = 658;
}
);
note = V;
rightMetricsKey = "=|";
unicode = 0056;
},
{
glyphname = W;
lastChange = "2018-04-10 14:14:53 +0000";
layers = (
{
anchors = (
{
name = bottom;
position = "{420, 0}";
},
{
name = top;
position = "{420, 700}";
}
);
background = {
paths = (
{
closed = 1;
nodes = (
"607 27 LINE",
"530 169 OFFCURVE",
"467 385 OFFCURVE",
"420 611 CURVE",
"372 384 OFFCURVE",
"309 168 OFFCURVE",
"232 26 CURVE",
"246 26 LINE",
"67 700 LINE",
"34 700 LINE",
"220 -1 LINE",
"251 -1 LINE",
"327 127 OFFCURVE",
"388 322 OFFCURVE",
"427 519 CURVE",
"413 519 LINE",
"452 322 OFFCURVE",
"513 127 OFFCURVE",
"589 -1 CURVE",
"620 -1 LINE",
"806 700 LINE",
"773 700 LINE",
"594 27 LINE"
);
}
);
};
layerId = "0B1DFD06-3317-40CA-B510-4969A0718C16";
paths = (
{
closed = 1;
nodes = (
"217 0 LINE SMOOTH",
"240 0 OFFCURVE",
"282 1 OFFCURVE",
"297 48 CURVE SMOOTH",
"438 494 LINE",
"579 48 LINE SMOOTH",
"594 1 OFFCURVE",
"636 0 OFFCURVE",
"659 0 CURVE SMOOTH",
"678 0 LINE",
"838 700 LINE",
"805 700 LINE",
"648 11 LINE",
"670 28 LINE",
"657 28 LINE SMOOTH",
"628 28 OFFCURVE",
"613 40 OFFCURVE",
"606 63 CURVE SMOOTH",
"438 588 LINE",
"270 63 LINE SMOOTH",
"263 40 OFFCURVE",
"248 28 OFFCURVE",
"219 28 CURVE SMOOTH",
"206 28 LINE",
"228 11 LINE",
"71 700 LINE",
"38 700 LINE",
"198 0 LINE"
);
}
);
width = 876;
},
{
anchors = (
{
name = bottom;
position = "{477, 0}";
},
{
name = top;
position = "{477, 700}";
}
);
background = {
paths = (
{
closed = 1;
nodes = (
"490 662 LINE",
"322 207 LINE SMOOTH",
"308 170 OFFCURVE",
"289 157 OFFCURVE",
"265 157 CURVE",
"303 111 LINE",
"170 700 LINE",
"18 700 LINE",
"178 0 LINE",
"242 0 LINE SMOOTH",
"353 0 OFFCURVE",
"390 38 OFFCURVE",
"433 160 CURVE SMOOTH",
"508 373 LINE",
"444 373 LINE",
"520 160 LINE SMOOTH",
"564 38 OFFCURVE",
"600 0 OFFCURVE",
"711 0 CURVE SMOOTH",
"775 0 LINE",
"935 700 LINE",
"783 700 LINE",
"650 111 LINE",
"688 157 LINE",
"664 157 OFFCURVE",
"645 170 OFFCURVE",
"631 207 CURVE SMOOTH",
"462 662 LINE"
);
}
);
};
layerId = "204D14C0-8C16-4EB3-B338-290668FF7982";
paths = (
{
closed = 1;
nodes = (
"237 0 LINE SMOOTH",
"348 0 OFFCURVE",
"387 36 OFFCURVE",
"428 160 CURVE SMOOTH",
"476 305 LINE",
"525 160 LINE SMOOTH",
"568 34 OFFCURVE",
"601 0 OFFCURVE",
"716 0 CURVE SMOOTH",
"775 0 LINE",
"935 700 LINE",
"783 700 LINE",
"652 120 LINE",
"697 167 LINE",
"679 167 LINE SMOOTH",
"659 167 OFFCURVE",
"645 186 OFFCURVE",
"631 227 CURVE SMOOTH",
"476 654 LINE",
"322 227 LINE SMOOTH",
"308 186 OFFCURVE",
"294 167 OFFCURVE",
"274 167 CURVE SMOOTH",
"254 167 LINE",
"301 120 LINE",
"170 700 LINE",
"18 700 LINE",
"178 0 LINE"
);
}
);
width = 953;
},
{
anchors = (
{
name = bottom;
position = "{441, 0}";
},
{
name = top;
position = "{441, 700}";
}
);
layerId = "A9086263-9647-4033-A5C5-78BCE2A7193B";
paths = (
{
closed = 1;
nodes = (
"224 0 LINE SMOOTH",
"280 0 OFFCURVE",
"321 14 OFFCURVE",
"345 89 CURVE SMOOTH",
"452 424 LINE",
"559 89 LINE SMOOTH",
"584 13 OFFCURVE",
"623 0 OFFCURVE",
"680 0 CURVE SMOOTH",
"714 0 LINE",
"874 700 LINE",
"797 700 LINE",
"649 51 LINE",
"680 79 LINE",
"665 79 LINE SMOOTH",
"639 79 OFFCURVE",
"625 94 OFFCURVE",
"615 124 CURVE SMOOTH",
"452 612 LINE",
"289 124 LINE SMOOTH",
"280 94 OFFCURVE",
"265 79 OFFCURVE",
"239 79 CURVE SMOOTH",
"224 79 LINE",
"255 51 LINE",
"108 700 LINE",
"31 700 LINE",
"191 0 LINE"
);
}
);
width = 905;
}
);
note = W;
rightMetricsKey = "=|";
unicode = 0057;
},
{
glyphname = X;
lastChange = "2018-04-10 14:14:53 +0000";
layers = (
{
anchors = (
{
name = bottom;
position = "{280, 0}";
},
{
name = top;
position = "{280, 700}";
}
);
guideLines = (
{
angle = 90;
position = "{549, 414}";
},
{
angle = 90;
position = "{18, 203}";
}
);
layerId = "0B1DFD06-3317-40CA-B510-4969A0718C16";
paths = (
{
closed = 1;
nodes = (
"511 0 LINE",
"549 0 LINE",
"55 700 LINE",
"18 700 LINE"
);
},
{
closed = 1;
nodes = (
"267 364 LINE",
"10 0 LINE",
"48 0 LINE",
"286 338 LINE"
);
},
{
closed = 1;
nodes = (
"290 338 LINE",
"545 700 LINE",
"508 700 LINE",
"271 364 LINE"
);
}
);
width = 559;
},
{
anchors = (
{
name = bottom;
position = "{317, 0}";
},
{
name = top;
position = "{317, 700}";
}
);
background = {
paths = (
{
closed = 1;
nodes = (
"548 0 LINE",
"586 0 LINE",
"92 700 LINE",
"55 700 LINE"
);
},
{
closed = 1;
nodes = (
"304 364 LINE",
"47 0 LINE",
"85 0 LINE",
"323 338 LINE"
);
},
{
closed = 1;
nodes = (
"327 338 LINE",
"582 700 LINE",
"545 700 LINE",
"308 364 LINE"
);
}
);
};
layerId = "204D14C0-8C16-4EB3-B338-290668FF7982";
paths = (
{
closed = 1;
nodes = (
"448 0 LINE",
"628 0 LINE",
"194 700 LINE",
"15 700 LINE"
);
},
{
closed = 1;
nodes = (
"264 417 LINE",
"5 0 LINE",
"185 0 LINE",
"363 288 LINE"
);
},
{
closed = 1;
nodes = (
"383 288 LINE",
"638 700 LINE",
"459 700 LINE",
"284 417 LINE"
);
}
);
width = 643;
},
{
anchors = (
{
name = bottom;
position = "{294, 0}";
},
{
name = top;
position = "{294, 700}";
}
);
layerId = "A9086263-9647-4033-A5C5-78BCE2A7193B";
paths = (
{
closed = 1;
nodes = (
"488 0 LINE",
"578 0 LINE",
"106 700 LINE",
"17 700 LINE"
);
},
{
closed = 1;
nodes = (
"266 384 LINE",
"8 0 LINE",
"99 0 LINE",
"314 320 LINE"
);
},
{
closed = 1;
nodes = (
"324 320 LINE",
"579 700 LINE",
"490 700 LINE",
"276 384 LINE"
);
}
);
width = 587;
}
);
note = X;
rightMetricsKey = "=|";
unicode = 0058;
},
{
glyphname = Y;
lastChange = "2018-04-10 14:14:53 +0000";
layers = (
{
anchors = (
{
name = bottom;
position = "{276, 0}";
},
{
name = top;
position = "{276, 700}";
},
{
name = topleft;
position = "{7, 700}";
}
);
background = {
anchors = (
{
name = bottom;
position = "{276, 0}";
},
{
name = top;
position = "{276, 700}";
},
{
name = topleft;
position = "{7, 700}";
}
);
paths = (
{
closed = 1;
nodes = (
"536 700 LINE",
"501 700 LINE",
"274 315 LINE",
"280 315 LINE",
"50 700 LINE",
"15 700 LINE",
"277 262 LINE"
);
},
{
closed = 1;
nodes = (
"293 0 LINE",
"293 302 LINE",
"261 301 LINE",
"261 0 LINE"
);
}
);
};
layerId = "0B1DFD06-3317-40CA-B510-4969A0718C16";
paths = (
{
closed = 1;
nodes = (
"293 0 LINE",
"293 289 LINE",
"536 700 LINE",
"501 700 LINE",
"277 320 LINE",
"50 700 LINE",
"15 700 LINE",
"261 289 LINE",
"261 0 LINE"
);
}
);
width = 551;
},
{
anchors = (
{
name = bottom;
position = "{319, 0}";
},
{
name = top;
position = "{319, 700}";
},
{
name = topleft;
position = "{50, 700}";
}
);
background = {
anchors = (
{
name = bottom;
position = "{319, 0}";
},
{
name = top;
position = "{319, 700}";
},
{
name = topleft;
position = "{50, 700}";
}
);
paths = (
{
closed = 1;
nodes = (
"633 700 LINE",
"459 700 LINE",
"322 449 LINE",
"183 700 LINE",
"10 700 LINE",
"318 172 LINE"
);
},
{
closed = 1;
nodes = (
"399 0 LINE",
"399 346 LINE",
"237 367 LINE",
"237 0 LINE"
);
}
);
};
layerId = "204D14C0-8C16-4EB3-B338-290668FF7982";
paths = (
{
closed = 1;
nodes = (
"399 0 LINE",
"399 308 LINE",
"633 700 LINE",
"459 700 LINE",
"322 449 LINE",
"183 700 LINE",
"10 700 LINE",
"237 311 LINE",
"237 0 LINE"
);
}
);
width = 643;
},
{
anchors = (
{
name = bottom;
position = "{292, 0}";
},
{
name = top;
position = "{292, 700}";
},
{
name = topleft;
position = "{23, 700}";
}
);
layerId = "A9086263-9647-4033-A5C5-78BCE2A7193B";
paths = (
{
closed = 1;
nodes = (
"332 0 LINE",
"332 296 LINE",
"572 700 LINE",
"485 700 LINE",
"294 368 LINE",
"99 700 LINE",
"13 700 LINE",
"252 297 LINE",
"252 0 LINE"
);
}
);
width = 585;
}
);
note = Y;
rightMetricsKey = "=|";
unicode = 0059;
},
{
glyphname = Z;
lastChange = "2018-04-10 14:14:53 +0000";
layers = (
{
anchors = (
{
name = bottom;
position = "{295, 0}";
},
{
name = top;
position = "{295, 700}";
}
);
background = {
paths = (
{
closed = 1;
nodes = (
"550 0 LINE",
"550 28 LINE",
"135 28 LINE SMOOTH",
"87 28 OFFCURVE",
"70 39 OFFCURVE",
"70 67 CURVE SMOOTH",
"70 70 LINE",
"532 674 LINE",
"532 700 LINE",
"55 700 LINE",
"55 672 LINE",
"493 672 LINE",
"40 79 LINE",
"40 69 LINE SMOOTH",
"40 33 OFFCURVE",
"55 0 OFFCURVE",
"135 0 CURVE SMOOTH"
);
}
);
};
layerId = "0B1DFD06-3317-40CA-B510-4969A0718C16";
paths = (
{
closed = 1;
nodes = (
"550 0 LINE",
"550 28 LINE",
"109 28 LINE SMOOTH",
"80 28 OFFCURVE",
"70 36 OFFCURVE",
"70 57 CURVE SMOOTH",
"70 60 LINE",
"70 60 LINE",
"532 674 LINE",
"532 700 LINE",
"55 700 LINE",
"55 672 LINE",
"493 672 LINE",
"40 69 LINE",
"40 59 LINE SMOOTH",
"40 28 OFFCURVE",
"51 0 OFFCURVE",
"109 0 CURVE SMOOTH"
);
}
);
width = 588;
},
{
anchors = (
{
name = bottom;
position = "{325, 0}";
},
{
name = top;
position = "{325, 700}";
}
);
background = {
paths = (
{
closed = 1;
nodes = (
"50 572 LINE",
"501 572 LINE",
"462 613 LINE",
"35 191 LINE",
"35 128 LINE SMOOTH",
"35 35 OFFCURVE",
"95 -1 OFFCURVE",
"200 -1 CURVE SMOOTH",
"611 -1 LINE",
"611 131 LINE",
"230 131 LINE SMOOTH",
"204 131 OFFCURVE",
"183 137 OFFCURVE",
"183 170 CURVE SMOOTH",
"183 191 LINE",
"183 170 LINE",
"595 577 LINE",
"595 700 LINE",
"50 700 LINE"
);
}
);
};
layerId = "204D14C0-8C16-4EB3-B338-290668FF7982";
paths = (
{
closed = 1;
nodes = (
"611 -1 LINE",
"611 131 LINE",
"230 131 LINE SMOOTH",
"204 131 OFFCURVE",
"183 139 OFFCURVE",
"183 180 CURVE SMOOTH",
"183 191 LINE",
"172 138 LINE",
"595 577 LINE",
"595 700 LINE",
"50 700 LINE",
"50 572 LINE",
"402 572 LINE",
"35 191 LINE",
"35 128 LINE SMOOTH",
"35 35 OFFCURVE",
"95 -1 OFFCURVE",
"200 -1 CURVE SMOOTH"
);
}
);
width = 644;
},
{
anchors = (
{
name = bottom;
position = "{306, 0}";
},
{
name = top;
position = "{306, 700}";
}
);
layerId = "A9086263-9647-4033-A5C5-78BCE2A7193B";
paths = (
{
closed = 1;
nodes = (
"573 0 LINE",
"573 66 LINE",
"154 66 LINE SMOOTH",
"126 66 OFFCURVE",
"112 74 OFFCURVE",
"112 102 CURVE SMOOTH",
"112 108 LINE",
"108 89 LINE",
"555 638 LINE",
"555 700 LINE",
"53 700 LINE",
"53 635 LINE",
"459 635 LINE",
"38 114 LINE",
"38 84 LINE SMOOTH",
"38 31 OFFCURVE",
"67 0 OFFCURVE",
"143 0 CURVE SMOOTH"
);
}
);
width = 609;
}
);
note = Z;
unicode = 005A;
},
{
glyphname = a;
lastChange = "2018-04-16 17:49:31 +0000";
layers = (
{
anchors = (
{
name = bottom;
position = "{261, 0}";
},
{
name = ogonek;
position = "{434, 10}";
},
{
name = top;
position = "{261, 470}";
}
);
background = {
paths = (
{
closed = 1;
nodes = (
"330 -10 OFFCURVE",
"387 41 OFFCURVE",
"413 98 CURVE",
"405 123 LINE",
"405 56 LINE SMOOTH",
"405 22 OFFCURVE",
"413 5 OFFCURVE",
"435 -10 CURVE",
"456 8 LINE",
"439 24 OFFCURVE",
"435 32 OFFCURVE",
"435 50 CURVE SMOOTH",
"435 331 LINE SMOOTH",
"435 422 OFFCURVE",
"367 480 OFFCURVE",
"261 480 CURVE SMOOTH",
"151 480 OFFCURVE",
"109 447 OFFCURVE",
"85 406 CURVE",
"107 389 LINE",
"135 431 OFFCURVE",
"169 454 OFFCURVE",
"261 454 CURVE SMOOTH",
"349 454 OFFCURVE",
"405 406 OFFCURVE",
"405 331 CURVE SMOOTH",
"405 276 OFFCURVE",
"374 271 OFFCURVE",
"293 261 CURVE SMOOTH",
"193 249 LINE SMOOTH",
"113 239 OFFCURVE",
"55 194 OFFCURVE",
"55 122 CURVE SMOOTH",
"55 34 OFFCURVE",
"117 -10 OFFCURVE",
"204 -10 CURVE SMOOTH"
);
},
{
closed = 1;
nodes = (
"137 18 OFFCURVE",
"86 50 OFFCURVE",
"86 122 CURVE SMOOTH",
"86 175 OFFCURVE",
"126 213 OFFCURVE",
"206 223 CURVE SMOOTH",
"314 236 OFFCURVE",
"371 238 OFFCURVE",
"405 262 CURVE",
"405 174 LINE SMOOTH",
"405 91 OFFCURVE",
"343 18 OFFCURVE",
"204 18 CURVE SMOOTH"
);
}
);
};
layerId = "0B1DFD06-3317-40CA-B510-4969A0718C16";
paths = (
{
closed = 1;
nodes = (
"413 264 LINE",
"239 264 LINE SMOOTH",
"118 264 OFFCURVE",
"58 218 OFFCURVE",
"58 122 CURVE SMOOTH",
"58 34 OFFCURVE",
"121 -10 OFFCURVE",
"210 -10 CURVE SMOOTH",
"332 -10 OFFCURVE",
"388 41 OFFCURVE",
"413 98 CURVE",
"405 123 LINE",
"405 56 LINE SMOOTH",
"405 22 OFFCURVE",
"413 5 OFFCURVE",
"435 -10 CURVE",
"456 8 LINE",
"439 24 OFFCURVE",
"435 32 OFFCURVE",
"435 50 CURVE SMOOTH",
"435 331 LINE SMOOTH",
"435 422 OFFCURVE",
"367 480 OFFCURVE",
"261 480 CURVE SMOOTH",
"147 480 OFFCURVE",
"103 447 OFFCURVE",
"79 406 CURVE",
"101 389 LINE",
"129 431 OFFCURVE",
"165 454 OFFCURVE",
"261 454 CURVE SMOOTH",
"342 454 OFFCURVE",
"405 412 OFFCURVE",
"405 331 CURVE SMOOTH",
"405 174 LINE SMOOTH",
"405 91 OFFCURVE",
"345 18 OFFCURVE",
"210 18 CURVE SMOOTH",
"141 18 OFFCURVE",
"89 50 OFFCURVE",
"89 122 CURVE SMOOTH",
"89 204 OFFCURVE",
"140 238 OFFCURVE",
"259 238 CURVE SMOOTH",
"413 238 LINE"
);
}
);
width = 521;
},
{
anchors = (
{
name = bottom;
position = "{261, 0}";
},
{
name = ogonek;
position = "{409, 10}";
},
{
name = top;
position = "{261, 470}";
}
);
background = {
paths = (
{
closed = 1;
nodes = (
"274 -12 OFFCURVE",
"321 35 OFFCURVE",
"346 81 CURVE",
"321 149 LINE",
"321 132 LINE SMOOTH",
"321 72 OFFCURVE",
"339 24 OFFCURVE",
"412 -12 CURVE",
"499 64 LINE",
"465 89 OFFCURVE",
"451 107 OFFCURVE",
"451 145 CURVE SMOOTH",
"451 307 LINE SMOOTH",
"451 420 OFFCURVE",
"378 482 OFFCURVE",
"247 482 CURVE SMOOTH",
"126 482 OFFCURVE",
"81 454 OFFCURVE",
"41 403 CURVE",
"130 341 LINE",
"165 378 OFFCURVE",
"188 392 OFFCURVE",
"243 392 CURVE SMOOTH",
"293 392 OFFCURVE",
"321 366 OFFCURVE",
"321 317 CURVE SMOOTH",
"321 276 OFFCURVE",
"294 273 OFFCURVE",
"223 264 CURVE SMOOTH",
"163 256 LINE SMOOTH",
"83 245 OFFCURVE",
"25 202 OFFCURVE",
"25 130 CURVE SMOOTH",
"25 35 OFFCURVE",
"88 -12 OFFCURVE",
"176 -12 CURVE SMOOTH"
);
},
{
closed = 1;
nodes = (
"175 71 OFFCURVE",
"150 91 OFFCURVE",
"150 133 CURVE SMOOTH",
"150 167 OFFCURVE",
"170 190 OFFCURVE",
"216 197 CURVE SMOOTH",
"277 206 OFFCURVE",
"302 213 OFFCURVE",
"321 227 CURVE",
"321 169 LINE SMOOTH",
"321 117 OFFCURVE",
"286 71 OFFCURVE",
"214 71 CURVE SMOOTH"
);
}
);
};
layerId = "204D14C0-8C16-4EB3-B338-290668FF7982";
paths = (
{
closed = 1;
nodes = (
"321 169 LINE SMOOTH",
"321 122 OFFCURVE",
"287 81 OFFCURVE",
"217 81 CURVE SMOOTH",
"176 81 OFFCURVE",
"150 98 OFFCURVE",
"150 133 CURVE SMOOTH",
"150 176 OFFCURVE",
"176 197 OFFCURVE",
"230 197 CURVE SMOOTH",
"337 197 LINE",
"337 276 LINE",
"202 276 LINE SMOOTH",
"88 276 OFFCURVE",
"25 224 OFFCURVE",
"25 130 CURVE SMOOTH",
"25 35 OFFCURVE",
"88 -12 OFFCURVE",
"176 -12 CURVE SMOOTH",
"274 -12 OFFCURVE",
"321 35 OFFCURVE",
"346 81 CURVE",
"321 149 LINE",
"321 132 LINE SMOOTH",
"321 72 OFFCURVE",
"339 24 OFFCURVE",
"412 -12 CURVE",
"499 64 LINE",
"465 89 OFFCURVE",
"451 107 OFFCURVE",
"451 145 CURVE SMOOTH",
"451 307 LINE SMOOTH",
"451 420 OFFCURVE",
"378 482 OFFCURVE",
"247 482 CURVE SMOOTH",
"126 482 OFFCURVE",
"81 454 OFFCURVE",
"41 403 CURVE",
"130 341 LINE",
"165 378 OFFCURVE",
"188 392 OFFCURVE",
"243 392 CURVE SMOOTH",
"299 392 OFFCURVE",
"321 359 OFFCURVE",
"321 307 CURVE"
);
}
);
width = 521;
},
{
anchors = (
{
name = bottom;
position = "{261, 0}";
},
{
name = ogonek;
position = "{425, 10}";
},
{
name = top;
position = "{261, 470}";
}
);
background = {
paths = (
{
closed = 1;
nodes = (
"311 -11 OFFCURVE",
"363 39 OFFCURVE",
"388 92 CURVE",
"374 133 LINE",
"374 84 LINE SMOOTH",
"374 40 OFFCURVE",
"386 12 OFFCURVE",
"427 -11 CURVE",
"472 29 LINE",
"449 48 OFFCURVE",
"441 60 OFFCURVE",
"441 85 CURVE SMOOTH",
"441 322 LINE SMOOTH",
"441 421 OFFCURVE",
"371 481 OFFCURVE",
"256 481 CURVE SMOOTH",
"139 481 OFFCURVE",
"95 450 OFFCURVE",
"65 405 CURVE",
"112 371 LINE",
"142 411 OFFCURVE",
"173 431 OFFCURVE",
"254 431 CURVE SMOOTH",
"326 431 OFFCURVE",
"374 392 OFFCURVE",
"374 322 CURVE SMOOTH",
"374 172 LINE SMOOTH",
"374 102 OFFCURVE",
"323 41 OFFCURVE",
"211 41 CURVE SMOOTH",
"154 41 OFFCURVE",
"112 68 OFFCURVE",
"112 126 CURVE SMOOTH",
"112 194 OFFCURVE",
"153 223 OFFCURVE",
"251 223 CURVE SMOOTH",
"385 223 LINE",
"385 268 LINE",
"225 268 LINE SMOOTH",
"107 268 OFFCURVE",
"46 220 OFFCURVE",
"46 125 CURVE SMOOTH",
"46 34 OFFCURVE",
"109 -11 OFFCURVE",
"197 -11 CURVE SMOOTH"
);
}
);
};
layerId = "A9086263-9647-4033-A5C5-78BCE2A7193B";
paths = (
{
closed = 1;
nodes = (
"311 -11 OFFCURVE",
"363 39 OFFCURVE",
"388 92 CURVE",
"374 133 LINE",
"374 84 LINE SMOOTH",
"374 40 OFFCURVE",
"386 12 OFFCURVE",
"427 -11 CURVE",
"472 29 LINE",
"449 48 OFFCURVE",
"441 60 OFFCURVE",
"441 85 CURVE SMOOTH",
"441 322 LINE SMOOTH",
"441 421 OFFCURVE",
"371 481 OFFCURVE",
"256 481 CURVE SMOOTH",
"139 481 OFFCURVE",
"95 450 OFFCURVE",
"65 405 CURVE",
"112 371 LINE",
"142 411 OFFCURVE",
"173 431 OFFCURVE",
"254 431 CURVE SMOOTH",
"326 431 OFFCURVE",
"374 392 OFFCURVE",
"374 322 CURVE SMOOTH",
"374 172 LINE SMOOTH",
"374 102 OFFCURVE",
"324 41 OFFCURVE",
"213 41 CURVE SMOOTH",
"154 41 OFFCURVE",
"112 68 OFFCURVE",
"112 126 CURVE SMOOTH",
"112 194 OFFCURVE",
"153 223 OFFCURVE",
"248 223 CURVE SMOOTH",
"385 223 LINE",
"385 268 LINE",
"225 268 LINE SMOOTH",
"107 268 OFFCURVE",
"46 220 OFFCURVE",
"46 125 CURVE SMOOTH",
"46 34 OFFCURVE",
"109 -11 OFFCURVE",
"197 -11 CURVE SMOOTH"
);
}
);
width = 521;
}
);
leftKerningGroup = a;
note = a;
unicode = 0061;
},
{
glyphname = b;
lastChange = "2018-04-10 14:14:53 +0000";
layers = (
{
anchors = (
{
name = bottom;
position = "{278, 0}";
},
{
name = top;
position = "{278, 470}";
}
);
layerId = "0B1DFD06-3317-40CA-B510-4969A0718C16";
paths = (
{
closed = 1;
nodes = (
"427 -10 OFFCURVE",
"493 98 OFFCURVE",
"493 219 CURVE SMOOTH",
"493 251 LINE SMOOTH",
"493 372 OFFCURVE",
"427 480 OFFCURVE",
"290 480 CURVE SMOOTH",
"196 480 OFFCURVE",
"147 435 OFFCURVE",
"123 392 CURVE",
"123 643 LINE SMOOTH",
"123 677 OFFCURVE",
"115 694 OFFCURVE",
"91 709 CURVE",
"72 691 LINE",
"89 675 OFFCURVE",
"93 667 OFFCURVE",
"93 649 CURVE SMOOTH",
"93 0 LINE",
"123 0 LINE",
"123 78 LINE",
"147 35 OFFCURVE",
"196 -10 OFFCURVE",
"290 -10 CURVE SMOOTH"
);
},
{
closed = 1;
nodes = (
"215 16 OFFCURVE",
"123 52 OFFCURVE",
"123 179 CURVE SMOOTH",
"123 291 LINE SMOOTH",
"123 418 OFFCURVE",
"215 454 OFFCURVE",
"290 454 CURVE SMOOTH",
"406 454 OFFCURVE",
"460 357 OFFCURVE",
"460 251 CURVE SMOOTH",
"460 219 LINE SMOOTH",
"460 113 OFFCURVE",
"406 16 OFFCURVE",
"290 16 CURVE SMOOTH"
);
}
);
width = 556;
},
{
anchors = (
{
name = bottom;
position = "{303, 0}";
},
{
name = top;
position = "{303, 470}";
}
);
background = {
paths = (
{
closed = 1;
nodes = (
"477 -10 OFFCURVE",
"543 98 OFFCURVE",
"543 219 CURVE SMOOTH",
"543 251 LINE SMOOTH",
"543 372 OFFCURVE",
"477 480 OFFCURVE",
"340 480 CURVE SMOOTH",
"246 480 OFFCURVE",
"197 435 OFFCURVE",
"173 392 CURVE",
"173 643 LINE SMOOTH",
"173 677 OFFCURVE",
"165 694 OFFCURVE",
"141 709 CURVE",
"122 691 LINE",
"139 675 OFFCURVE",
"143 667 OFFCURVE",
"143 649 CURVE SMOOTH",
"143 0 LINE",
"173 0 LINE",
"173 78 LINE",
"197 35 OFFCURVE",
"246 -10 OFFCURVE",
"340 -10 CURVE SMOOTH"
);
},
{
closed = 1;
nodes = (
"265 16 OFFCURVE",
"173 52 OFFCURVE",
"173 179 CURVE SMOOTH",
"173 291 LINE SMOOTH",
"173 418 OFFCURVE",
"265 454 OFFCURVE",
"340 454 CURVE SMOOTH",
"456 454 OFFCURVE",
"510 357 OFFCURVE",
"510 251 CURVE SMOOTH",
"510 219 LINE SMOOTH",
"510 113 OFFCURVE",
"456 16 OFFCURVE",
"340 16 CURVE SMOOTH"
);
}
);
};
layerId = "204D14C0-8C16-4EB3-B338-290668FF7982";
paths = (
{
closed = 1;
nodes = (
"486 -12 OFFCURVE",
"553 97 OFFCURVE",
"553 219 CURVE SMOOTH",
"553 251 LINE SMOOTH",
"553 373 OFFCURVE",
"486 482 OFFCURVE",
"348 482 CURVE SMOOTH",
"273 482 OFFCURVE",
"231 454 OFFCURVE",
"203 421 CURVE",
"203 597 LINE SMOOTH",
"203 677 OFFCURVE",
"180 715 OFFCURVE",
"112 750 CURVE",
"25 674 LINE",
"59 649 OFFCURVE",
"73 631 OFFCURVE",
"73 593 CURVE SMOOTH",
"73 0 LINE",
"203 0 LINE",
"203 46 LINE",
"231 14 OFFCURVE",
"273 -12 OFFCURVE",
"348 -12 CURVE SMOOTH"
);
},
{
closed = 1;
nodes = (
"259 88 OFFCURVE",
"203 113 OFFCURVE",
"203 203 CURVE SMOOTH",
"203 267 LINE SMOOTH",
"203 357 OFFCURVE",
"259 382 OFFCURVE",
"310 382 CURVE SMOOTH",
"387 382 OFFCURVE",
"423 319 OFFCURVE",
"423 251 CURVE SMOOTH",
"423 219 LINE SMOOTH",
"423 151 OFFCURVE",
"387 88 OFFCURVE",
"310 88 CURVE SMOOTH"
);
}
);
width = 606;
},
{
anchors = (
{
name = bottom;
position = "{287, 0}";
},
{
name = top;
position = "{287, 470}";
}
);
layerId = "A9086263-9647-4033-A5C5-78BCE2A7193B";
paths = (
{
closed = 1;
nodes = (
"449 -11 OFFCURVE",
"515 98 OFFCURVE",
"515 219 CURVE SMOOTH",
"515 251 LINE SMOOTH",
"515 372 OFFCURVE",
"449 481 OFFCURVE",
"311 481 CURVE SMOOTH",
"224 481 OFFCURVE",
"178 442 OFFCURVE",
"153 403 CURVE",
"153 626 LINE SMOOTH",
"153 677 OFFCURVE",
"139 702 OFFCURVE",
"99 724 CURVE",
"55 685 LINE",
"78 665 OFFCURVE",
"86 654 OFFCURVE",
"86 628 CURVE SMOOTH",
"86 0 LINE",
"153 0 LINE",
"153 66 LINE",
"178 27 OFFCURVE",
"224 -11 OFFCURVE",
"311 -11 CURVE SMOOTH"
);
},
{
closed = 1;
nodes = (
"231 43 OFFCURVE",
"153 75 OFFCURVE",
"153 188 CURVE SMOOTH",
"153 282 LINE SMOOTH",
"153 395 OFFCURVE",
"231 427 OFFCURVE",
"297 427 CURVE SMOOTH",
"399 427 OFFCURVE",
"446 343 OFFCURVE",
"446 251 CURVE SMOOTH",
"446 219 LINE SMOOTH",
"446 127 OFFCURVE",
"399 43 OFFCURVE",
"297 43 CURVE SMOOTH"
);
}
);
width = 574;
}
);
leftMetricsKey = h;
note = b;
unicode = 0062;
},
{
glyphname = c;
lastChange = "2018-04-16 15:40:02 +0000";
layers = (
{
anchors = (
{
name = bottom;
position = "{261, 0}";
},
{
name = top;
position = "{259, 470}";
}
);
layerId = "0B1DFD06-3317-40CA-B510-4969A0718C16";
paths = (
{
closed = 1;
nodes = (
"337 -10 OFFCURVE",
"395 10 OFFCURVE",
"438 64 CURVE",
"417 84 LINE",
"387 41 OFFCURVE",
"334 16 OFFCURVE",
"261 16 CURVE SMOOTH",
"154 16 OFFCURVE",
"95 67 OFFCURVE",
"95 159 CURVE SMOOTH",
"95 311 LINE SMOOTH",
"95 395 OFFCURVE",
"156 454 OFFCURVE",
"254 454 CURVE SMOOTH",
"338 454 OFFCURVE",
"373 430 OFFCURVE",
"412 385 CURVE",
"434 404 LINE",
"399 446 OFFCURVE",
"356 480 OFFCURVE",
"254 480 CURVE SMOOTH",
"138 480 OFFCURVE",
"65 411 OFFCURVE",
"65 311 CURVE SMOOTH",
"65 159 LINE SMOOTH",
"65 50 OFFCURVE",
"135 -10 OFFCURVE",
"261 -10 CURVE SMOOTH"
);
}
);
width = 478;
},
{
anchors = (
{
name = bottom;
position = "{261, 0}";
},
{
name = top;
position = "{259, 470}";
}
);
background = {
paths = (
{
closed = 1;
nodes = (
"399 -12 OFFCURVE",
"476 54 OFFCURVE",
"476 173 CURVE SMOOTH",
"476 297 LINE SMOOTH",
"476 416 OFFCURVE",
"399 482 OFFCURVE",
"260 482 CURVE SMOOTH",
"121 482 OFFCURVE",
"44 416 OFFCURVE",
"44 297 CURVE SMOOTH",
"44 173 LINE SMOOTH",
"44 54 OFFCURVE",
"121 -12 OFFCURVE",
"260 -12 CURVE SMOOTH"
);
},
{
closed = 1;
nodes = (
"205 88 OFFCURVE",
"174 118 OFFCURVE",
"174 173 CURVE SMOOTH",
"174 297 LINE SMOOTH",
"174 352 OFFCURVE",
"205 382 OFFCURVE",
"260 382 CURVE SMOOTH",
"315 382 OFFCURVE",
"346 352 OFFCURVE",
"346 297 CURVE SMOOTH",
"346 173 LINE SMOOTH",
"346 118 OFFCURVE",
"315 88 OFFCURVE",
"260 88 CURVE SMOOTH"
);
}
);
};
layerId = "204D14C0-8C16-4EB3-B338-290668FF7982";
paths = (
{
closed = 1;
nodes = (
"356 -12 OFFCURVE",
"410 16 OFFCURVE",
"446 67 CURVE",
"357 139 LINE",
"327 104 OFFCURVE",
"307 88 OFFCURVE",
"260 88 CURVE SMOOTH",
"205 88 OFFCURVE",
"174 118 OFFCURVE",
"174 173 CURVE SMOOTH",
"174 297 LINE SMOOTH",
"174 352 OFFCURVE",
"205 382 OFFCURVE",
"260 382 CURVE SMOOTH",
"307 382 OFFCURVE",
"327 366 OFFCURVE",
"357 331 CURVE",
"446 403 LINE",
"410 454 OFFCURVE",
"351 482 OFFCURVE",
"260 482 CURVE SMOOTH",
"121 482 OFFCURVE",
"44 416 OFFCURVE",
"44 297 CURVE SMOOTH",
"44 173 LINE SMOOTH",
"44 54 OFFCURVE",
"121 -12 OFFCURVE",
"260 -12 CURVE SMOOTH"
);
}
);
width = 478;
},
{
anchors = (
{
name = bottom;
position = "{261, 0}";
},
{
name = top;
position = "{259, 470}";
}
);
layerId = "A9086263-9647-4033-A5C5-78BCE2A7193B";
paths = (
{
closed = 1;
nodes = (
"344 -11 OFFCURVE",
"401 12 OFFCURVE",
"441 65 CURVE",
"395 104 LINE",
"365 64 OFFCURVE",
"324 43 OFFCURVE",
"261 43 CURVE SMOOTH",
"173 43 OFFCURVE",
"124 86 OFFCURVE",
"124 164 CURVE SMOOTH",
"124 306 LINE SMOOTH",
"124 379 OFFCURVE",
"175 427 OFFCURVE",
"259 427 CURVE SMOOTH",
"328 427 OFFCURVE",
"357 406 OFFCURVE",
"392 365 CURVE",
"438 404 LINE",
"404 449 OFFCURVE",
"355 481 OFFCURVE",
"259 481 CURVE SMOOTH",
"133 481 OFFCURVE",
"57 413 OFFCURVE",
"57 306 CURVE SMOOTH",
"57 164 LINE SMOOTH",
"57 51 OFFCURVE",
"130 -11 OFFCURVE",
"261 -11 CURVE SMOOTH"
);
}
);
width = 478;
}
);
leftKerningGroup = o;
leftMetricsKey = o;
note = c;
unicode = 0063;
},
{
glyphname = d;
lastChange = "2018-04-10 14:14:53 +0000";
layers = (
{
anchors = (
{
name = bottom;
position = "{278, 0}";
},
{
name = center;
position = "{278, 235}";
},
{
name = top;
position = "{278, 470}";
},
{
name = topright;
position = "{536, 470}";
}
);
layerId = "0B1DFD06-3317-40CA-B510-4969A0718C16";
paths = (
{
closed = 1;
nodes = (
"360 -10 OFFCURVE",
"409 36 OFFCURVE",
"433 80 CURVE",
"433 56 LINE SMOOTH",
"433 22 OFFCURVE",
"441 5 OFFCURVE",
"465 -10 CURVE",
"484 8 LINE",
"467 24 OFFCURVE",
"463 32 OFFCURVE",
"463 50 CURVE SMOOTH",
"463 643 LINE SMOOTH",
"463 677 OFFCURVE",
"455 694 OFFCURVE",
"433 709 CURVE",
"412 691 LINE",
"429 675 OFFCURVE",
"433 667 OFFCURVE",
"433 649 CURVE SMOOTH",
"433 392 LINE",
"409 435 OFFCURVE",
"360 480 OFFCURVE",
"266 480 CURVE SMOOTH",
"129 480 OFFCURVE",
"63 372 OFFCURVE",
"63 251 CURVE SMOOTH",
"63 219 LINE SMOOTH",
"63 98 OFFCURVE",
"129 -10 OFFCURVE",
"266 -10 CURVE SMOOTH"
);
},
{
closed = 1;
nodes = (
"148 16 OFFCURVE",
"93 113 OFFCURVE",
"93 219 CURVE SMOOTH",
"93 251 LINE SMOOTH",
"93 357 OFFCURVE",
"148 454 OFFCURVE",
"266 454 CURVE SMOOTH",
"341 454 OFFCURVE",
"433 418 OFFCURVE",
"433 291 CURVE SMOOTH",
"433 179 LINE SMOOTH",
"433 54 OFFCURVE",
"341 16 OFFCURVE",
"266 16 CURVE SMOOTH"
);
}
);
width = 556;
},
{
anchors = (
{
name = bottom;
position = "{278, 0}";
},
{
name = center;
position = "{278, 235}";
},
{
name = top;
position = "{278, 470}";
},
{
name = topright;
position = "{536, 470}";
}
);
background = {
paths = (
{
closed = 1;
nodes = (
"189 88 OFFCURVE",
"153 151 OFFCURVE",
"153 219 CURVE SMOOTH",
"153 251 LINE SMOOTH",
"153 319 OFFCURVE",
"189 382 OFFCURVE",
"266 382 CURVE SMOOTH",
"317 382 OFFCURVE",
"373 357 OFFCURVE",
"373 267 CURVE SMOOTH",
"373 203 LINE SMOOTH",
"373 113 OFFCURVE",
"317 88 OFFCURVE",
"266 88 CURVE SMOOTH"
);
},
{
closed = 1;
nodes = (
"373 72 OFFCURVE",
"391 24 OFFCURVE",
"464 -12 CURVE",
"551 64 LINE",
"517 89 OFFCURVE",
"503 107 OFFCURVE",
"503 145 CURVE SMOOTH",
"503 597 LINE SMOOTH",
"503 677 OFFCURVE",
"480 715 OFFCURVE",
"412 750 CURVE",
"325 674 LINE",
"359 649 OFFCURVE",
"373 631 OFFCURVE",
"373 593 CURVE SMOOTH",
"373 424 LINE",
"345 456 OFFCURVE",
"303 482 OFFCURVE",
"228 482 CURVE SMOOTH",
"90 482 OFFCURVE",
"23 373 OFFCURVE",
"23 251 CURVE SMOOTH",
"23 219 LINE SMOOTH",
"23 78 OFFCURVE",
"103 -12 OFFCURVE",
"228 -12 CURVE SMOOTH",
"317 -12 OFFCURVE",
"360 27 OFFCURVE",
"387 67 CURVE",
"412 117 LINE",
"373 132 LINE"
);
}
);
};
layerId = "204D14C0-8C16-4EB3-B338-290668FF7982";
paths = (
{
closed = 1;
nodes = (
"326 -12 OFFCURVE",
"377 33 OFFCURVE",
"412 117 CURVE",
"373 132 LINE",
"373 72 OFFCURVE",
"391 24 OFFCURVE",
"464 -12 CURVE",
"551 64 LINE",
"517 89 OFFCURVE",
"503 107 OFFCURVE",
"503 145 CURVE SMOOTH",
"503 597 LINE SMOOTH",
"503 677 OFFCURVE",
"480 715 OFFCURVE",
"412 750 CURVE",
"325 674 LINE",
"359 649 OFFCURVE",
"373 631 OFFCURVE",
"373 593 CURVE SMOOTH",
"373 424 LINE",
"345 456 OFFCURVE",
"303 482 OFFCURVE",
"228 482 CURVE SMOOTH",
"90 482 OFFCURVE",
"23 373 OFFCURVE",
"23 251 CURVE SMOOTH",
"23 219 LINE SMOOTH",
"23 78 OFFCURVE",
"103 -12 OFFCURVE",
"228 -12 CURVE SMOOTH"
);
},
{
closed = 1;
nodes = (
"189 88 OFFCURVE",
"153 151 OFFCURVE",
"153 219 CURVE SMOOTH",
"153 251 LINE SMOOTH",
"153 319 OFFCURVE",
"189 382 OFFCURVE",
"266 382 CURVE SMOOTH",
"317 382 OFFCURVE",
"373 357 OFFCURVE",
"373 267 CURVE SMOOTH",
"373 203 LINE SMOOTH",
"373 113 OFFCURVE",
"317 88 OFFCURVE",
"266 88 CURVE SMOOTH"
);
}
);
width = 556;
},
{
anchors = (
{
name = bottom;
position = "{278, 0}";
},
{
name = center;
position = "{278, 235}";
},
{
name = top;
position = "{278, 470}";
},
{
name = topright;
position = "{536, 470}";
}
);
layerId = "A9086263-9647-4033-A5C5-78BCE2A7193B";
paths = (
{
closed = 1;
nodes = (
"347 -11 OFFCURVE",
"397 35 OFFCURVE",
"425 94 CURVE",
"411 84 LINE SMOOTH",
"411 40 OFFCURVE",
"423 12 OFFCURVE",
"465 -11 CURVE",
"509 29 LINE",
"485 48 OFFCURVE",
"478 60 OFFCURVE",
"478 85 CURVE SMOOTH",
"478 626 LINE SMOOTH",
"478 677 OFFCURVE",
"464 702 OFFCURVE",
"425 724 CURVE",
"380 685 LINE",
"403 665 OFFCURVE",
"411 654 OFFCURVE",
"411 628 CURVE SMOOTH",
"411 404 LINE",
"385 443 OFFCURVE",
"339 481 OFFCURVE",
"252 481 CURVE SMOOTH",
"115 481 OFFCURVE",
"48 372 OFFCURVE",
"48 251 CURVE SMOOTH",
"48 219 LINE SMOOTH",
"48 91 OFFCURVE",
"119 -11 OFFCURVE",
"252 -11 CURVE SMOOTH"
);
},
{
closed = 1;
nodes = (
"163 43 OFFCURVE",
"115 127 OFFCURVE",
"115 219 CURVE SMOOTH",
"115 251 LINE SMOOTH",
"115 343 OFFCURVE",
"163 427 OFFCURVE",
"266 427 CURVE SMOOTH",
"332 427 OFFCURVE",
"411 395 OFFCURVE",
"411 282 CURVE SMOOTH",
"411 188 LINE SMOOTH",
"411 76 OFFCURVE",
"332 43 OFFCURVE",
"266 43 CURVE SMOOTH"
);
}
);
width = 556;
}
);
leftKerningGroup = d;
note = d;
unicode = 0064;
},
{
glyphname = e;
lastChange = "2018-04-10 14:14:53 +0000";
layers = (
{
anchors = (
{
name = bottom;
position = "{251, 0}";
},
{
name = ogonek;
position = "{451, 10}";
},
{
name = top;
position = "{251, 470}";
}
);
layerId = "0B1DFD06-3317-40CA-B510-4969A0718C16";
paths = (
{
closed = 1;
nodes = (
"344 -10 OFFCURVE",
"400 14 OFFCURVE",
"440 59 CURVE",
"419 78 LINE",
"385 40 OFFCURVE",
"335 16 OFFCURVE",
"265 16 CURVE SMOOTH",
"150 16 OFFCURVE",
"95 62 OFFCURVE",
"95 156 CURVE SMOOTH",
"95 314 LINE SMOOTH",
"95 396 OFFCURVE",
"153 454 OFFCURVE",
"251 454 CURVE SMOOTH",
"353 454 OFFCURVE",
"411 402 OFFCURVE",
"411 304 CURVE SMOOTH",
"411 256 OFFCURVE",
"395 243 OFFCURVE",
"346 243 CURVE SMOOTH",
"91 243 LINE",
"91 217 LINE",
"346 217 LINE SMOOTH",
"422 217 OFFCURVE",
"441 242 OFFCURVE",
"441 304 CURVE SMOOTH",
"441 422 OFFCURVE",
"371 480 OFFCURVE",
"251 480 CURVE SMOOTH",
"136 480 OFFCURVE",
"65 416 OFFCURVE",
"65 314 CURVE SMOOTH",
"65 156 LINE SMOOTH",
"65 44 OFFCURVE",
"130 -10 OFFCURVE",
"265 -10 CURVE SMOOTH"
);
}
);
width = 501;
},
{
anchors = (
{
name = bottom;
position = "{251, 0}";
},
{
name = ogonek;
position = "{451, 10}";
},
{
name = top;
position = "{251, 470}";
}
);
background = {
paths = (
{
closed = 1;
nodes = (
"344 -10 OFFCURVE",
"400 14 OFFCURVE",
"440 59 CURVE",
"419 78 LINE",
"385 40 OFFCURVE",
"335 16 OFFCURVE",
"265 16 CURVE SMOOTH",
"150 16 OFFCURVE",
"95 62 OFFCURVE",
"95 156 CURVE SMOOTH",
"95 314 LINE SMOOTH",
"95 396 OFFCURVE",
"153 454 OFFCURVE",
"251 454 CURVE SMOOTH",
"353 454 OFFCURVE",
"411 402 OFFCURVE",
"411 304 CURVE SMOOTH",
"411 256 OFFCURVE",
"395 243 OFFCURVE",
"346 243 CURVE SMOOTH",
"91 243 LINE",
"91 217 LINE",
"346 217 LINE SMOOTH",
"422 217 OFFCURVE",
"441 242 OFFCURVE",
"441 304 CURVE SMOOTH",
"441 422 OFFCURVE",
"371 480 OFFCURVE",
"251 480 CURVE SMOOTH",
"136 480 OFFCURVE",
"65 416 OFFCURVE",
"65 314 CURVE SMOOTH",
"65 156 LINE SMOOTH",
"65 44 OFFCURVE",
"130 -10 OFFCURVE",
"265 -10 CURVE SMOOTH"
);
}
);
};
layerId = "204D14C0-8C16-4EB3-B338-290668FF7982";
paths = (
{
closed = 1;
nodes = (
"355 -12 OFFCURVE",
"412 15 OFFCURVE",
"448 59 CURVE",
"369 131 LINE",
"335 101 OFFCURVE",
"313 88 OFFCURVE",
"261 88 CURVE SMOOTH",
"202 88 OFFCURVE",
"174 115 OFFCURVE",
"174 172 CURVE SMOOTH",
"174 304 LINE SMOOTH",
"174 349 OFFCURVE",
"202 380 OFFCURVE",
"251 380 CURVE SMOOTH",
"302 380 OFFCURVE",
"332 354 OFFCURVE",
"332 304 CURVE SMOOTH",
"332 277 OFFCURVE",
"321 270 OFFCURVE",
"286 270 CURVE SMOOTH",
"91 270 LINE",
"91 181 LINE",
"361 181 LINE SMOOTH",
"442 181 OFFCURVE",
"459 210 OFFCURVE",
"462 281 CURVE SMOOTH",
"468 414 OFFCURVE",
"384 480 OFFCURVE",
"251 480 CURVE SMOOTH",
"123 480 OFFCURVE",
"44 416 OFFCURVE",
"44 314 CURVE SMOOTH",
"44 173 LINE SMOOTH",
"44 42 OFFCURVE",
"108 -12 OFFCURVE",
"261 -12 CURVE SMOOTH"
);
}
);
width = 501;
},
{
anchors = (
{
name = bottom;
position = "{251, 0}";
},
{
name = ogonek;
position = "{451, 10}";
},
{
name = top;
position = "{251, 470}";
}
);
layerId = "A9086263-9647-4033-A5C5-78BCE2A7193B";
paths = (
{
closed = 1;
nodes = (
"348 -11 OFFCURVE",
"404 14 OFFCURVE",
"443 59 CURVE",
"401 98 LINE",
"367 63 OFFCURVE",
"327 43 OFFCURVE",
"264 43 CURVE SMOOTH",
"169 43 OFFCURVE",
"124 82 OFFCURVE",
"124 162 CURVE SMOOTH",
"124 310 LINE SMOOTH",
"124 379 OFFCURVE",
"171 427 OFFCURVE",
"251 427 CURVE SMOOTH",
"334 427 OFFCURVE",
"382 384 OFFCURVE",
"382 304 CURVE SMOOTH",
"382 264 OFFCURVE",
"368 253 OFFCURVE",
"324 253 CURVE SMOOTH",
"91 253 LINE",
"91 204 LINE",
"352 204 LINE SMOOTH",
"429 204 OFFCURVE",
"448 230 OFFCURVE",
"449 296 CURVE SMOOTH",
"451 419 OFFCURVE",
"376 480 OFFCURVE",
"251 480 CURVE SMOOTH",
"131 480 OFFCURVE",
"57 416 OFFCURVE",
"57 314 CURVE SMOOTH",
"57 162 LINE SMOOTH",
"57 43 OFFCURVE",
"122 -11 OFFCURVE",
"264 -11 CURVE SMOOTH"
);
}
);
width = 501;
}
);
leftKerningGroup = o;
leftMetricsKey = o;
note = e;
rightKerningGroup = e;
unicode = 0065;
},
{
glyphname = f;
lastChange = "2018-04-10 14:14:53 +0000";
layers = (
{
anchors = (
{
name = bottom;
position = "{124, 0}";
},
{
name = top;
position = "{180, 700}";
}
);
background = {
paths = (
{
closed = 1;
nodes = (
"114 5 OFFCURVE",
"122 22 OFFCURVE",
"122 56 CURVE SMOOTH",
"122 548 LINE SMOOTH",
"122 629 OFFCURVE",
"165 674 OFFCURVE",
"242 674 CURVE SMOOTH",
"257 674 LINE",
"257 700 LINE",
"242 700 LINE SMOOTH",
"146 700 OFFCURVE",
"92 646 OFFCURVE",
"92 549 CURVE SMOOTH",
"92 50 LINE SMOOTH",
"92 32 OFFCURVE",
"88 24 OFFCURVE",
"71 8 CURVE",
"91 -10 LINE"
);
},
{
closed = 1;
nodes = (
"107 444 LINE",
"257 444 LINE",
"257 470 LINE",
"108 470 LINE",
"108 442 LINE"
);
}
);
};
layerId = "0B1DFD06-3317-40CA-B510-4969A0718C16";
paths = (
{
closed = 1;
nodes = (
"122 0 LINE",
"122 548 LINE SMOOTH",
"122 629 OFFCURVE",
"165 674 OFFCURVE",
"242 674 CURVE SMOOTH",
"257 674 LINE",
"257 700 LINE",
"242 700 LINE SMOOTH",
"146 700 OFFCURVE",
"92 646 OFFCURVE",
"92 549 CURVE SMOOTH",
"92 0 LINE"
);
},
{
closed = 1;
nodes = (
"107 444 LINE",
"257 444 LINE",
"257 470 LINE",
"108 470 LINE",
"108 442 LINE"
);
}
);
width = 267;
},
{
anchors = (
{
name = bottom;
position = "{134, 0}";
},
{
name = top;
position = "{200, 740}";
}
);
layerId = "204D14C0-8C16-4EB3-B338-290668FF7982";
paths = (
{
closed = 1;
nodes = (
"176 0 LINE",
"176 534 LINE SMOOTH",
"176 602 OFFCURVE",
"207 640 OFFCURVE",
"263 640 CURVE SMOOTH",
"312 640 LINE",
"312 740 LINE",
"263 740 LINE SMOOTH",
"124 740 OFFCURVE",
"46 667 OFFCURVE",
"46 534 CURVE SMOOTH",
"46 0 LINE"
);
},
{
closed = 1;
nodes = (
"107 370 LINE",
"312 370 LINE",
"312 470 LINE",
"108 470 LINE",
"108 368 LINE"
);
}
);
width = 317;
},
{
anchors = (
{
name = bottom;
position = "{128, 0}";
},
{
name = top;
position = "{187, 715}";
}
);
layerId = "A9086263-9647-4033-A5C5-78BCE2A7193B";
paths = (
{
closed = 1;
nodes = (
"142 0 LINE",
"142 543 LINE SMOOTH",
"142 619 OFFCURVE",
"181 661 OFFCURVE",
"250 661 CURVE SMOOTH",
"277 661 LINE",
"277 715 LINE",
"250 715 LINE SMOOTH",
"138 715 OFFCURVE",
"75 654 OFFCURVE",
"75 543 CURVE SMOOTH",
"75 0 LINE"
);
},
{
closed = 1;
nodes = (
"107 417 LINE",
"277 417 LINE",
"277 470 LINE",
"108 470 LINE",
"108 415 LINE"
);
}
);
width = 285;
}
);
note = f;
unicode = 0066;
},
{
glyphname = g;
lastChange = "2018-04-10 14:14:53 +0000";
layers = (
{
anchors = (
{
name = bottom;
position = "{278, 0}";
},
{
name = top;
position = "{278, 470}";
}
);
background = {
paths = (
{
closed = 1;
nodes = (
"314 -219 LINE SMOOTH",
"410 -219 OFFCURVE",
"463 -165 OFFCURVE",
"463 -67 CURVE SMOOTH",
"463 420 LINE SMOOTH",
"463 438 OFFCURVE",
"467 446 OFFCURVE",
"484 462 CURVE",
"465 480 LINE",
"441 465 OFFCURVE",
"433 448 OFFCURVE",
"433 414 CURVE SMOOTH",
"433 392 LINE",
"409 435 OFFCURVE",
"360 480 OFFCURVE",
"266 480 CURVE SMOOTH",
"129 480 OFFCURVE",
"63 372 OFFCURVE",
"63 251 CURVE SMOOTH",
"63 219 LINE SMOOTH",
"63 98 OFFCURVE",
"129 -10 OFFCURVE",
"266 -10 CURVE SMOOTH",
"360 -10 OFFCURVE",
"409 35 OFFCURVE",
"433 78 CURVE",
"433 -66 LINE SMOOTH",
"433 -148 OFFCURVE",
"390 -193 OFFCURVE",
"314 -193 CURVE SMOOTH",
"130 -193 LINE",
"130 -219 LINE"
);
},
{
closed = 1;
nodes = (
"148 16 OFFCURVE",
"93 113 OFFCURVE",
"93 219 CURVE SMOOTH",
"93 251 LINE SMOOTH",
"93 357 OFFCURVE",
"148 454 OFFCURVE",
"266 454 CURVE SMOOTH",
"341 454 OFFCURVE",
"433 416 OFFCURVE",
"433 291 CURVE SMOOTH",
"433 179 LINE SMOOTH",
"433 52 OFFCURVE",
"341 16 OFFCURVE",
"266 16 CURVE SMOOTH"
);
}
);
};
layerId = "0B1DFD06-3317-40CA-B510-4969A0718C16";
paths = (
{
closed = 1;
nodes = (
"314 -219 LINE SMOOTH",
"410 -219 OFFCURVE",
"463 -165 OFFCURVE",
"463 -67 CURVE SMOOTH",
"463 420 LINE SMOOTH",
"463 438 OFFCURVE",
"467 446 OFFCURVE",
"484 462 CURVE",
"465 480 LINE",
"441 465 OFFCURVE",
"433 448 OFFCURVE",
"433 414 CURVE SMOOTH",
"433 392 LINE",
"409 435 OFFCURVE",
"360 480 OFFCURVE",
"266 480 CURVE SMOOTH",
"129 480 OFFCURVE",
"63 372 OFFCURVE",
"63 251 CURVE SMOOTH",
"63 229 LINE SMOOTH",
"63 108 OFFCURVE",
"129 0 OFFCURVE",
"266 0 CURVE SMOOTH",
"360 0 OFFCURVE",
"409 45 OFFCURVE",
"433 88 CURVE",
"433 -66 LINE SMOOTH",
"433 -148 OFFCURVE",
"390 -193 OFFCURVE",
"314 -193 CURVE SMOOTH",
"200 -193 LINE",
"200 -219 LINE"
);
},
{
closed = 1;
nodes = (
"148 26 OFFCURVE",
"93 123 OFFCURVE",
"93 229 CURVE SMOOTH",
"93 251 LINE SMOOTH",
"93 357 OFFCURVE",
"148 454 OFFCURVE",
"266 454 CURVE SMOOTH",
"341 454 OFFCURVE",
"433 416 OFFCURVE",
"433 291 CURVE SMOOTH",
"433 189 LINE SMOOTH",
"433 62 OFFCURVE",
"341 26 OFFCURVE",
"266 26 CURVE SMOOTH"
);
}
);
width = 556;
},
{
anchors = (
{
name = bottom;
position = "{278, 0}";
},
{
name = top;
position = "{278, 470}";
}
);
background = {
paths = (
{
closed = 1;
nodes = (
"314 -219 LINE SMOOTH",
"410 -219 OFFCURVE",
"463 -165 OFFCURVE",
"463 -67 CURVE SMOOTH",
"463 420 LINE SMOOTH",
"463 438 OFFCURVE",
"467 446 OFFCURVE",
"484 462 CURVE",
"465 480 LINE",
"441 465 OFFCURVE",
"433 448 OFFCURVE",
"433 414 CURVE SMOOTH",
"433 392 LINE",
"409 435 OFFCURVE",
"360 480 OFFCURVE",
"266 480 CURVE SMOOTH",
"129 480 OFFCURVE",
"63 372 OFFCURVE",
"63 251 CURVE SMOOTH",
"63 219 LINE SMOOTH",
"63 98 OFFCURVE",
"129 -10 OFFCURVE",
"266 -10 CURVE SMOOTH",
"360 -10 OFFCURVE",
"409 35 OFFCURVE",
"433 78 CURVE",
"433 -66 LINE SMOOTH",
"433 -148 OFFCURVE",
"390 -193 OFFCURVE",
"314 -193 CURVE SMOOTH",
"200 -193 LINE",
"200 -219 LINE"
);
},
{
closed = 1;
nodes = (
"148 16 OFFCURVE",
"93 113 OFFCURVE",
"93 219 CURVE SMOOTH",
"93 251 LINE SMOOTH",
"93 357 OFFCURVE",
"148 454 OFFCURVE",
"266 454 CURVE SMOOTH",
"341 454 OFFCURVE",
"433 416 OFFCURVE",
"433 291 CURVE SMOOTH",
"433 179 LINE SMOOTH",
"433 52 OFFCURVE",
"341 16 OFFCURVE",
"266 16 CURVE SMOOTH"
);
}
);
};
layerId = "204D14C0-8C16-4EB3-B338-290668FF7982";
paths = (
{
closed = 1;
nodes = (
"278 -235 LINE SMOOTH",
"438 -235 OFFCURVE",
"505 -180 OFFCURVE",
"505 -49 CURVE SMOOTH",
"505 325 LINE SMOOTH",
"505 362 OFFCURVE",
"519 381 OFFCURVE",
"553 406 CURVE",
"466 482 LINE",
"413 455 OFFCURVE",
"387 426 OFFCURVE",
"378 376 CURVE",
"399 376 LINE",
"365 444 OFFCURVE",
"312 482 OFFCURVE",
"230 482 CURVE SMOOTH",
"92 482 OFFCURVE",
"25 373 OFFCURVE",
"25 251 CURVE SMOOTH",
"25 231 LINE SMOOTH",
"25 90 OFFCURVE",
"105 0 OFFCURVE",
"230 0 CURVE SMOOTH",
"311 0 OFFCURVE",
"347 25 OFFCURVE",
"375 61 CURVE",
"375 -49 LINE SMOOTH",
"375 -110 OFFCURVE",
"346 -135 OFFCURVE",
"278 -135 CURVE SMOOTH",
"146 -135 LINE",
"146 -235 LINE"
);
},
{
closed = 1;
nodes = (
"191 100 OFFCURVE",
"155 163 OFFCURVE",
"155 231 CURVE SMOOTH",
"155 251 LINE SMOOTH",
"155 319 OFFCURVE",
"191 382 OFFCURVE",
"268 382 CURVE SMOOTH",
"319 382 OFFCURVE",
"374 357 OFFCURVE",
"375 267 CURVE SMOOTH",
"375 215 LINE SMOOTH",
"375 125 OFFCURVE",
"319 100 OFFCURVE",
"268 100 CURVE SMOOTH"
);
}
);
width = 556;
},
{
anchors = (
{
name = bottom;
position = "{278, 0}";
},
{
name = top;
position = "{278, 470}";
}
);
layerId = "A9086263-9647-4033-A5C5-78BCE2A7193B";
paths = (
{
closed = 1;
nodes = (
"301 -225 LINE SMOOTH",
"420 -225 OFFCURVE",
"479 -171 OFFCURVE",
"479 -60 CURVE SMOOTH",
"479 385 LINE SMOOTH",
"479 410 OFFCURVE",
"486 422 OFFCURVE",
"509 441 CURVE",
"465 481 LINE",
"431 461 OFFCURVE",
"416 440 OFFCURVE",
"413 400 CURVE SMOOTH",
"420 386 LINE",
"393 438 OFFCURVE",
"342 481 OFFCURVE",
"253 481 CURVE SMOOTH",
"115 481 OFFCURVE",
"49 372 OFFCURVE",
"49 251 CURVE SMOOTH",
"49 230 LINE SMOOTH",
"49 101 OFFCURVE",
"120 0 OFFCURVE",
"253 0 CURVE SMOOTH",
"342 0 OFFCURVE",
"386 38 OFFCURVE",
"412 78 CURVE",
"412 -60 LINE SMOOTH",
"412 -134 OFFCURVE",
"374 -172 OFFCURVE",
"301 -172 CURVE SMOOTH",
"180 -172 LINE",
"180 -225 LINE"
);
},
{
closed = 1;
nodes = (
"164 53 OFFCURVE",
"116 138 OFFCURVE",
"116 230 CURVE SMOOTH",
"116 251 LINE SMOOTH",
"116 343 OFFCURVE",
"164 427 OFFCURVE",
"267 427 CURVE SMOOTH",
"333 427 OFFCURVE",
"411 394 OFFCURVE",
"412 282 CURVE SMOOTH",
"412 199 LINE SMOOTH",
"412 85 OFFCURVE",
"333 53 OFFCURVE",
"267 53 CURVE SMOOTH"
);
}
);
width = 556;
}
);
leftKerningGroup = d;
note = g;
unicode = 0067;
},
{
glyphname = h;
lastChange = "2018-04-10 14:14:53 +0000";
layers = (
{
anchors = (
{
name = bottom;
position = "{270, 0}";
},
{
name = center;
position = "{270, 235}";
},
{
name = top;
position = "{290, 632}";
}
);
layerId = "0B1DFD06-3317-40CA-B510-4969A0718C16";
paths = (
{
closed = 1;
nodes = (
"454 0 LINE",
"454 322 LINE SMOOTH",
"454 419 OFFCURVE",
"398 480 OFFCURVE",
"314 480 CURVE SMOOTH",
"200 480 OFFCURVE",
"143 404 OFFCURVE",
"118 321 CURVE",
"121 241 LINE",
"133 334 OFFCURVE",
"186 454 OFFCURVE",
"306 454 CURVE SMOOTH",
"381 454 OFFCURVE",
"424 403 OFFCURVE",
"424 312 CURVE SMOOTH",
"424 0 LINE"
);
},
{
closed = 1;
nodes = (
"123 0 LINE",
"123 644 LINE SMOOTH",
"123 678 OFFCURVE",
"115 695 OFFCURVE",
"91 710 CURVE",
"72 692 LINE",
"89 676 OFFCURVE",
"93 668 OFFCURVE",
"93 650 CURVE SMOOTH",
"93 0 LINE"
);
}
);
width = 539;
},
{
anchors = (
{
name = bottom;
position = "{270, 0}";
},
{
name = center;
position = "{270, 235}";
},
{
name = top;
position = "{290, 736}";
}
);
background = {
paths = (
{
closed = 1;
nodes = (
"454 0 LINE",
"454 324 LINE SMOOTH",
"454 421 OFFCURVE",
"398 482 OFFCURVE",
"314 482 CURVE SMOOTH",
"200 482 OFFCURVE",
"143 406 OFFCURVE",
"118 323 CURVE",
"121 243 LINE",
"133 336 OFFCURVE",
"186 456 OFFCURVE",
"306 456 CURVE SMOOTH",
"381 456 OFFCURVE",
"424 405 OFFCURVE",
"424 314 CURVE SMOOTH",
"424 0 LINE"
);
},
{
closed = 1;
nodes = (
"123 0 LINE",
"123 644 LINE SMOOTH",
"123 678 OFFCURVE",
"115 695 OFFCURVE",
"91 710 CURVE",
"72 692 LINE",
"89 676 OFFCURVE",
"93 668 OFFCURVE",
"93 650 CURVE SMOOTH",
"93 0 LINE"
);
}
);
};
layerId = "204D14C0-8C16-4EB3-B338-290668FF7982";
paths = (
{
closed = 1;
nodes = (
"496 0 LINE",
"496 320 LINE SMOOTH",
"496 424 OFFCURVE",
"439 482 OFFCURVE",
"336 482 CURVE SMOOTH",
"243 482 OFFCURVE",
"197 429 OFFCURVE",
"177 376 CURVE",
"193 273 LINE",
"206 321 OFFCURVE",
"230 382 OFFCURVE",
"298 382 CURVE SMOOTH",
"340 382 OFFCURVE",
"366 353 OFFCURVE",
"366 308 CURVE SMOOTH",
"366 0 LINE"
);
},
{
closed = 1;
nodes = (
"203 0 LINE",
"203 597 LINE SMOOTH",
"203 677 OFFCURVE",
"180 715 OFFCURVE",
"112 750 CURVE",
"25 674 LINE",
"59 649 OFFCURVE",
"73 631 OFFCURVE",
"73 593 CURVE SMOOTH",
"73 0 LINE"
);
}
);
width = 551;
},
{
anchors = (
{
name = bottom;
position = "{270, 0}";
},
{
name = center;
position = "{270, 235}";
},
{
name = top;
position = "{290, 670}";
}
);
layerId = "A9086263-9647-4033-A5C5-78BCE2A7193B";
paths = (
{
closed = 1;
nodes = (
"470 0 LINE",
"470 321 LINE SMOOTH",
"470 421 OFFCURVE",
"413 481 OFFCURVE",
"322 481 CURVE SMOOTH",
"216 481 OFFCURVE",
"163 413 OFFCURVE",
"140 341 CURVE",
"148 253 LINE",
"160 329 OFFCURVE",
"202 427 OFFCURVE",
"303 427 CURVE SMOOTH",
"366 427 OFFCURVE",
"403 385 OFFCURVE",
"403 311 CURVE SMOOTH",
"403 0 LINE"
);
},
{
closed = 1;
nodes = (
"153 0 LINE",
"153 627 LINE SMOOTH",
"153 678 OFFCURVE",
"139 702 OFFCURVE",
"99 725 CURVE",
"55 685 LINE",
"78 666 OFFCURVE",
"86 654 OFFCURVE",
"86 629 CURVE SMOOTH",
"86 0 LINE"
);
}
);
width = 543;
}
);
leftMetricsKey = n;
note = h;
rightKerningGroup = n;
rightMetricsKey = n;
unicode = 0068;
},
{
glyphname = i;
lastChange = "2018-04-10 14:14:53 +0000";
layers = (
{
anchors = (
{
name = bottom;
position = "{110, 0}";
}
);
background = {
paths = (
{
closed = 1;
nodes = (
"87 56 LINE SMOOTH",
"87 22 OFFCURVE",
"95 5 OFFCURVE",
"119 -10 CURVE",
"138 8 LINE",
"121 24 OFFCURVE",
"117 32 OFFCURVE",
"117 50 CURVE SMOOTH",
"117 470 LINE",
"87 470 LINE"
);
},
{
closed = 1;
nodes = (
"118 596 OFFCURVE",
"132 610 OFFCURVE",
"132 631 CURVE SMOOTH",
"132 652 OFFCURVE",
"118 666 OFFCURVE",
"102 666 CURVE SMOOTH",
"86 666 OFFCURVE",
"72 652 OFFCURVE",
"72 631 CURVE SMOOTH",
"72 610 OFFCURVE",
"86 596 OFFCURVE",
"102 596 CURVE SMOOTH"
);
}
);
};
layerId = "0B1DFD06-3317-40CA-B510-4969A0718C16";
paths = (
{
closed = 1;
nodes = (
"138 8 LINE",
"121 24 OFFCURVE",
"117 32 OFFCURVE",
"117 50 CURVE SMOOTH",
"117 470 LINE",
"87 470 LINE",
"87 56 LINE SMOOTH",
"87 22 OFFCURVE",
"95 5 OFFCURVE",
"119 -10 CURVE"
);
},
{
closed = 1;
nodes = (
"119 601 OFFCURVE",
"132 614 OFFCURVE",
"132 631 CURVE SMOOTH",
"132 648 OFFCURVE",
"119 661 OFFCURVE",
"102 661 CURVE SMOOTH",
"85 661 OFFCURVE",
"72 648 OFFCURVE",
"72 631 CURVE SMOOTH",
"72 614 OFFCURVE",
"85 601 OFFCURVE",
"102 601 CURVE SMOOTH"
);
}
);
width = 207;
},
{
anchors = (
{
name = bottom;
position = "{104, 0}";
}
);
layerId = "204D14C0-8C16-4EB3-B338-290668FF7982";
paths = (
{
closed = 1;
nodes = (
"213 64 LINE",
"179 89 OFFCURVE",
"165 107 OFFCURVE",
"165 145 CURVE SMOOTH",
"165 470 LINE",
"35 470 LINE",
"35 141 LINE SMOOTH",
"35 61 OFFCURVE",
"58 23 OFFCURVE",
"126 -12 CURVE"
);
},
{
closed = 1;
nodes = (
"140 533 OFFCURVE",
"175 567 OFFCURVE",
"175 608 CURVE SMOOTH",
"175 648 OFFCURVE",
"140 683 OFFCURVE",
"100 683 CURVE SMOOTH",
"59 683 OFFCURVE",
"25 648 OFFCURVE",
"25 608 CURVE SMOOTH",
"25 567 OFFCURVE",
"59 533 OFFCURVE",
"100 533 CURVE SMOOTH"
);
}
);
width = 207;
},
{
anchors = (
{
name = bottom;
position = "{108, 0}";
}
);
layerId = "A9086263-9647-4033-A5C5-78BCE2A7193B";
paths = (
{
closed = 1;
nodes = (
"166 29 LINE",
"142 48 OFFCURVE",
"135 60 OFFCURVE",
"135 85 CURVE SMOOTH",
"135 470 LINE",
"68 470 LINE",
"68 87 LINE SMOOTH",
"68 36 OFFCURVE",
"81 12 OFFCURVE",
"122 -11 CURVE"
);
},
{
closed = 1;
nodes = (
"127 576 OFFCURVE",
"148 597 OFFCURVE",
"148 623 CURVE SMOOTH",
"148 648 OFFCURVE",
"127 669 OFFCURVE",
"101 669 CURVE SMOOTH",
"75 669 OFFCURVE",
"55 648 OFFCURVE",
"55 623 CURVE SMOOTH",
"55 597 OFFCURVE",
"75 576 OFFCURVE",
"101 576 CURVE SMOOTH"
);
}
);
width = 207;
}
);
note = i;
unicode = 0069;
},
{
glyphname = j;
lastChange = "2018-04-10 14:14:53 +0000";
layers = (
{
background = {
paths = (
{
closed = 1;
nodes = (
"155 596 OFFCURVE",
"169 610 OFFCURVE",
"169 631 CURVE SMOOTH",
"169 652 OFFCURVE",
"155 666 OFFCURVE",
"139 666 CURVE SMOOTH",
"123 666 OFFCURVE",
"109 652 OFFCURVE",
"109 631 CURVE SMOOTH",
"109 610 OFFCURVE",
"123 596 OFFCURVE",
"139 596 CURVE SMOOTH"
);
}
);
};
layerId = "0B1DFD06-3317-40CA-B510-4969A0718C16";
paths = (
{
closed = 1;
nodes = (
"4 -219 LINE SMOOTH",
"100 -219 OFFCURVE",
"154 -165 OFFCURVE",
"154 -67 CURVE SMOOTH",
"154 470 LINE",
"124 470 LINE",
"124 -67 LINE SMOOTH",
"124 -148 OFFCURVE",
"81 -193 OFFCURVE",
"4 -193 CURVE SMOOTH",
"-40 -193 LINE",
"-40 -219 LINE"
);
},
{
closed = 1;
nodes = (
"156 601 OFFCURVE",
"169 614 OFFCURVE",
"169 631 CURVE SMOOTH",
"169 648 OFFCURVE",
"156 661 OFFCURVE",
"139 661 CURVE SMOOTH",
"122 661 OFFCURVE",
"109 648 OFFCURVE",
"109 631 CURVE SMOOTH",
"109 614 OFFCURVE",
"122 601 OFFCURVE",
"139 601 CURVE SMOOTH"
);
}
);
width = 252;
},
{
background = {
paths = (
{
closed = 1;
nodes = (
"57 576 OFFCURVE",
"93 542 OFFCURVE",
"139 542 CURVE SMOOTH",
"186 542 OFFCURVE",
"222 576 OFFCURVE",
"222 621 CURVE SMOOTH",
"222 666 OFFCURVE",
"186 700 OFFCURVE",
"139 700 CURVE SMOOTH",
"93 700 OFFCURVE",
"57 666 OFFCURVE",
"57 621 CURVE SMOOTH"
);
},
{
closed = 1;
nodes = (
"-1 -239 LINE",
"162 -237 OFFCURVE",
"212 -170 OFFCURVE",
"212 -61 CURVE SMOOTH",
"212 471 LINE",
"68 471 LINE",
"68 -62 LINE SMOOTH",
"68 -104 OFFCURVE",
"49 -127 OFFCURVE",
"-1 -131 CURVE"
);
}
);
};
layerId = "204D14C0-8C16-4EB3-B338-290668FF7982";
paths = (
{
closed = 1;
nodes = (
"-48 -235 LINE SMOOTH",
"119 -235 OFFCURVE",
"179 -181 OFFCURVE",
"179 -29 CURVE SMOOTH",
"179 470 LINE",
"49 470 LINE",
"49 -29 LINE SMOOTH",
"49 -107 OFFCURVE",
"24 -135 OFFCURVE",
"-48 -135 CURVE SMOOTH",
"-100 -135 LINE",
"-100 -235 LINE"
);
},
{
closed = 1;
nodes = (
"155 533 OFFCURVE",
"189 567 OFFCURVE",
"189 608 CURVE SMOOTH",
"189 648 OFFCURVE",
"155 683 OFFCURVE",
"114 683 CURVE SMOOTH",
"74 683 OFFCURVE",
"39 648 OFFCURVE",
"39 608 CURVE SMOOTH",
"39 567 OFFCURVE",
"74 533 OFFCURVE",
"114 533 CURVE SMOOTH"
);
}
);
width = 227;
},
{
layerId = "A9086263-9647-4033-A5C5-78BCE2A7193B";
paths = (
{
closed = 1;
nodes = (
"-15 -225 LINE SMOOTH",
"107 -225 OFFCURVE",
"163 -171 OFFCURVE",
"163 -53 CURVE SMOOTH",
"163 470 LINE",
"96 470 LINE",
"96 -53 LINE SMOOTH",
"96 -133 OFFCURVE",
"60 -172 OFFCURVE",
"-15 -172 CURVE SMOOTH",
"-62 -172 LINE",
"-62 -225 LINE"
);
},
{
closed = 1;
nodes = (
"156 576 OFFCURVE",
"176 597 OFFCURVE",
"176 623 CURVE SMOOTH",
"176 648 OFFCURVE",
"156 669 OFFCURVE",
"130 669 CURVE SMOOTH",
"104 669 OFFCURVE",
"83 648 OFFCURVE",
"83 623 CURVE SMOOTH",
"83 597 OFFCURVE",
"104 576 OFFCURVE",
"130 576 CURVE SMOOTH"
);
}
);
width = 243;
}
);
note = j;
unicode = 006A;
},
{
glyphname = k;
lastChange = "2018-04-10 14:14:53 +0000";
layers = (
{
anchors = (
{
name = bottom;
position = "{238, 0}";
},
{
name = top;
position = "{238, 470}";
}
);
background = {
paths = (
{
closed = 1;
nodes = (
"469 -4 OFFCURVE",
"488 1 OFFCURVE",
"500 10 CURVE",
"495 34 LINE",
"488 32 OFFCURVE",
"477 31 OFFCURVE",
"470 31 CURVE SMOOTH",
"424 31 OFFCURVE",
"409 75 OFFCURVE",
"393 167 CURVE SMOOTH",
"388 195 LINE SMOOTH",
"373 278 OFFCURVE",
"336 312 OFFCURVE",
"266 323 CURVE",
"446 500 LINE",
"379 500 LINE",
"138 267 LINE",
"138 700 LINE",
"111 700 LINE",
"46 676 LINE",
"42 658 LINE",
"82 638 LINE",
"82 0 LINE",
"138 0 LINE",
"138 196 LINE",
"232 288 LINE",
"287 285 OFFCURVE",
"315 264 OFFCURVE",
"332 181 CURVE SMOOTH",
"338 148 LINE SMOOTH",
"356 45 OFFCURVE",
"383 -4 OFFCURVE",
"449 -4 CURVE SMOOTH"
);
},
{
closed = 1;
nodes = (
"443 470 LINE",
"402 470 LINE",
"107 187 LINE",
"101 142 LINE"
);
},
{
closed = 1;
nodes = (
"111 0 LINE",
"111 636 LINE SMOOTH",
"111 670 OFFCURVE",
"104 687 OFFCURVE",
"81 702 CURVE",
"60 684 LINE",
"77 668 OFFCURVE",
"81 660 OFFCURVE",
"81 642 CURVE SMOOTH",
"81 0 LINE"
);
},
{
closed = 1;
nodes = (
"457 0 LINE",
"385 170 LINE SMOOTH",
"362 223 OFFCURVE",
"337 279 OFFCURVE",
"227 279 CURVE",
"207 253 LINE",
"315 253 OFFCURVE",
"333 219 OFFCURVE",
"354 170 CURVE SMOOTH",
"426 0 LINE"
);
}
);
};
layerId = "0B1DFD06-3317-40CA-B510-4969A0718C16";
paths = (
{
closed = 1;
nodes = (
"433 470 LINE",
"392 470 LINE",
"107 187 LINE",
"101 142 LINE"
);
},
{
closed = 1;
nodes = (
"111 0 LINE",
"111 643 LINE SMOOTH",
"111 677 OFFCURVE",
"104 694 OFFCURVE",
"81 709 CURVE",
"60 691 LINE",
"77 675 OFFCURVE",
"81 667 OFFCURVE",
"81 649 CURVE SMOOTH",
"81 0 LINE"
);
},
{
closed = 1;
nodes = (
"427 0 LINE",
"385 170 LINE SMOOTH",
"368 240 OFFCURVE",
"337 299 OFFCURVE",
"227 299 CURVE",
"207 273 LINE",
"315 273 OFFCURVE",
"338 234 OFFCURVE",
"354 170 CURVE SMOOTH",
"396 0 LINE"
);
}
);
width = 487;
},
{
anchors = (
{
name = bottom;
position = "{290, 0}";
},
{
name = top;
position = "{290, 470}";
}
);
guideLines = (
{
angle = 90;
position = "{578, 308}";
}
);
layerId = "204D14C0-8C16-4EB3-B338-290668FF7982";
paths = (
{
closed = 1;
nodes = (
"517 470 LINE",
"359 470 LINE",
"74 177 LINE",
"185 132 LINE"
);
},
{
closed = 1;
nodes = (
"203 0 LINE",
"203 597 LINE SMOOTH",
"203 677 OFFCURVE",
"180 715 OFFCURVE",
"112 750 CURVE",
"25 674 LINE",
"59 649 OFFCURVE",
"73 631 OFFCURVE",
"73 593 CURVE SMOOTH",
"73 0 LINE"
);
},
{
closed = 1;
nodes = (
"523 0 LINE",
"479 158 LINE SMOOTH",
"447 272 OFFCURVE",
"407 315 OFFCURVE",
"294 315 CURVE",
"226 219 LINE",
"314 219 OFFCURVE",
"334 200 OFFCURVE",
"346 158 CURVE SMOOTH",
"390 0 LINE"
);
}
);
width = 539;
},
{
anchors = (
{
name = bottom;
position = "{257, 0}";
},
{
name = top;
position = "{257, 470}";
}
);
layerId = "A9086263-9647-4033-A5C5-78BCE2A7193B";
paths = (
{
closed = 1;
nodes = (
"464 470 LINE",
"380 470 LINE",
"95 183 LINE",
"132 138 LINE"
);
},
{
closed = 1;
nodes = (
"145 0 LINE",
"145 626 LINE SMOOTH",
"145 677 OFFCURVE",
"132 702 OFFCURVE",
"92 724 CURVE",
"47 685 LINE",
"70 665 OFFCURVE",
"78 654 OFFCURVE",
"78 628 CURVE SMOOTH",
"78 0 LINE"
);
},
{
closed = 1;
nodes = (
"462 0 LINE",
"420 166 LINE SMOOTH",
"397 252 OFFCURVE",
"363 305 OFFCURVE",
"252 305 CURVE",
"214 253 LINE",
"315 253 OFFCURVE",
"337 221 OFFCURVE",
"351 166 CURVE SMOOTH",
"394 0 LINE"
);
}
);
width = 506;
}
);
leftMetricsKey = l;
note = k;
unicode = 006B;
},
{
glyphname = l;
lastChange = "2018-04-10 14:14:53 +0000";
layers = (
{
anchors = (
{
name = bottom;
position = "{104, 0}";
},
{
name = center;
position = "{96, 235}";
},
{
name = top;
position = "{93, 700}";
},
{
name = topright;
position = "{171, 470}";
}
);
background = {
paths = (
{
closed = 1;
nodes = (
"111 0 LINE",
"111 644 LINE SMOOTH",
"111 678 OFFCURVE",
"103 695 OFFCURVE",
"79 710 CURVE",
"60 692 LINE",
"77 676 OFFCURVE",
"81 668 OFFCURVE",
"81 650 CURVE SMOOTH",
"81 0 LINE"
);
}
);
};
layerId = "0B1DFD06-3317-40CA-B510-4969A0718C16";
paths = (
{
closed = 1;
nodes = (
"60 692 LINE",
"77 676 OFFCURVE",
"81 668 OFFCURVE",
"81 650 CURVE SMOOTH",
"81 56 LINE SMOOTH",
"81 22 OFFCURVE",
"89 5 OFFCURVE",
"113 -10 CURVE",
"132 8 LINE",
"115 24 OFFCURVE",
"111 32 OFFCURVE",
"111 50 CURVE SMOOTH",
"111 644 LINE SMOOTH",
"111 678 OFFCURVE",
"103 695 OFFCURVE",
"79 710 CURVE"
);
}
);
width = 191;
},
{
anchors = (
{
name = bottom;
position = "{163, 0}";
},
{
name = center;
position = "{96, 235}";
},
{
name = top;
position = "{128, 740}";
},
{
name = topright;
position = "{171, 470}";
}
);
background = {
paths = (
{
closed = 1;
nodes = (
"111 644 LINE SMOOTH",
"111 678 OFFCURVE",
"103 695 OFFCURVE",
"79 710 CURVE",
"60 692 LINE",
"77 676 OFFCURVE",
"81 668 OFFCURVE",
"81 650 CURVE SMOOTH",
"81 56 LINE SMOOTH",
"81 22 OFFCURVE",
"89 5 OFFCURVE",
"113 -10 CURVE",
"132 8 LINE",
"115 24 OFFCURVE",
"111 32 OFFCURVE",
"111 50 CURVE SMOOTH"
);
}
);
};
layerId = "204D14C0-8C16-4EB3-B338-290668FF7982";
paths = (
{
closed = 1;
nodes = (
"25 674 LINE",
"59 649 OFFCURVE",
"73 631 OFFCURVE",
"73 593 CURVE SMOOTH",
"73 141 LINE SMOOTH",
"73 61 OFFCURVE",
"96 23 OFFCURVE",
"164 -12 CURVE",
"251 64 LINE",
"217 89 OFFCURVE",
"203 107 OFFCURVE",
"203 145 CURVE SMOOTH",
"203 597 LINE SMOOTH",
"203 677 OFFCURVE",
"180 715 OFFCURVE",
"112 750 CURVE"
);
}
);
width = 271;
},
{
anchors = (
{
name = bottom;
position = "{126, 0}";
},
{
name = center;
position = "{96, 235}";
},
{
name = top;
position = "{106, 715}";
},
{
name = topright;
position = "{171, 470}";
}
);
layerId = "A9086263-9647-4033-A5C5-78BCE2A7193B";
paths = (
{
closed = 1;
nodes = (
"47 685 LINE",
"70 666 OFFCURVE",
"78 654 OFFCURVE",
"78 629 CURVE SMOOTH",
"78 87 LINE SMOOTH",
"78 36 OFFCURVE",
"92 12 OFFCURVE",
"132 -11 CURVE",
"176 29 LINE",
"153 48 OFFCURVE",
"145 60 OFFCURVE",
"145 85 CURVE SMOOTH",
"145 627 LINE SMOOTH",
"145 678 OFFCURVE",
"131 702 OFFCURVE",
"91 725 CURVE"
);
}
);
width = 221;
}
);
note = l;
unicode = 006C;
},
{
glyphname = m;
lastChange = "2018-04-10 14:14:53 +0000";
layers = (
{
anchors = (
{
name = bottom;
position = "{418, 0}";
},
{
name = top;
position = "{418, 470}";
}
);
background = {
paths = (
{
closed = 1;
nodes = (
"123 0 LINE",
"123 414 LINE SMOOTH",
"123 448 OFFCURVE",
"115 465 OFFCURVE",
"91 480 CURVE",
"72 462 LINE",
"89 446 OFFCURVE",
"93 438 OFFCURVE",
"93 420 CURVE SMOOTH",
"93 0 LINE"
);
},
{
closed = 1;
nodes = (
"751 0 LINE",
"751 322 LINE SMOOTH",
"751 419 OFFCURVE",
"699 480 OFFCURVE",
"622 480 CURVE SMOOTH",
"511 480 OFFCURVE",
"456 404 OFFCURVE",
"432 321 CURVE",
"435 241 LINE",
"447 334 OFFCURVE",
"498 454 OFFCURVE",
"614 454 CURVE SMOOTH",
"682 454 OFFCURVE",
"721 403 OFFCURVE",
"721 312 CURVE SMOOTH",
"721 0 LINE"
);
},
{
closed = 1;
nodes = (
"437 0 LINE",
"437 322 LINE SMOOTH",
"437 419 OFFCURVE",
"385 480 OFFCURVE",
"308 480 CURVE SMOOTH",
"197 480 OFFCURVE",
"142 404 OFFCURVE",
"118 321 CURVE",
"121 241 LINE",
"133 334 OFFCURVE",
"184 454 OFFCURVE",
"300 454 CURVE SMOOTH",
"368 454 OFFCURVE",
"407 403 OFFCURVE",
"407 312 CURVE SMOOTH",
"407 0 LINE"
);
}
);
};
layerId = "0B1DFD06-3317-40CA-B510-4969A0718C16";
paths = (
{
closed = 1;
nodes = (
"123 0 LINE",
"123 254.56 LINE",
"138.045 345.241 OFFCURVE",
"189.567 454 OFFCURVE",
"300 454 CURVE SMOOTH",
"368 454 OFFCURVE",
"407 403 OFFCURVE",
"407 312 CURVE SMOOTH",
"407 0 LINE",
"437 0 LINE",
"437 254.56 LINE",
"452.045 345.241 OFFCURVE",
"503.567 454 OFFCURVE",
"614 454 CURVE SMOOTH",
"682 454 OFFCURVE",
"721 403 OFFCURVE",
"721 312 CURVE SMOOTH",
"721 0 LINE",
"751 0 LINE",
"751 322 LINE SMOOTH",
"751 419 OFFCURVE",
"699 480 OFFCURVE",
"622 480 CURVE SMOOTH",
"517.633 480 OFFCURVE",
"462.773 412.811 OFFCURVE",
"436.64 335.789 CURVE",
"431.923 424.746 OFFCURVE",
"381.284 480 OFFCURVE",
"308 480 CURVE SMOOTH",
"192 480 OFFCURVE",
"137 397 OFFCURVE",
"115 309 CURVE",
"123 292 LINE",
"123 414 LINE SMOOTH",
"123 448 OFFCURVE",
"115 465 OFFCURVE",
"91 480 CURVE",
"72 462 LINE",
"89 446 OFFCURVE",
"93 438 OFFCURVE",
"93 420 CURVE SMOOTH",
"93 0 LINE"
);
}
);
width = 836;
},
{
anchors = (
{
name = bottom;
position = "{399, 0}";
},
{
name = top;
position = "{418, 470}";
}
);
background = {
paths = (
{
closed = 0;
nodes = (
"478 0 LINE"
);
},
{
closed = 1;
nodes = (
"203 0 LINE",
"203 329 LINE SMOOTH",
"203 409 OFFCURVE",
"180 447 OFFCURVE",
"112 482 CURVE",
"25 406 LINE",
"59 381 OFFCURVE",
"73 363 OFFCURVE",
"73 325 CURVE SMOOTH",
"73 0 LINE"
);
},
{
closed = 1;
nodes = (
"753 0 LINE",
"753 320 LINE SMOOTH",
"753 424 OFFCURVE",
"700 482 OFFCURVE",
"603 482 CURVE SMOOTH",
"515 482 OFFCURVE",
"471 429 OFFCURVE",
"452 376 CURVE",
"468 273 LINE",
"480 321 OFFCURVE",
"502 382 OFFCURVE",
"565 382 CURVE SMOOTH",
"601 382 OFFCURVE",
"623 353 OFFCURVE",
"623 308 CURVE SMOOTH",
"623 0 LINE"
);
},
{
closed = 1;
nodes = (
"478 0 LINE",
"478 320 LINE SMOOTH",
"478 424 OFFCURVE",
"425 482 OFFCURVE",
"328 482 CURVE SMOOTH",
"240 482 OFFCURVE",
"196 429 OFFCURVE",
"177 376 CURVE",
"193 273 LINE",
"205 321 OFFCURVE",
"227 382 OFFCURVE",
"290 382 CURVE SMOOTH",
"326 382 OFFCURVE",
"348 353 OFFCURVE",
"348 308 CURVE SMOOTH",
"348 0 LINE"
);
}
);
};
layerId = "204D14C0-8C16-4EB3-B338-290668FF7982";
paths = (
{
closed = 1;
nodes = (
"203 0 LINE",
"203 306.609 LINE",
"217.008 345.411 OFFCURVE",
"241.208 382 OFFCURVE",
"290 382 CURVE SMOOTH",
"326 382 OFFCURVE",
"348 353 OFFCURVE",
"348 308 CURVE SMOOTH",
"348 0 LINE",
"478 0 LINE",
"478 307 LINE",
"492 345 OFFCURVE",
"516.208 382 OFFCURVE",
"565 382 CURVE SMOOTH",
"601 382 OFFCURVE",
"623 353 OFFCURVE",
"623 308 CURVE SMOOTH",
"623 0 LINE",
"753 0 LINE",
"753 320 LINE SMOOTH",
"753 424 OFFCURVE",
"700 482 OFFCURVE",
"603 482 CURVE SMOOTH",
"529.476 482 OFFCURVE",
"486.667 445.003 OFFCURVE",
"463.491 401.92 CURVE",
"441.614 453.962 OFFCURVE",
"395.442 482 OFFCURVE",
"328 482 CURVE SMOOTH",
"254 482 OFFCURVE",
"208 446 OFFCURVE",
"177 381 CURVE",
"202 325 LINE",
"202 346 LINE SMOOTH",
"202 395 OFFCURVE",
"186 446 OFFCURVE",
"112 482 CURVE",
"25 406 LINE",
"59 381 OFFCURVE",
"73 363 OFFCURVE",
"73 325 CURVE SMOOTH",
"73 0 LINE"
);
}
);
width = 808;
},
{
anchors = (
{
name = bottom;
position = "{411, 0}";
},
{
name = top;
position = "{418, 470}";
}
);
layerId = "A9086263-9647-4033-A5C5-78BCE2A7193B";
paths = (
{
closed = 1;
nodes = (
"153 0 LINE",
"153 274 LINE",
"167 345 OFFCURVE",
"209 427 OFFCURVE",
"296 427 CURVE SMOOTH",
"352 427 OFFCURVE",
"385 385 OFFCURVE",
"385 311 CURVE SMOOTH",
"385 0 LINE",
"452 0 LINE",
"452 274 LINE",
"467 345 OFFCURVE",
"508 427 OFFCURVE",
"596 427 CURVE SMOOTH",
"652 427 OFFCURVE",
"685 385 OFFCURVE",
"685 311 CURVE SMOOTH",
"685 0 LINE",
"752 0 LINE",
"752 321 LINE SMOOTH",
"752 421 OFFCURVE",
"699 481 OFFCURVE",
"615 481 CURVE SMOOTH",
"522 481 OFFCURVE",
"472 425 OFFCURVE",
"447 360 CURVE",
"436 436 OFFCURVE",
"387 481 OFFCURVE",
"315 481 CURVE SMOOTH",
"215 481 OFFCURVE",
"163 415 OFFCURVE",
"138 336 CURVE",
"152 304 LINE",
"152 389 LINE SMOOTH",
"152 428 OFFCURVE",
"141 458 OFFCURVE",
"99 481 CURVE",
"55 441 LINE",
"78 422 OFFCURVE",
"86 410 OFFCURVE",
"86 385 CURVE SMOOTH",
"86 0 LINE"
);
}
);
width = 825;
}
);
leftKerningGroup = n;
leftMetricsKey = n;
note = m;
rightKerningGroup = n;
rightMetricsKey = n;
unicode = 006D;
},
{
glyphname = n;
lastChange = "2018-04-10 14:14:53 +0000";
layers = (
{
anchors = (
{
name = bottom;
position = "{270, 0}";
},
{
name = top;
position = "{270, 470}";
}
);
layerId = "0B1DFD06-3317-40CA-B510-4969A0718C16";
paths = (
{
closed = 1;
nodes = (
"454 0 LINE",
"454 322 LINE SMOOTH",
"454 419 OFFCURVE",
"398 480 OFFCURVE",
"314 480 CURVE SMOOTH",
"200 480 OFFCURVE",
"143 404 OFFCURVE",
"118 321 CURVE",
"121 241 LINE",
"133 334 OFFCURVE",
"186 454 OFFCURVE",
"306 454 CURVE SMOOTH",
"381 454 OFFCURVE",
"424 403 OFFCURVE",
"424 312 CURVE SMOOTH",
"424 0 LINE"
);
},
{
closed = 1;
nodes = (
"123 0 LINE",
"123 414 LINE SMOOTH",
"123 448 OFFCURVE",
"115 465 OFFCURVE",
"91 480 CURVE",
"72 462 LINE",
"89 446 OFFCURVE",
"93 438 OFFCURVE",
"93 420 CURVE SMOOTH",
"93 0 LINE"
);
}
);
width = 539;
},
{
anchors = (
{
name = bottom;
position = "{285, 0}";
},
{
name = top;
position = "{271, 470}";
}
);
background = {
paths = (
{
closed = 1;
nodes = (
"496 0 LINE",
"496 320 LINE SMOOTH",
"496 424 OFFCURVE",
"439 482 OFFCURVE",
"336 482 CURVE SMOOTH",
"249 482 OFFCURVE",
"206 418 OFFCURVE",
"187 355 CURVE",
"193 273 LINE",
"206 321 OFFCURVE",
"230 382 OFFCURVE",
"298 382 CURVE SMOOTH",
"340 382 OFFCURVE",
"366 353 OFFCURVE",
"366 308 CURVE SMOOTH",
"366 0 LINE"
);
},
{
closed = 1;
nodes = (
"73 0 LINE",
"204 0 LINE",
"204 309 LINE SMOOTH",
"204 398 OFFCURVE",
"179 442 OFFCURVE",
"104 482 CURVE",
"21 403 LINE",
"64 377 OFFCURVE",
"73 364 OFFCURVE",
"73 335 CURVE SMOOTH"
);
}
);
};
layerId = "204D14C0-8C16-4EB3-B338-290668FF7982";
paths = (
{
closed = 1;
nodes = (
"496 0 LINE",
"496 320 LINE SMOOTH",
"496 424 OFFCURVE",
"439 482 OFFCURVE",
"336 482 CURVE SMOOTH",
"243 482 OFFCURVE",
"197 429 OFFCURVE",
"177 376 CURVE",
"193 273 LINE",
"206 321 OFFCURVE",
"230 382 OFFCURVE",
"298 382 CURVE SMOOTH",
"340 382 OFFCURVE",
"366 353 OFFCURVE",
"366 308 CURVE SMOOTH",
"366 0 LINE"
);
},
{
closed = 1;
nodes = (
"203 0 LINE",
"203 329 LINE SMOOTH",
"203 409 OFFCURVE",
"180 447 OFFCURVE",
"112 482 CURVE",
"25 406 LINE",
"59 381 OFFCURVE",
"73 363 OFFCURVE",
"73 325 CURVE SMOOTH",
"73 0 LINE"
);
}
);
width = 551;
},
{
anchors = (
{
name = bottom;
position = "{276, 0}";
},
{
name = top;
position = "{270, 470}";
}
);
layerId = "A9086263-9647-4033-A5C5-78BCE2A7193B";
paths = (
{
closed = 1;
nodes = (
"470 0 LINE",
"470 321 LINE SMOOTH",
"470 421 OFFCURVE",
"413 481 OFFCURVE",
"322 481 CURVE SMOOTH",
"216 481 OFFCURVE",
"163 413 OFFCURVE",
"140 341 CURVE",
"148 253 LINE",
"160 329 OFFCURVE",
"202 427 OFFCURVE",
"303 427 CURVE SMOOTH",
"366 427 OFFCURVE",
"403 385 OFFCURVE",
"403 311 CURVE SMOOTH",
"403 0 LINE"
);
},
{
closed = 1;
nodes = (
"153 0 LINE",
"153 383 LINE SMOOTH",
"153 434 OFFCURVE",
"139 458 OFFCURVE",
"99 481 CURVE",
"55 441 LINE",
"78 422 OFFCURVE",
"86 410 OFFCURVE",
"86 385 CURVE SMOOTH",
"86 0 LINE"
);
}
);
width = 543;
}
);
note = n;
rightKerningGroup = n;
unicode = 006E;
},
{
glyphname = o;
lastChange = "2018-04-10 14:14:53 +0000";
layers = (
{
anchors = (
{
name = bottom;
position = "{254, 0}";
},
{
name = center;
position = "{254, 235}";
},
{
name = ogonek;
position = "{457, 10}";
},
{
name = top;
position = "{254, 470}";
},
{
name = topright;
position = "{424, 470}";
}
);
background = {
paths = (
{
closed = 1;
nodes = (
"391 -10 OFFCURVE",
"443 74 OFFCURVE",
"443 169 CURVE SMOOTH",
"443 301 LINE SMOOTH",
"443 396 OFFCURVE",
"391 480 OFFCURVE",
"254 480 CURVE SMOOTH",
"117 480 OFFCURVE",
"65 396 OFFCURVE",
"65 301 CURVE SMOOTH",
"65 169 LINE SMOOTH",
"65 74 OFFCURVE",
"117 -10 OFFCURVE",
"254 -10 CURVE SMOOTH"
);
},
{
closed = 1;
nodes = (
"136 16 OFFCURVE",
"95 89 OFFCURVE",
"95 169 CURVE SMOOTH",
"95 301 LINE SMOOTH",
"95 381 OFFCURVE",
"136 454 OFFCURVE",
"254 454 CURVE SMOOTH",
"372 454 OFFCURVE",
"413 381 OFFCURVE",
"413 301 CURVE SMOOTH",
"413 169 LINE SMOOTH",
"413 89 OFFCURVE",
"372 16 OFFCURVE",
"254 16 CURVE SMOOTH"
);
}
);
};
layerId = "0B1DFD06-3317-40CA-B510-4969A0718C16";
paths = (
{
closed = 1;
nodes = (
"391 -10 OFFCURVE",
"443 74 OFFCURVE",
"443 169 CURVE SMOOTH",
"443 301 LINE SMOOTH",
"443 396 OFFCURVE",
"391 480 OFFCURVE",
"254 480 CURVE SMOOTH",
"117 480 OFFCURVE",
"65 396 OFFCURVE",
"65 301 CURVE SMOOTH",
"65 169 LINE SMOOTH",
"65 74 OFFCURVE",
"117 -10 OFFCURVE",
"254 -10 CURVE SMOOTH"
);
},
{
closed = 1;
nodes = (
"136 16 OFFCURVE",
"95 89 OFFCURVE",
"95 169 CURVE SMOOTH",
"95 301 LINE SMOOTH",
"95 381 OFFCURVE",
"136 454 OFFCURVE",
"254 454 CURVE SMOOTH",
"372 454 OFFCURVE",
"413 381 OFFCURVE",
"413 301 CURVE SMOOTH",
"413 169 LINE SMOOTH",
"413 89 OFFCURVE",
"372 16 OFFCURVE",
"254 16 CURVE SMOOTH"
);
}
);
width = 508;
},
{
anchors = (
{
name = bottom;
position = "{260, 0}";
},
{
name = center;
position = "{260, 242}";
},
{
name = ogonek;
position = "{463, 10}";
},
{
name = top;
position = "{260, 470}";
},
{
name = topright;
position = "{421, 470}";
}
);
background = {
paths = (
{
closed = 1;
nodes = (
"399 -12 OFFCURVE",
"476 53 OFFCURVE",
"476 171 CURVE SMOOTH",
"476 299 LINE SMOOTH",
"476 417 OFFCURVE",
"399 482 OFFCURVE",
"260 482 CURVE SMOOTH",
"121 482 OFFCURVE",
"44 417 OFFCURVE",
"44 299 CURVE SMOOTH",
"44 171 LINE SMOOTH",
"44 53 OFFCURVE",
"121 -12 OFFCURVE",
"260 -12 CURVE SMOOTH"
);
},
{
closed = 1;
nodes = (
"205 88 OFFCURVE",
"174 117 OFFCURVE",
"174 171 CURVE SMOOTH",
"174 299 LINE SMOOTH",
"174 353 OFFCURVE",
"205 382 OFFCURVE",
"260 382 CURVE SMOOTH",
"315 382 OFFCURVE",
"346 353 OFFCURVE",
"346 299 CURVE SMOOTH",
"346 171 LINE SMOOTH",
"346 117 OFFCURVE",
"315 88 OFFCURVE",
"260 88 CURVE SMOOTH"
);
}
);
};
layerId = "204D14C0-8C16-4EB3-B338-290668FF7982";
paths = (
{
closed = 1;
nodes = (
"399 -12 OFFCURVE",
"476 54 OFFCURVE",
"476 173 CURVE SMOOTH",
"476 297 LINE SMOOTH",
"476 416 OFFCURVE",
"399 482 OFFCURVE",
"260 482 CURVE SMOOTH",
"121 482 OFFCURVE",
"44 416 OFFCURVE",
"44 297 CURVE SMOOTH",
"44 173 LINE SMOOTH",
"44 54 OFFCURVE",
"121 -12 OFFCURVE",
"260 -12 CURVE SMOOTH"
);
},
{
closed = 1;
nodes = (
"205 88 OFFCURVE",
"174 118 OFFCURVE",
"174 173 CURVE SMOOTH",
"174 297 LINE SMOOTH",
"174 352 OFFCURVE",
"205 382 OFFCURVE",
"260 382 CURVE SMOOTH",
"315 382 OFFCURVE",
"346 352 OFFCURVE",
"346 297 CURVE SMOOTH",
"346 173 LINE SMOOTH",
"346 118 OFFCURVE",
"315 88 OFFCURVE",
"260 88 CURVE SMOOTH"
);
}
);
width = 520;
},
{
anchors = (
{
name = bottom;
position = "{256, 0}";
},
{
name = center;
position = "{256, 238}";
},
{
name = ogonek;
position = "{459, 10}";
},
{
name = top;
position = "{256, 470}";
},
{
name = topright;
position = "{423, 470}";
}
);
layerId = "A9086263-9647-4033-A5C5-78BCE2A7193B";
paths = (
{
closed = 1;
nodes = (
"394 -11 OFFCURVE",
"455 67 OFFCURVE",
"455 170 CURVE SMOOTH",
"455 300 LINE SMOOTH",
"455 403 OFFCURVE",
"394 481 OFFCURVE",
"256 481 CURVE SMOOTH",
"118 481 OFFCURVE",
"57 403 OFFCURVE",
"57 300 CURVE SMOOTH",
"57 170 LINE SMOOTH",
"57 67 OFFCURVE",
"118 -11 OFFCURVE",
"256 -11 CURVE SMOOTH"
);
},
{
closed = 1;
nodes = (
"161 43 OFFCURVE",
"124 100 OFFCURVE",
"124 170 CURVE SMOOTH",
"124 300 LINE SMOOTH",
"124 370 OFFCURVE",
"161 427 OFFCURVE",
"256 427 CURVE SMOOTH",
"351 427 OFFCURVE",
"388 370 OFFCURVE",
"388 300 CURVE SMOOTH",
"388 170 LINE SMOOTH",
"388 100 OFFCURVE",
"351 43 OFFCURVE",
"256 43 CURVE SMOOTH"
);
}
);
width = 512;
}
);
leftKerningGroup = o;
note = o;
rightMetricsKey = "=|";
unicode = 006F;
},
{
glyphname = p;
lastChange = "2018-04-10 14:14:53 +0000";
layers = (
{
anchors = (
{
name = bottom;
position = "{280, 0}";
},
{
name = top;
position = "{280, 470}";
}
);
background = {
paths = (
{
closed = 1;
nodes = (
"144 -221 LINE",
"127 -205 OFFCURVE",
"123 -197 OFFCURVE",
"123 -179 CURVE SMOOTH",
"123 78 LINE",
"147 35 OFFCURVE",
"196 -10 OFFCURVE",
"290 -10 CURVE SMOOTH",
"427 -10 OFFCURVE",
"493 98 OFFCURVE",
"493 219 CURVE SMOOTH",
"493 251 LINE SMOOTH",
"493 372 OFFCURVE",
"427 480 OFFCURVE",
"290 480 CURVE SMOOTH",
"196 480 OFFCURVE",
"147 437 OFFCURVE",
"123 395 CURVE",
"123 414 LINE SMOOTH",
"123 448 OFFCURVE",
"115 465 OFFCURVE",
"91 480 CURVE",
"72 462 LINE",
"89 446 OFFCURVE",
"93 438 OFFCURVE",
"93 420 CURVE SMOOTH",
"93 -173 LINE SMOOTH",
"93 -207 OFFCURVE",
"101 -224 OFFCURVE",
"125 -239 CURVE"
);
},
{
closed = 1;
nodes = (
"215 16 OFFCURVE",
"123 52 OFFCURVE",
"123 179 CURVE SMOOTH",
"123 291 LINE SMOOTH",
"123 416 OFFCURVE",
"215 454 OFFCURVE",
"290 454 CURVE SMOOTH",
"408 454 OFFCURVE",
"463 357 OFFCURVE",
"463 251 CURVE SMOOTH",
"463 219 LINE SMOOTH",
"463 113 OFFCURVE",
"408 16 OFFCURVE",
"290 16 CURVE SMOOTH"
);
},
{
closed = 0;
nodes = (
"123 -227 LINE"
);
}
);
};
layerId = "0B1DFD06-3317-40CA-B510-4969A0718C16";
paths = (
{
closed = 1;
nodes = (
"123 -219 LINE",
"123 78 LINE",
"147 35 OFFCURVE",
"196 -10 OFFCURVE",
"290 -10 CURVE SMOOTH",
"427 -10 OFFCURVE",
"493 98 OFFCURVE",
"493 219 CURVE SMOOTH",
"493 251 LINE SMOOTH",
"493 372 OFFCURVE",
"427 480 OFFCURVE",
"290 480 CURVE SMOOTH",
"196 480 OFFCURVE",
"147 437 OFFCURVE",
"123 395 CURVE",
"123 414 LINE SMOOTH",
"123 448 OFFCURVE",
"115 465 OFFCURVE",
"91 480 CURVE",
"72 462 LINE",
"89 446 OFFCURVE",
"93 438 OFFCURVE",
"93 420 CURVE SMOOTH",
"93 -219 LINE"
);
},
{
closed = 1;
nodes = (
"215 16 OFFCURVE",
"123 52 OFFCURVE",
"123 179 CURVE SMOOTH",
"123 291 LINE SMOOTH",
"123 416 OFFCURVE",
"215 454 OFFCURVE",
"290 454 CURVE SMOOTH",
"408 454 OFFCURVE",
"463 357 OFFCURVE",
"463 251 CURVE SMOOTH",
"463 219 LINE SMOOTH",
"463 113 OFFCURVE",
"408 16 OFFCURVE",
"290 16 CURVE SMOOTH"
);
}
);
width = 556;
},
{
anchors = (
{
name = bottom;
position = "{326, 0}";
},
{
name = top;
position = "{326, 470}";
}
);
background = {
paths = (
{
closed = 0;
nodes = (
"73 358 LINE",
"73 -219 LINE",
"203 -219 LINE",
"203 49 LINE",
"231 16 OFFCURVE",
"273 -12 OFFCURVE",
"348 -12 CURVE SMOOTH",
"486 -12 OFFCURVE",
"553 97 OFFCURVE",
"553 219 CURVE SMOOTH",
"553 251 LINE SMOOTH",
"553 373 OFFCURVE",
"486 482 OFFCURVE",
"348 482 CURVE SMOOTH",
"260 482 OFFCURVE",
"217 440 OFFCURVE",
"189 393 CURVE",
"176 369 LINE",
"203 369 LINE",
"203 329 LINE",
"203 409 OFFCURVE",
"180 447 OFFCURVE",
"112 482 CURVE",
"25 406 LINE",
"59 381 OFFCURVE",
"73 363 OFFCURVE",
"73 325 CURVE SMOOTH",
"73 180 LINE"
);
},
{
closed = 1;
nodes = (
"259 88 OFFCURVE",
"203 113 OFFCURVE",
"203 203 CURVE SMOOTH",
"203 267 LINE SMOOTH",
"204 357 OFFCURVE",
"259 382 OFFCURVE",
"310 382 CURVE SMOOTH",
"387 382 OFFCURVE",
"423 319 OFFCURVE",
"423 251 CURVE SMOOTH",
"423 219 LINE SMOOTH",
"423 151 OFFCURVE",
"387 88 OFFCURVE",
"310 88 CURVE SMOOTH"
);
}
);
};
layerId = "204D14C0-8C16-4EB3-B338-290668FF7982";
paths = (
{
closed = 1;
nodes = (
"203 -219 LINE",
"203 49 LINE",
"231 13 OFFCURVE",
"267 -12 OFFCURVE",
"348 -12 CURVE SMOOTH",
"486 -12 OFFCURVE",
"553 97 OFFCURVE",
"553 219 CURVE SMOOTH",
"553 251 LINE SMOOTH",
"553 373 OFFCURVE",
"486 482 OFFCURVE",
"348 482 CURVE SMOOTH",
"266 482 OFFCURVE",
"213 444 OFFCURVE",
"179 376 CURVE",
"200 376 LINE",
"191 426 OFFCURVE",
"165 455 OFFCURVE",
"112 482 CURVE",
"25 406 LINE",
"59 381 OFFCURVE",
"73 362 OFFCURVE",
"73 325 CURVE SMOOTH",
"73 -219 LINE"
);
},
{
closed = 1;
nodes = (
"259 88 OFFCURVE",
"203 113 OFFCURVE",
"203 203 CURVE SMOOTH",
"203 267 LINE SMOOTH",
"204 357 OFFCURVE",
"259 382 OFFCURVE",
"310 382 CURVE SMOOTH",
"387 382 OFFCURVE",
"423 319 OFFCURVE",
"423 251 CURVE SMOOTH",
"423 219 LINE SMOOTH",
"423 151 OFFCURVE",
"387 88 OFFCURVE",
"310 88 CURVE SMOOTH"
);
}
);
width = 602;
},
{
anchors = (
{
name = bottom;
position = "{297, 0}";
},
{
name = top;
position = "{297, 470}";
}
);
layerId = "A9086263-9647-4033-A5C5-78BCE2A7193B";
paths = (
{
closed = 1;
nodes = (
"153 -219 LINE",
"153 67 LINE",
"178 27 OFFCURVE",
"222 -11 OFFCURVE",
"311 -11 CURVE SMOOTH",
"449 -11 OFFCURVE",
"515 98 OFFCURVE",
"515 219 CURVE SMOOTH",
"515 251 LINE SMOOTH",
"515 372 OFFCURVE",
"449 481 OFFCURVE",
"311 481 CURVE SMOOTH",
"222 481 OFFCURVE",
"171 440 OFFCURVE",
"144 388 CURVE",
"151 400 LINE SMOOTH",
"148 440 OFFCURVE",
"133 461 OFFCURVE",
"99 481 CURVE",
"55 441 LINE",
"78 422 OFFCURVE",
"86 410 OFFCURVE",
"86 385 CURVE SMOOTH",
"86 -219 LINE"
);
},
{
closed = 1;
nodes = (
"231 43 OFFCURVE",
"153 75 OFFCURVE",
"153 188 CURVE SMOOTH",
"153 282 LINE SMOOTH",
"153 394 OFFCURVE",
"231 427 OFFCURVE",
"297 427 CURVE SMOOTH",
"400 427 OFFCURVE",
"448 343 OFFCURVE",
"448 251 CURVE SMOOTH",
"448 219 LINE SMOOTH",
"448 127 OFFCURVE",
"400 43 OFFCURVE",
"297 43 CURVE SMOOTH"
);
}
);
width = 573;
}
);
leftKerningGroup = n;
leftMetricsKey = n;
note = p;
unicode = 0070;
},
{
glyphname = q;
lastChange = "2018-04-10 14:14:53 +0000";
layers = (
{
anchors = (
{
name = bottom;
position = "{278, 0}";
},
{
name = top;
position = "{278, 470}";
}
);
background = {
paths = (
{
closed = 0;
nodes = (
"556 420 LINE SMOOTH",
"556 438 OFFCURVE",
"560 446 OFFCURVE",
"577 462 CURVE",
"558 480 LINE",
"534 465 OFFCURVE",
"526 448 OFFCURVE",
"526 414 CURVE SMOOTH",
"526 395 LINE"
);
}
);
};
layerId = "0B1DFD06-3317-40CA-B510-4969A0718C16";
paths = (
{
closed = 1;
nodes = (
"463 -219 LINE",
"463 470 LINE",
"433 470 LINE",
"433 395 LINE",
"409 437 OFFCURVE",
"360 480 OFFCURVE",
"266 480 CURVE SMOOTH",
"129 480 OFFCURVE",
"63 372 OFFCURVE",
"63 251 CURVE SMOOTH",
"63 219 LINE SMOOTH",
"63 98 OFFCURVE",
"129 -10 OFFCURVE",
"266 -10 CURVE SMOOTH",
"360 -10 OFFCURVE",
"409 35 OFFCURVE",
"433 78 CURVE",
"433 -219 LINE"
);
},
{
closed = 1;
nodes = (
"148 16 OFFCURVE",
"93 113 OFFCURVE",
"93 219 CURVE SMOOTH",
"93 251 LINE SMOOTH",
"93 357 OFFCURVE",
"148 454 OFFCURVE",
"266 454 CURVE SMOOTH",
"341 454 OFFCURVE",
"433 418 OFFCURVE",
"433 291 CURVE SMOOTH",
"433 179 LINE SMOOTH",
"433 52 OFFCURVE",
"341 16 OFFCURVE",
"266 16 CURVE SMOOTH"
);
}
);
width = 556;
},
{
anchors = (
{
name = bottom;
position = "{278, 0}";
},
{
name = top;
position = "{278, 470}";
}
);
background = {
paths = (
{
closed = 1;
nodes = (
"373 203 LINE",
"373 113 OFFCURVE",
"317 88 OFFCURVE",
"266 88 CURVE SMOOTH",
"189 88 OFFCURVE",
"153 151 OFFCURVE",
"153 219 CURVE SMOOTH",
"153 251 LINE SMOOTH",
"153 319 OFFCURVE",
"189 382 OFFCURVE",
"266 382 CURVE SMOOTH",
"317 382 OFFCURVE",
"372 357 OFFCURVE",
"373 267 CURVE",
"398 385 LINE",
"377 431 OFFCURVE",
"329 482 OFFCURVE",
"228 482 CURVE SMOOTH",
"90 482 OFFCURVE",
"23 373 OFFCURVE",
"23 251 CURVE SMOOTH",
"23 219 LINE SMOOTH",
"23 97 OFFCURVE",
"90 -12 OFFCURVE",
"228 -12 CURVE SMOOTH",
"328 -12 OFFCURVE",
"377 42 OFFCURVE",
"398 88 CURVE"
);
},
{
closed = 1;
nodes = (
"373 -219 LINE",
"503 -219 LINE",
"503 470 LINE",
"373 470 LINE"
);
}
);
};
layerId = "204D14C0-8C16-4EB3-B338-290668FF7982";
paths = (
{
closed = 1;
nodes = (
"503 -219 LINE",
"503 470 LINE",
"373 470 LINE",
"373 424 LINE",
"345 456 OFFCURVE",
"303 482 OFFCURVE",
"228 482 CURVE SMOOTH",
"90 482 OFFCURVE",
"23 373 OFFCURVE",
"23 251 CURVE SMOOTH",
"23 219 LINE SMOOTH",
"23 78 OFFCURVE",
"103 -12 OFFCURVE",
"228 -12 CURVE SMOOTH",
"303 -12 OFFCURVE",
"345.266 15.813 OFFCURVE",
"373 48.521 CURVE",
"373 -219 LINE"
);
},
{
closed = 1;
nodes = (
"189 88 OFFCURVE",
"153 151 OFFCURVE",
"153 219 CURVE SMOOTH",
"153 251 LINE SMOOTH",
"153 319 OFFCURVE",
"189 382 OFFCURVE",
"266 382 CURVE SMOOTH",
"317 382 OFFCURVE",
"372 357 OFFCURVE",
"373 267 CURVE SMOOTH",
"373 203 LINE SMOOTH",
"373 113 OFFCURVE",
"317 88 OFFCURVE",
"266 88 CURVE SMOOTH"
);
}
);
width = 556;
},
{
anchors = (
{
name = bottom;
position = "{278, 0}";
},
{
name = top;
position = "{278, 470}";
}
);
layerId = "A9086263-9647-4033-A5C5-78BCE2A7193B";
paths = (
{
closed = 1;
nodes = (
"478 -219 LINE",
"478 470 LINE",
"411 470 LINE",
"411 406 LINE",
"385 444 OFFCURVE",
"339 481 OFFCURVE",
"252 481 CURVE SMOOTH",
"115 481 OFFCURVE",
"48 372 OFFCURVE",
"48 251 CURVE SMOOTH",
"48 219 LINE SMOOTH",
"48 91 OFFCURVE",
"119 -11 OFFCURVE",
"252 -11 CURVE SMOOTH",
"339 -11 OFFCURVE",
"385 28 OFFCURVE",
"411 67 CURVE",
"411 -219 LINE"
);
},
{
closed = 1;
nodes = (
"163 43 OFFCURVE",
"115 127 OFFCURVE",
"115 219 CURVE SMOOTH",
"115 251 LINE SMOOTH",
"115 343 OFFCURVE",
"163 427 OFFCURVE",
"266 427 CURVE SMOOTH",
"332 427 OFFCURVE",
"410 395 OFFCURVE",
"411 282 CURVE SMOOTH",
"411 188 LINE SMOOTH",
"411 75 OFFCURVE",
"332 43 OFFCURVE",
"266 43 CURVE SMOOTH"
);
}
);
width = 556;
}
);
leftKerningGroup = d;
note = q;
unicode = 0071;
},
{
glyphname = r;
lastChange = "2018-04-10 14:14:53 +0000";
layers = (
{
anchors = (
{
name = bottom;
position = "{109, 0}";
},
{
name = top;
position = "{185, 470}";
}
);
layerId = "0B1DFD06-3317-40CA-B510-4969A0718C16";
paths = (
{
closed = 1;
nodes = (
"135 308 OFFCURVE",
"181 447 OFFCURVE",
"288 447 CURVE SMOOTH",
"307 447 OFFCURVE",
"324 443 OFFCURVE",
"339 435 CURVE",
"349 469 LINE",
"334 476 OFFCURVE",
"317 480 OFFCURVE",
"298 480 CURVE SMOOTH",
"196 480 OFFCURVE",
"142 393 OFFCURVE",
"120 300 CURVE",
"123 207 LINE"
);
},
{
closed = 1;
nodes = (
"125 0 LINE",
"125 414 LINE SMOOTH",
"125 448 OFFCURVE",
"117 465 OFFCURVE",
"93 480 CURVE",
"72 462 LINE",
"89 446 OFFCURVE",
"93 438 OFFCURVE",
"93 420 CURVE SMOOTH",
"93 0 LINE"
);
}
);
width = 369;
},
{
anchors = (
{
name = bottom;
position = "{138, 0}";
},
{
name = top;
position = "{210, 470}";
}
);
layerId = "204D14C0-8C16-4EB3-B338-290668FF7982";
paths = (
{
closed = 1;
nodes = (
"206 303 OFFCURVE",
"230 372 OFFCURVE",
"298 372 CURVE SMOOTH",
"337 372 OFFCURVE",
"359 363 OFFCURVE",
"385 346 CURVE",
"417 454 LINE",
"391 474 OFFCURVE",
"362 482 OFFCURVE",
"329 482 CURVE SMOOTH",
"240 482 OFFCURVE",
"196 417 OFFCURVE",
"177 351 CURVE",
"193 248 LINE"
);
},
{
closed = 1;
nodes = (
"203 0 LINE",
"203 329 LINE SMOOTH",
"203 409 OFFCURVE",
"180 447 OFFCURVE",
"112 482 CURVE",
"25 406 LINE",
"59 381 OFFCURVE",
"73 363 OFFCURVE",
"73 325 CURVE SMOOTH",
"73 0 LINE"
);
}
);
width = 419;
},
{
anchors = (
{
name = bottom;
position = "{120, 0}";
},
{
name = top;
position = "{194, 470}";
}
);
layerId = "A9086263-9647-4033-A5C5-78BCE2A7193B";
paths = (
{
closed = 1;
nodes = (
"161 306 OFFCURVE",
"199 419 OFFCURVE",
"292 419 CURVE SMOOTH",
"318 419 OFFCURVE",
"337 413 OFFCURVE",
"356 402 CURVE",
"374 463 LINE",
"355 475 OFFCURVE",
"334 481 OFFCURVE",
"309 481 CURVE SMOOTH",
"212 481 OFFCURVE",
"162 402 OFFCURVE",
"141 319 CURVE",
"149 222 LINE"
);
},
{
closed = 1;
nodes = (
"154 0 LINE",
"154 383 LINE SMOOTH",
"154 434 OFFCURVE",
"140 458 OFFCURVE",
"100 481 CURVE",
"55 441 LINE",
"78 422 OFFCURVE",
"86 410 OFFCURVE",
"86 385 CURVE SMOOTH",
"86 0 LINE"
);
}
);
width = 387;
}
);
leftKerningGroup = n;
leftMetricsKey = n;
note = r;
unicode = 0072;
},
{
glyphname = s;
lastChange = "2018-04-10 14:14:53 +0000";
layers = (
{
anchors = (
{
name = bottom;
position = "{235, 0}";
},
{
name = top;
position = "{222, 470}";
}
);
layerId = "0B1DFD06-3317-40CA-B510-4969A0718C16";
paths = (
{
closed = 1;
nodes = (
"327 -10 OFFCURVE",
"390 36 OFFCURVE",
"390 119 CURVE SMOOTH",
"390 221 OFFCURVE",
"297 241 OFFCURVE",
"215 255 CURVE SMOOTH",
"151 266 OFFCURVE",
"90 283 OFFCURVE",
"90 355 CURVE SMOOTH",
"90 417 OFFCURVE",
"146 454 OFFCURVE",
"215 454 CURVE SMOOTH",
"270 454 OFFCURVE",
"321 440 OFFCURVE",
"355 389 CURVE",
"377 406 LINE",
"348 455 OFFCURVE",
"293 480 OFFCURVE",
"215 480 CURVE SMOOTH",
"135 480 OFFCURVE",
"60 439 OFFCURVE",
"60 357 CURVE SMOOTH",
"60 267 OFFCURVE",
"125 240 OFFCURVE",
"199 227 CURVE SMOOTH",
"276 214 OFFCURVE",
"360 201 OFFCURVE",
"360 121 CURVE SMOOTH",
"360 54 OFFCURVE",
"308 16 OFFCURVE",
"215 16 CURVE SMOOTH",
"138 16 OFFCURVE",
"105 40 OFFCURVE",
"69 85 CURVE",
"48 66 LINE",
"80 23 OFFCURVE",
"122 -10 OFFCURVE",
"215 -10 CURVE SMOOTH"
);
}
);
width = 443;
},
{
anchors = (
{
name = bottom;
position = "{235, 0}";
},
{
name = top;
position = "{222, 470}";
}
);
background = {
paths = (
{
closed = 1;
nodes = (
"345 -12 OFFCURVE",
"410 33 OFFCURVE",
"410 129 CURVE SMOOTH",
"410 237 OFFCURVE",
"327 257 OFFCURVE",
"236 278 CURVE SMOOTH",
"201 286 OFFCURVE",
"153 298 OFFCURVE",
"153 340 CURVE SMOOTH",
"153 375 OFFCURVE",
"176 393 OFFCURVE",
"224 393 CURVE SMOOTH",
"271 393 OFFCURVE",
"293 376 OFFCURVE",
"328 342 CURVE",
"399 402 LINE",
"368 449 OFFCURVE",
"322 482 OFFCURVE",
"224 482 CURVE SMOOTH",
"114 482 OFFCURVE",
"42 428 OFFCURVE",
"42 342 CURVE SMOOTH",
"42 261 OFFCURVE",
"88 214 OFFCURVE",
"177 197 CURVE SMOOTH",
"274 178 OFFCURVE",
"299 163 OFFCURVE",
"299 129 CURVE SMOOTH",
"299 92 OFFCURVE",
"274 77 OFFCURVE",
"215 77 CURVE SMOOTH",
"157 77 OFFCURVE",
"132 94 OFFCURVE",
"96 137 CURVE",
"24 76 LINE",
"63 22 OFFCURVE",
"98 -12 OFFCURVE",
"215 -12 CURVE SMOOTH"
);
}
);
};
layerId = "204D14C0-8C16-4EB3-B338-290668FF7982";
paths = (
{
closed = 1;
nodes = (
"352 -12 OFFCURVE",
"420 33 OFFCURVE",
"420 129 CURVE SMOOTH",
"420 244 OFFCURVE",
"332 266 OFFCURVE",
"236 288 CURVE SMOOTH",
"204 294 OFFCURVE",
"160 305 OFFCURVE",
"160 337 CURVE SMOOTH",
"160 366 OFFCURVE",
"181 382 OFFCURVE",
"224 382 CURVE SMOOTH",
"269 382 OFFCURVE",
"292 366 OFFCURVE",
"324 334 CURVE",
"404 402 LINE",
"373 449 OFFCURVE",
"325 482 OFFCURVE",
"224 482 CURVE SMOOTH",
"111 482 OFFCURVE",
"37 428 OFFCURVE",
"37 342 CURVE SMOOTH",
"37 257 OFFCURVE",
"85 208 OFFCURVE",
"177 190 CURVE SMOOTH",
"272 174 OFFCURVE",
"297 161 OFFCURVE",
"297 132 CURVE SMOOTH",
"297 101 OFFCURVE",
"273 88 OFFCURVE",
"215 88 CURVE SMOOTH",
"161 88 OFFCURVE",
"138 104 OFFCURVE",
"105 145 CURVE",
"24 76 LINE",
"63 22 OFFCURVE",
"98 -12 OFFCURVE",
"215 -12 CURVE SMOOTH"
);
}
);
width = 443;
},
{
anchors = (
{
name = bottom;
position = "{235, 0}";
},
{
name = top;
position = "{222, 470}";
}
);
layerId = "A9086263-9647-4033-A5C5-78BCE2A7193B";
paths = (
{
closed = 1;
nodes = (
"336 -11 OFFCURVE",
"401 35 OFFCURVE",
"401 123 CURVE SMOOTH",
"401 229 OFFCURVE",
"310 250 OFFCURVE",
"223 267 CURVE SMOOTH",
"171 276 OFFCURVE",
"116 291 OFFCURVE",
"116 348 CURVE SMOOTH",
"116 398 OFFCURVE",
"159 427 OFFCURVE",
"218 427 CURVE SMOOTH",
"270 427 OFFCURVE",
"310 413 OFFCURVE",
"344 369 CURVE",
"387 405 LINE",
"357 453 OFFCURVE",
"305 481 OFFCURVE",
"218 481 CURVE SMOOTH",
"126 481 OFFCURVE",
"52 435 OFFCURVE",
"52 351 CURVE SMOOTH",
"52 263 OFFCURVE",
"110 228 OFFCURVE",
"191 213 CURVE SMOOTH",
"275 199 OFFCURVE",
"337 186 OFFCURVE",
"337 125 CURVE SMOOTH",
"337 71 OFFCURVE",
"295 43 OFFCURVE",
"215 43 CURVE SMOOTH",
"146 43 OFFCURVE",
"117 64 OFFCURVE",
"82 107 CURVE",
"39 70 LINE",
"74 23 OFFCURVE",
"113 -11 OFFCURVE",
"215 -11 CURVE SMOOTH"
);
}
);
width = 443;
}
);
note = s;
unicode = 0073;
},
{
glyphname = t;
lastChange = "2018-04-10 14:14:53 +0000";
layers = (
{
anchors = (
{
name = bottom;
position = "{177, 0}";
},
{
name = center;
position = "{139, 235}";
},
{
name = top;
position = "{114, 618}";
},
{
name = topright;
position = "{257, 470}";
}
);
background = {
paths = (
{
closed = 1;
nodes = (
"257 -10 LINE",
"257 16 LINE",
"242 16 LINE SMOOTH",
"165 16 OFFCURVE",
"122 61 OFFCURVE",
"122 142 CURVE SMOOTH",
"122 594 LINE SMOOTH",
"122 628 OFFCURVE",
"114 645 OFFCURVE",
"91 660 CURVE",
"71 642 LINE",
"88 626 OFFCURVE",
"92 618 OFFCURVE",
"92 600 CURVE SMOOTH",
"92 142 LINE SMOOTH",
"92 44 OFFCURVE",
"146 -10 OFFCURVE",
"242 -10 CURVE SMOOTH"
);
},
{
closed = 1;
nodes = (
"107 444 LINE",
"257 444 LINE",
"257 470 LINE",
"108 470 LINE",
"108 442 LINE"
);
},
{
closed = 0;
nodes = (
"92 112 LINE SMOOTH",
"92 33 OFFCURVE",
"132 -10 OFFCURVE",
"202 -10 CURVE SMOOTH"
);
},
{
closed = 0;
nodes = (
"202 16 LINE SMOOTH",
"151 16 OFFCURVE",
"122 50 OFFCURVE",
"122 112 CURVE SMOOTH"
);
}
);
};
layerId = "0B1DFD06-3317-40CA-B510-4969A0718C16";
paths = (
{
closed = 1;
nodes = (
"257 -10 LINE",
"257 16 LINE",
"212 16 LINE SMOOTH",
"154 16 OFFCURVE",
"122 50 OFFCURVE",
"122 112 CURVE SMOOTH",
"122 594 LINE SMOOTH",
"122 628 OFFCURVE",
"114 645 OFFCURVE",
"91 660 CURVE",
"71 642 LINE",
"88 626 OFFCURVE",
"92 618 OFFCURVE",
"92 600 CURVE SMOOTH",
"92 112 LINE SMOOTH",
"92 33 OFFCURVE",
"135 -10 OFFCURVE",
"212 -10 CURVE SMOOTH"
);
},
{
closed = 1;
nodes = (
"107 444 LINE",
"257 444 LINE",
"257 470 LINE",
"108 470 LINE",
"108 442 LINE"
);
}
);
width = 287;
},
{
anchors = (
{
name = bottom;
position = "{239, 0}";
},
{
name = center;
position = "{179, 235}";
},
{
name = top;
position = "{129, 700}";
},
{
name = topright;
position = "{337, 470}";
}
);
layerId = "204D14C0-8C16-4EB3-B338-290668FF7982";
paths = (
{
closed = 1;
nodes = (
"342 0 LINE",
"342 100 LINE",
"263 100 LINE SMOOTH",
"221 100 OFFCURVE",
"206 120 OFFCURVE",
"206 176 CURVE SMOOTH",
"206 547 LINE SMOOTH",
"206 627 OFFCURVE",
"183 665 OFFCURVE",
"115 700 CURVE",
"28 624 LINE",
"62 599 OFFCURVE",
"76 581 OFFCURVE",
"76 543 CURVE SMOOTH",
"76 176 LINE SMOOTH",
"76 46 OFFCURVE",
"125 0 OFFCURVE",
"263 0 CURVE SMOOTH"
);
},
{
closed = 1;
nodes = (
"107 370 LINE",
"342 370 LINE",
"342 470 LINE",
"108 470 LINE",
"108 368 LINE"
);
}
);
width = 357;
},
{
anchors = (
{
name = bottom;
position = "{200, 0}";
},
{
name = center;
position = "{154, 235}";
},
{
name = top;
position = "{120, 648}";
},
{
name = topright;
position = "{287, 470}";
}
);
layerId = "A9086263-9647-4033-A5C5-78BCE2A7193B";
paths = (
{
closed = 1;
nodes = (
"288 -6 LINE",
"288 47 LINE",
"231 47 LINE SMOOTH",
"179 47 OFFCURVE",
"153 76 OFFCURVE",
"153 136 CURVE SMOOTH",
"153 577 LINE SMOOTH",
"153 628 OFFCURVE",
"139 652 OFFCURVE",
"100 675 CURVE",
"55 635 LINE",
"78 616 OFFCURVE",
"86 604 OFFCURVE",
"86 579 CURVE SMOOTH",
"86 136 LINE SMOOTH",
"86 38 OFFCURVE",
"131 -6 OFFCURVE",
"231 -6 CURVE SMOOTH"
);
},
{
closed = 1;
nodes = (
"107 417 LINE",
"288 417 LINE",
"288 470 LINE",
"108 470 LINE",
"108 415 LINE"
);
}
);
width = 313;
}
);
note = t;
unicode = 0074;
},
{
glyphname = u;
lastChange = "2018-04-16 16:32:23 +0000";
layers = (
{
anchors = (
{
name = bottom;
position = "{262, 0}";
},
{
name = ogonek;
position = "{471, 10}";
},
{
name = top;
position = "{262, 470}";
},
{
name = topright;
position = "{442, 470}";
}
);
background = {
paths = (
{
closed = 1;
nodes = (
"335 -10 OFFCURVE",
"392 61 OFFCURVE",
"417 139 CURVE",
"414 219 LINE",
"402 131 OFFCURVE",
"349 16 OFFCURVE",
"229 16 CURVE SMOOTH",
"150 16 OFFCURVE",
"106 67 OFFCURVE",
"106 158 CURVE SMOOTH",
"106 414 LINE SMOOTH",
"106 448 OFFCURVE",
"99 465 OFFCURVE",
"76 480 CURVE",
"55 462 LINE",
"72 446 OFFCURVE",
"76 438 OFFCURVE",
"76 420 CURVE SMOOTH",
"76 158 LINE SMOOTH",
"76 50 OFFCURVE",
"131 -10 OFFCURVE",
"221 -10 CURVE SMOOTH"
);
},
{
closed = 1;
nodes = (
"465 8 LINE",
"446 24 OFFCURVE",
"442 32 OFFCURVE",
"442 50 CURVE SMOOTH",
"442 470 LINE",
"412 470 LINE",
"412 56 LINE SMOOTH",
"412 22 OFFCURVE",
"420 5 OFFCURVE",
"444 -10 CURVE"
);
}
);
};
layerId = "0B1DFD06-3317-40CA-B510-4969A0718C16";
paths = (
{
closed = 1;
nodes = (
"76 470 LINE",
"76 158 LINE SMOOTH",
"76 50 OFFCURVE",
"131 -10 OFFCURVE",
"221 -10 CURVE SMOOTH",
"335 -10 OFFCURVE",
"392 61 OFFCURVE",
"417 139 CURVE",
"414 219 LINE",
"402 131 OFFCURVE",
"349 16 OFFCURVE",
"229 16 CURVE SMOOTH",
"150 16 OFFCURVE",
"106 67 OFFCURVE",
"106 158 CURVE SMOOTH",
"106 470 LINE"
);
},
{
closed = 1;
nodes = (
"465 8 LINE",
"446 24 OFFCURVE",
"442 32 OFFCURVE",
"442 50 CURVE SMOOTH",
"442 470 LINE",
"412 470 LINE",
"412 56 LINE SMOOTH",
"412 22 OFFCURVE",
"420 5 OFFCURVE",
"444 -10 CURVE"
);
}
);
width = 537;
},
{
anchors = (
{
name = bottom;
position = "{271, 0}";
},
{
name = ogonek;
position = "{480, 10}";
},
{
name = top;
position = "{271, 470}";
},
{
name = topright;
position = "{486, 472}";
}
);
background = {
paths = (
{
closed = 1;
nodes = (
"474 8 LINE",
"455 24 OFFCURVE",
"451 32 OFFCURVE",
"451 50 CURVE SMOOTH",
"451 470 LINE",
"421 470 LINE",
"421 56 LINE SMOOTH",
"421 22 OFFCURVE",
"429 5 OFFCURVE",
"453 -10 CURVE"
);
},
{
closed = 1;
nodes = (
"115 414 LINE SMOOTH",
"115 448 OFFCURVE",
"108 465 OFFCURVE",
"85 480 CURVE",
"64 462 LINE",
"81 446 OFFCURVE",
"85 438 OFFCURVE",
"85 420 CURVE SMOOTH",
"85 158 LINE SMOOTH",
"85 50 OFFCURVE",
"140 -10 OFFCURVE",
"230 -10 CURVE SMOOTH",
"344 -10 OFFCURVE",
"401 61 OFFCURVE",
"426 139 CURVE",
"423 219 LINE",
"411 131 OFFCURVE",
"358 16 OFFCURVE",
"238 16 CURVE SMOOTH",
"159 16 OFFCURVE",
"115 67 OFFCURVE",
"115 158 CURVE SMOOTH"
);
}
);
};
layerId = "204D14C0-8C16-4EB3-B338-290668FF7982";
paths = (
{
closed = 1;
nodes = (
"78 472 LINE",
"78 152 LINE SMOOTH",
"78 48 OFFCURVE",
"137 -10 OFFCURVE",
"243 -10 CURVE SMOOTH",
"336 -10 OFFCURVE",
"382 48 OFFCURVE",
"402 106 CURVE",
"386 209 LINE",
"373 157 OFFCURVE",
"349 90 OFFCURVE",
"281 90 CURVE SMOOTH",
"236 90 OFFCURVE",
"208 119 OFFCURVE",
"208 164 CURVE SMOOTH",
"208 472 LINE"
);
},
{
closed = 1;
nodes = (
"554 66 LINE",
"520 91 OFFCURVE",
"506 109 OFFCURVE",
"506 147 CURVE SMOOTH",
"506 472 LINE",
"376 472 LINE",
"376 143 LINE SMOOTH",
"376 63 OFFCURVE",
"399 25 OFFCURVE",
"467 -10 CURVE"
);
}
);
width = 579;
},
{
anchors = (
{
name = bottom;
position = "{265, 0}";
},
{
name = ogonek;
position = "{474, 10}";
},
{
name = top;
position = "{265, 470}";
},
{
name = topright;
position = "{458, 471}";
}
);
background = {
paths = (
{
closed = 1;
nodes = (
"335 -10 OFFCURVE",
"388 56 OFFCURVE",
"411 127 CURVE",
"404 215 LINE",
"391 141 OFFCURVE",
"349 43 OFFCURVE",
"248 43 CURVE SMOOTH",
"182 43 OFFCURVE",
"144 86 OFFCURVE",
"144 160 CURVE SMOOTH",
"144 383 LINE SMOOTH",
"144 434 OFFCURVE",
"131 458 OFFCURVE",
"91 481 CURVE",
"46 441 LINE",
"69 422 OFFCURVE",
"77 410 OFFCURVE",
"77 385 CURVE SMOOTH",
"77 156 LINE SMOOTH",
"77 49 OFFCURVE",
"133 -10 OFFCURVE",
"229 -10 CURVE SMOOTH"
);
},
{
closed = 1;
nodes = (
"498 29 LINE",
"473 49 OFFCURVE",
"466 60 OFFCURVE",
"466 86 CURVE SMOOTH",
"466 471 LINE",
"399 471 LINE",
"399 88 LINE SMOOTH",
"399 37 OFFCURVE",
"412 12 OFFCURVE",
"452 -10 CURVE"
);
}
);
};
layerId = "A9086263-9647-4033-A5C5-78BCE2A7193B";
paths = (
{
closed = 1;
nodes = (
"77 471 LINE",
"77 156 LINE SMOOTH",
"77 49 OFFCURVE",
"133 -10 OFFCURVE",
"229 -10 CURVE SMOOTH",
"335 -10 OFFCURVE",
"388 56 OFFCURVE",
"411 127 CURVE",
"404 215 LINE",
"391 141 OFFCURVE",
"349 43 OFFCURVE",
"248 43 CURVE SMOOTH",
"182 43 OFFCURVE",
"144 86 OFFCURVE",
"144 160 CURVE SMOOTH",
"144 471 LINE"
);
},
{
closed = 1;
nodes = (
"498 29 LINE",
"473 49 OFFCURVE",
"466 60 OFFCURVE",
"466 86 CURVE SMOOTH",
"466 471 LINE",
"399 471 LINE",
"399 88 LINE SMOOTH",
"399 37 OFFCURVE",
"412 12 OFFCURVE",
"452 -10 CURVE"
);
}
);
width = 553;
}
);
note = u;
unicode = 0075;
},
{
glyphname = v;
lastChange = "2018-04-10 14:14:53 +0000";
layers = (
{
anchors = (
{
name = bottom;
position = "{207, 0}";
},
{
name = top;
position = "{207, 470}";
}
);
layerId = "0B1DFD06-3317-40CA-B510-4969A0718C16";
paths = (
{
closed = 1;
nodes = (
"256 -10 OFFCURVE",
"266 23 OFFCURVE",
"289 99 CURVE SMOOTH",
"401 470 LINE",
"371 470 LINE",
"259 99 LINE SMOOTH",
"242 43 OFFCURVE",
"234 16 OFFCURVE",
"207 16 CURVE SMOOTH",
"180 16 OFFCURVE",
"172 43 OFFCURVE",
"155 99 CURVE SMOOTH",
"43 470 LINE",
"13 470 LINE",
"125 99 LINE SMOOTH",
"148 23 OFFCURVE",
"158 -10 OFFCURVE",
"207 -10 CURVE SMOOTH"
);
}
);
width = 414;
},
{
anchors = (
{
name = bottom;
position = "{269, 0}";
},
{
name = top;
position = "{269, 470}";
}
);
layerId = "204D14C0-8C16-4EB3-B338-290668FF7982";
paths = (
{
closed = 1;
nodes = (
"340 -12 OFFCURVE",
"376 19 OFFCURVE",
"399 93 CURVE SMOOTH",
"515 470 LINE",
"389 470 LINE",
"281 105 LINE SMOOTH",
"278 94 OFFCURVE",
"275 88 OFFCURVE",
"269 88 CURVE SMOOTH",
"261 88 OFFCURVE",
"259 95 OFFCURVE",
"256 105 CURVE SMOOTH",
"146 470 LINE",
"20 470 LINE",
"138 93 LINE SMOOTH",
"161 19 OFFCURVE",
"199 -12 OFFCURVE",
"269 -12 CURVE SMOOTH"
);
}
);
width = 535;
},
{
anchors = (
{
name = bottom;
position = "{230, 0}";
},
{
name = top;
position = "{230, 470}";
}
);
layerId = "A9086263-9647-4033-A5C5-78BCE2A7193B";
paths = (
{
closed = 1;
nodes = (
"287 -11 OFFCURVE",
"307 22 OFFCURVE",
"330 97 CURVE SMOOTH",
"443 470 LINE",
"378 470 LINE",
"267 101 LINE SMOOTH",
"255 62 OFFCURVE",
"249 43 OFFCURVE",
"230 43 CURVE SMOOTH",
"210 43 OFFCURVE",
"204 62 OFFCURVE",
"192 101 CURVE SMOOTH",
"81 470 LINE",
"16 470 LINE",
"130 97 LINE SMOOTH",
"153 22 OFFCURVE",
"173 -11 OFFCURVE",
"230 -11 CURVE SMOOTH"
);
}
);
width = 459;
}
);
note = v;
rightMetricsKey = "=|";
unicode = 0076;
},
{
glyphname = w;
lastChange = "2018-04-10 14:14:53 +0000";
layers = (
{
anchors = (
{
name = bottom;
position = "{311, 0}";
},
{
name = top;
position = "{311, 470}";
}
);
background = {
paths = (
{
closed = 1;
nodes = (
"181 0 LINE",
"229 82 OFFCURVE",
"278 177 OFFCURVE",
"311 300 CURVE",
"344 177 OFFCURVE",
"393 82 OFFCURVE",
"441 0 CURVE",
"467 0 LINE",
"597 470 LINE",
"567 470 LINE",
"445 30 LINE",
"458 30 LINE",
"420 83 OFFCURVE",
"358 225 OFFCURVE",
"311 396 CURVE",
"264 225 OFFCURVE",
"202 83 OFFCURVE",
"164 30 CURVE",
"177 30 LINE",
"55 470 LINE",
"25 470 LINE",
"155 0 LINE"
);
}
);
};
layerId = "0B1DFD06-3317-40CA-B510-4969A0718C16";
paths = (
{
closed = 1;
nodes = (
"149 0 LINE SMOOTH",
"169 0 OFFCURVE",
"206 3 OFFCURVE",
"220 46 CURVE SMOOTH",
"310 334 LINE",
"401 46 LINE SMOOTH",
"415 3 OFFCURVE",
"452 0 OFFCURVE",
"472 0 CURVE SMOOTH",
"488 0 LINE",
"596 470 LINE",
"566 470 LINE",
"465 26 LINE",
"443 27 OFFCURVE",
"432 39 OFFCURVE",
"425 59 CURVE SMOOTH",
"311 420 LINE",
"196 59 LINE SMOOTH",
"189 39 OFFCURVE",
"178 27 OFFCURVE",
"156 26 CURVE",
"55 470 LINE",
"25 470 LINE",
"133 0 LINE"
);
}
);
width = 621;
},
{
anchors = (
{
name = bottom;
position = "{299, 0}";
},
{
name = top;
position = "{299, 470}";
}
);
background = {
paths = (
{
closed = 1;
nodes = (
"584 470 LINE",
"476 0 LINE",
"460 0 LINE SMOOTH",
"440 0 OFFCURVE",
"403 3 OFFCURVE",
"389 46 CURVE SMOOTH",
"298 334 LINE",
"208 46 LINE SMOOTH",
"194 3 OFFCURVE",
"157 0 OFFCURVE",
"137 0 CURVE SMOOTH",
"121 0 LINE",
"13 470 LINE",
"43 470 LINE",
"144 26 LINE",
"166 27 OFFCURVE",
"177 39 OFFCURVE",
"184 59 CURVE SMOOTH",
"299 420 LINE",
"413 59 LINE SMOOTH",
"420 39 OFFCURVE",
"431 27 OFFCURVE",
"453 26 CURVE",
"554 470 LINE"
);
}
);
};
layerId = "204D14C0-8C16-4EB3-B338-290668FF7982";
paths = (
{
closed = 1;
nodes = (
"148 0 LINE SMOOTH",
"224 0 OFFCURVE",
"250 21 OFFCURVE",
"277 106 CURVE SMOOTH",
"309 198 LINE",
"341 106 LINE SMOOTH",
"367 24 OFFCURVE",
"394 0 OFFCURVE",
"470 0 CURVE SMOOTH",
"520 0 LINE",
"627 470 LINE",
"516 470 LINE",
"435.177 115.831 LINE",
"428.287 121.805 OFFCURVE",
"421.966 132.7 OFFCURVE",
"416 150 CURVE SMOOTH",
"309 439 LINE",
"204 150 LINE SMOOTH",
"197.505 131.163 OFFCURVE",
"190.587 119.921 OFFCURVE",
"183.248 114.355 CURVE",
"103 470 LINE",
"-9 470 LINE",
"98 0 LINE"
);
}
);
width = 618;
},
{
anchors = (
{
name = bottom;
position = "{307, 0}";
},
{
name = top;
position = "{307, 470}";
}
);
layerId = "A9086263-9647-4033-A5C5-78BCE2A7193B";
paths = (
{
closed = 1;
nodes = (
"149 0 LINE SMOOTH",
"189 0 OFFCURVE",
"222 10 OFFCURVE",
"241 68 CURVE SMOOTH",
"310 284 LINE",
"379 68 LINE SMOOTH",
"397 11 OFFCURVE",
"431 0 OFFCURVE",
"471 0 CURVE SMOOTH",
"500 0 LINE",
"607 470 LINE",
"548 470 LINE",
"454 59 LINE",
"438 62 OFFCURVE",
"428 74 OFFCURVE",
"422 93 CURVE SMOOTH",
"310 427 LINE",
"199 93 LINE SMOOTH",
"192 73 OFFCURVE",
"183 61 OFFCURVE",
"166 59 CURVE",
"73 470 LINE",
"12 470 LINE",
"120 0 LINE"
);
}
);
width = 619;
}
);
note = w;
rightMetricsKey = "=|";
unicode = 0077;
},
{
glyphname = x;
lastChange = "2018-04-10 14:14:53 +0000";
layers = (
{
anchors = (
{
name = bottom;
position = "{206, 0}";
},
{
name = top;
position = "{206, 470}";
}
);
guideLines = (
{
angle = 90;
position = "{392, 243}";
},
{
angle = 90;
position = "{24, 243}";
}
);
layerId = "0B1DFD06-3317-40CA-B510-4969A0718C16";
paths = (
{
closed = 1;
nodes = (
"392 0 LINE",
"62 470 LINE",
"28 470 LINE",
"358 0 LINE"
);
},
{
closed = 1;
nodes = (
"54 0 LINE",
"210 222 LINE",
"194 248 LINE",
"20 0 LINE"
);
},
{
closed = 1;
nodes = (
"388 470 LINE",
"354 470 LINE",
"198 248 LINE",
"214 222 LINE"
);
}
);
width = 412;
},
{
anchors = (
{
name = bottom;
position = "{206, 0}";
},
{
name = top;
position = "{206, 470}";
}
);
layerId = "204D14C0-8C16-4EB3-B338-290668FF7982";
paths = (
{
closed = 1;
nodes = (
"458 0 LINE",
"147 470 LINE",
"17 470 LINE",
"327 0 LINE"
);
},
{
closed = 1;
nodes = (
"141 0 LINE",
"260 193 LINE",
"184 280 LINE",
"10 0 LINE"
);
},
{
closed = 1;
nodes = (
"455 470 LINE",
"325 470 LINE",
"207 280 LINE",
"284 193 LINE"
);
}
);
width = 468;
},
{
anchors = (
{
name = bottom;
position = "{206, 0}";
},
{
name = top;
position = "{206, 470}";
}
);
layerId = "A9086263-9647-4033-A5C5-78BCE2A7193B";
paths = (
{
closed = 1;
nodes = (
"416 0 LINE",
"93 470 LINE",
"24 470 LINE",
"347 0 LINE"
);
},
{
closed = 1;
nodes = (
"86 0 LINE",
"228 211 LINE",
"190 260 LINE",
"16 0 LINE"
);
},
{
closed = 1;
nodes = (
"413 470 LINE",
"343 470 LINE",
"201 260 LINE",
"240 211 LINE"
);
}
);
width = 432;
}
);
note = x;
rightMetricsKey = "=|";
unicode = 0078;
},
{
glyphname = y;
lastChange = "2018-04-10 14:14:53 +0000";
layers = (
{
anchors = (
{
name = bottom;
position = "{270, -219}";
},
{
name = top;
position = "{270, 470}";
}
);
background = {
paths = (
{
closed = 1;
nodes = (
"286 -219 LINE SMOOTH",
"383 -219 OFFCURVE",
"437 -165 OFFCURVE",
"437 -68 CURVE SMOOTH",
"437 471 LINE",
"407 471 LINE",
"407 -67 LINE SMOOTH",
"407 -148 OFFCURVE",
"363 -193 OFFCURVE",
"286 -193 CURVE SMOOTH",
"172 -193 LINE",
"172 -219 LINE"
);
},
{
closed = 1;
nodes = (
"348 -10 OFFCURVE",
"400 61 OFFCURVE",
"425 139 CURVE",
"407 180 LINE",
"407 109 OFFCURVE",
"346 16 OFFCURVE",
"239 16 CURVE SMOOTH",
"151 16 OFFCURVE",
"106 67 OFFCURVE",
"106 159 CURVE SMOOTH",
"106 414 LINE SMOOTH",
"106 448 OFFCURVE",
"99 465 OFFCURVE",
"76 480 CURVE",
"55 462 LINE",
"72 446 OFFCURVE",
"76 438 OFFCURVE",
"76 420 CURVE SMOOTH",
"76 159 LINE SMOOTH",
"76 52 OFFCURVE",
"122 -10 OFFCURVE",
"239 -10 CURVE SMOOTH"
);
}
);
};
guideLines = (
{
angle = 90;
position = "{76, 68}";
}
);
layerId = "0B1DFD06-3317-40CA-B510-4969A0718C16";
paths = (
{
closed = 1;
nodes = (
"288 -219 LINE SMOOTH",
"384 -219 OFFCURVE",
"437 -165 OFFCURVE",
"437 -68 CURVE SMOOTH",
"437 471 LINE",
"407 471 LINE",
"407 -67 LINE SMOOTH",
"407 -148 OFFCURVE",
"364 -193 OFFCURVE",
"288 -193 CURVE SMOOTH",
"174 -193 LINE",
"174 -219 LINE"
);
},
{
closed = 1;
nodes = (
"348 -10 OFFCURVE",
"400 61 OFFCURVE",
"425 139 CURVE",
"407 180 LINE",
"407 109 OFFCURVE",
"346 16 OFFCURVE",
"239 16 CURVE SMOOTH",
"151 16 OFFCURVE",
"106 67 OFFCURVE",
"106 159 CURVE SMOOTH",
"106 414 LINE SMOOTH",
"106 448 OFFCURVE",
"99 465 OFFCURVE",
"76 480 CURVE",
"55 462 LINE",
"72 446 OFFCURVE",
"76 438 OFFCURVE",
"76 420 CURVE SMOOTH",
"76 159 LINE SMOOTH",
"76 52 OFFCURVE",
"122 -10 OFFCURVE",
"239 -10 CURVE SMOOTH"
);
}
);
width = 530;
},
{
anchors = (
{
name = bottom;
position = "{290, -235}";
},
{
name = top;
position = "{290, 470}";
}
);
layerId = "204D14C0-8C16-4EB3-B338-290668FF7982";
paths = (
{
closed = 1;
nodes = (
"289 -235 LINE SMOOTH",
"449 -235 OFFCURVE",
"516 -180 OFFCURVE",
"516 -49 CURVE SMOOTH",
"516 472 LINE",
"386 472 LINE",
"386 -49 LINE SMOOTH",
"386 -110 OFFCURVE",
"357 -135 OFFCURVE",
"289 -135 CURVE SMOOTH",
"157 -135 LINE",
"157 -235 LINE"
);
},
{
closed = 1;
nodes = (
"336 -10 OFFCURVE",
"382 43 OFFCURVE",
"402 96 CURVE",
"386 199 LINE",
"373 147 OFFCURVE",
"349 90 OFFCURVE",
"281 90 CURVE SMOOTH",
"236 90 OFFCURVE",
"208 119 OFFCURVE",
"208 164 CURVE SMOOTH",
"208 329 LINE SMOOTH",
"208 409 OFFCURVE",
"185 447 OFFCURVE",
"117 482 CURVE",
"30 406 LINE",
"64 381 OFFCURVE",
"78 363 OFFCURVE",
"78 325 CURVE SMOOTH",
"78 152 LINE SMOOTH",
"78 48 OFFCURVE",
"137 -10 OFFCURVE",
"243 -10 CURVE SMOOTH"
);
}
);
width = 579;
},
{
anchors = (
{
name = bottom;
position = "{277, -225}";
},
{
name = top;
position = "{277, 470}";
}
);
layerId = "A9086263-9647-4033-A5C5-78BCE2A7193B";
paths = (
{
closed = 1;
nodes = (
"288 -225 LINE SMOOTH",
"408 -225 OFFCURVE",
"466 -171 OFFCURVE",
"466 -61 CURVE SMOOTH",
"466 471 LINE",
"399 471 LINE",
"399 -60 LINE SMOOTH",
"399 -134 OFFCURVE",
"361 -172 OFFCURVE",
"288 -172 CURVE SMOOTH",
"168 -172 LINE",
"168 -225 LINE"
);
},
{
closed = 1;
nodes = (
"344 -10 OFFCURVE",
"393 54 OFFCURVE",
"417 123 CURVE",
"399 187 LINE",
"394 123 OFFCURVE",
"347 43 OFFCURVE",
"255 43 CURVE SMOOTH",
"182 43 OFFCURVE",
"144 86 OFFCURVE",
"144 161 CURVE SMOOTH",
"144 383 LINE SMOOTH",
"144 434 OFFCURVE",
"131 458 OFFCURVE",
"91 481 CURVE",
"46 441 LINE",
"69 422 OFFCURVE",
"77 410 OFFCURVE",
"77 385 CURVE SMOOTH",
"77 156 LINE SMOOTH",
"77 51 OFFCURVE",
"128 -10 OFFCURVE",
"240 -10 CURVE SMOOTH"
);
}
);
width = 548;
}
);
leftMetricsKey = u;
note = y;
unicode = 0079;
},
{
glyphname = z;
lastChange = "2018-04-10 14:14:53 +0000";
layers = (
{
anchors = (
{
name = bottom;
position = "{229, 0}";
},
{
name = top;
position = "{229, 470}";
}
);
background = {
paths = (
{
closed = 1;
nodes = (
"413 0 LINE",
"413 26 LINE",
"135 26 LINE SMOOTH",
"96 26 OFFCURVE",
"78 36 OFFCURVE",
"78 55 CURVE SMOOTH",
"78 65 LINE",
"407 446 LINE",
"407 470 LINE",
"58 470 LINE",
"58 444 LINE",
"368 444 LINE",
"48 74 LINE",
"48 57 LINE SMOOTH",
"48 26 OFFCURVE",
"66 0 OFFCURVE",
"135 0 CURVE SMOOTH"
);
}
);
};
layerId = "0B1DFD06-3317-40CA-B510-4969A0718C16";
paths = (
{
closed = 1;
nodes = (
"413 0 LINE",
"413 26 LINE",
"115 26 LINE SMOOTH",
"90 26 OFFCURVE",
"78 36 OFFCURVE",
"78 50 CURVE SMOOTH",
"78 58 LINE",
"78 58 LINE",
"407 446 LINE",
"407 470 LINE",
"58 470 LINE",
"58 444 LINE",
"368 444 LINE",
"48 67 LINE",
"48 52 LINE SMOOTH",
"48 25 OFFCURVE",
"62 0 OFFCURVE",
"115 0 CURVE SMOOTH"
);
}
);
width = 458;
},
{
anchors = (
{
name = bottom;
position = "{229, 0}";
},
{
name = top;
position = "{229, 470}";
}
);
layerId = "204D14C0-8C16-4EB3-B338-290668FF7982";
paths = (
{
closed = 1;
nodes = (
"434 0 LINE",
"434 100 LINE",
"166 100 LINE SMOOTH",
"148 100 OFFCURVE",
"134 106 OFFCURVE",
"134 134 CURVE SMOOTH",
"134 141 LINE",
"118 91 LINE",
"421 372 LINE",
"421 470 LINE",
"31 470 LINE",
"31 370 LINE",
"273 370 LINE",
"21 138 LINE",
"21 85 LINE SMOOTH",
"21 23 OFFCURVE",
"62 0 OFFCURVE",
"132 0 CURVE SMOOTH"
);
}
);
width = 458;
},
{
anchors = (
{
name = bottom;
position = "{229, 0}";
},
{
name = top;
position = "{229, 470}";
}
);
layerId = "A9086263-9647-4033-A5C5-78BCE2A7193B";
paths = (
{
closed = 1;
nodes = (
"421 0 LINE",
"421 53 LINE",
"134 53 LINE SMOOTH",
"111 53 OFFCURVE",
"99 62 OFFCURVE",
"99 81 CURVE SMOOTH",
"99 89 LINE",
"93 70 LINE",
"412 419 LINE",
"412 470 LINE",
"48 470 LINE",
"48 417 LINE",
"333 417 LINE",
"38 93 LINE",
"38 64 LINE SMOOTH",
"38 24 OFFCURVE",
"62 0 OFFCURVE",
"121 0 CURVE SMOOTH"
);
}
);
width = 458;
}
);
note = z;
unicode = 007A;
},
{
color = 8;
glyphname = AE;
lastChange = "2018-04-10 14:14:53 +0000";
layers = (
{
anchors = (
{
name = bottom;
position = "{520, 0}";
},
{
name = top;
position = "{520, 700}";
}
);
background = {
paths = (
{
closed = 1;
nodes = (
"1000 0 LINE",
"1000 28 LINE",
"746 28 LINE SMOOTH",
"618 28 OFFCURVE",
"560 83 OFFCURVE",
"560 204 CURVE SMOOTH",
"560 337 LINE",
"937 337 LINE",
"937 365 LINE",
"560 365 LINE",
"560 496 LINE SMOOTH",
"560 617 OFFCURVE",
"618 672 OFFCURVE",
"746 672 CURVE SMOOTH",
"991 672 LINE",
"991 700 LINE",
"746 700 LINE SMOOTH",
"584 700 OFFCURVE",
"528 621 OFFCURVE",
"528 496 CURVE SMOOTH",
"528 204 LINE SMOOTH",
"528 79 OFFCURVE",
"584 0 OFFCURVE",
"746 0 CURVE SMOOTH"
);
},
{
closed = 1;
nodes = (
"418 710 OFFCURVE",
"397 673 OFFCURVE",
"358 601 CURVE SMOOTH",
"35 0 LINE",
"68 0 LINE",
"394 601 LINE SMOOTH",
"427 661 OFFCURVE",
"441 680 OFFCURVE",
"482 680 CURVE SMOOTH",
"504 680 OFFCURVE",
"528 661 OFFCURVE",
"528 601 CURVE SMOOTH",
"528 190 LINE",
"560 190 LINE",
"560 601 LINE SMOOTH",
"560 677 OFFCURVE",
"520 710 OFFCURVE",
"482 710 CURVE SMOOTH"
);
},
{
closed = 1;
nodes = (
"531 261 LINE",
"531 289 LINE",
"194 289 LINE",
"194 261 LINE"
);
}
);
};
layerId = "0B1DFD06-3317-40CA-B510-4969A0718C16";
paths = (
{
closed = 1;
nodes = (
"68 0 LINE",
"394 591 LINE SMOOTH",
"427 651 OFFCURVE",
"441 670 OFFCURVE",
"482 670 CURVE SMOOTH",
"504 670 OFFCURVE",
"528 651 OFFCURVE",
"528 591 CURVE SMOOTH",
"528 190 LINE",
"560 190 LINE",
"560 591 LINE SMOOTH",
"560 667 OFFCURVE",
"520 700 OFFCURVE",
"482 700 CURVE SMOOTH",
"418 700 OFFCURVE",
"397 663 OFFCURVE",
"358 591 CURVE SMOOTH",
"35 0 LINE"
);
},
{
closed = 1;
nodes = (
"531 261 LINE",
"531 289 LINE",
"194 289 LINE",
"194 261 LINE"
);
},
{
closed = 1;
nodes = (
"1000 0 LINE",
"1000 28 LINE",
"746 28 LINE SMOOTH",
"618 28 OFFCURVE",
"560 83 OFFCURVE",
"560 204 CURVE SMOOTH",
"560 337 LINE",
"937 337 LINE",
"937 365 LINE",
"560 365 LINE",
"560 496 LINE SMOOTH",
"560 607 OFFCURVE",
"618 672 OFFCURVE",
"746 672 CURVE SMOOTH",
"991 672 LINE",
"991 700 LINE",
"746 700 LINE SMOOTH",
"584 700 OFFCURVE",
"528 611 OFFCURVE",
"528 496 CURVE SMOOTH",
"528 204 LINE SMOOTH",
"528 79 OFFCURVE",
"584 0 OFFCURVE",
"746 0 CURVE SMOOTH"
);
}
);
width = 1051;
},
{
anchors = (
{
name = bottom;
position = "{537, 0}";
},
{
name = top;
position = "{537, 700}";
}
);
background = {
paths = (
{
closed = 1;
nodes = (
"109 0 LINE",
"435 601 LINE SMOOTH",
"468 661 OFFCURVE",
"482 680 OFFCURVE",
"523 680 CURVE SMOOTH",
"545 680 OFFCURVE",
"569 661 OFFCURVE",
"569 601 CURVE SMOOTH",
"569 190 LINE",
"601 190 LINE",
"601 601 LINE SMOOTH",
"601 677 OFFCURVE",
"561 710 OFFCURVE",
"523 710 CURVE SMOOTH",
"459 710 OFFCURVE",
"438 673 OFFCURVE",
"399 601 CURVE SMOOTH",
"76 0 LINE"
);
},
{
closed = 1;
nodes = (
"572 261 LINE",
"572 289 LINE",
"235 289 LINE",
"235 261 LINE"
);
},
{
closed = 1;
nodes = (
"1041 0 LINE",
"1041 28 LINE",
"787 28 LINE SMOOTH",
"659 28 OFFCURVE",
"601 83 OFFCURVE",
"601 204 CURVE SMOOTH",
"601 337 LINE",
"978 337 LINE",
"978 365 LINE",
"601 365 LINE",
"601 496 LINE SMOOTH",
"601 617 OFFCURVE",
"659 672 OFFCURVE",
"787 672 CURVE SMOOTH",
"1032 672 LINE",
"1032 700 LINE",
"787 700 LINE SMOOTH",
"625 700 OFFCURVE",
"569 621 OFFCURVE",
"569 496 CURVE SMOOTH",
"569 204 LINE SMOOTH",
"569 79 OFFCURVE",
"625 0 OFFCURVE",
"787 0 CURVE SMOOTH"
);
}
);
};
layerId = "204D14C0-8C16-4EB3-B338-290668FF7982";
paths = (
{
closed = 1;
nodes = (
"188 0 LINE",
"471 544 LINE SMOOTH",
"479 559 OFFCURVE",
"485 570 OFFCURVE",
"496 570 CURVE SMOOTH",
"509 570 OFFCURVE",
"514 560 OFFCURVE",
"514 545 CURVE SMOOTH",
"514 244 LINE",
"676 244 LINE",
"676 520 LINE SMOOTH",
"676 657 OFFCURVE",
"603 700 OFFCURVE",
"509 700 CURVE SMOOTH",
"404 700 OFFCURVE",
"358 657 OFFCURVE",
"300 546 CURVE SMOOTH",
"15 0 LINE"
);
},
{
closed = 1;
nodes = (
"600 172 LINE",
"600 300 LINE",
"226 300 LINE",
"226 172 LINE"
);
},
{
closed = 1;
nodes = (
"1049 0 LINE",
"1049 128 LINE",
"763 128 LINE SMOOTH",
"703 128 OFFCURVE",
"676 157 OFFCURVE",
"676 221 CURVE SMOOTH",
"676 287 LINE",
"1003 287 LINE",
"1003 415 LINE",
"676 415 LINE",
"676 479 LINE SMOOTH",
"676 543 OFFCURVE",
"703 572 OFFCURVE",
"763 572 CURVE SMOOTH",
"1047 572 LINE",
"1047 700 LINE",
"763 700 LINE SMOOTH",
"578 700 OFFCURVE",
"514 614 OFFCURVE",
"514 479 CURVE SMOOTH",
"514 221 LINE SMOOTH",
"514 86 OFFCURVE",
"578 0 OFFCURVE",
"763 0 CURVE SMOOTH"
);
}
);
width = 1099;
},
{
anchors = (
{
name = bottom;
position = "{526, 0}";
},
{
name = top;
position = "{526, 700}";
}
);
layerId = "A9086263-9647-4033-A5C5-78BCE2A7193B";
paths = (
{
closed = 1;
nodes = (
"112 0 LINE",
"422 574 LINE SMOOTH",
"446 617 OFFCURVE",
"457 633 OFFCURVE",
"487 633 CURVE SMOOTH",
"506 633 OFFCURVE",
"523 617 OFFCURVE",
"523 574 CURVE SMOOTH",
"523 210 LINE",
"603 210 LINE",
"603 565 LINE SMOOTH",
"603 663 OFFCURVE",
"551 700 OFFCURVE",
"492 700 CURVE SMOOTH",
"413 700 OFFCURVE",
"383 661 OFFCURVE",
"337 574 CURVE SMOOTH",
"28 0 LINE"
);
},
{
closed = 1;
nodes = (
"556 228 LINE",
"556 293 LINE",
"206 293 LINE",
"206 228 LINE"
);
},
{
closed = 1;
nodes = (
"1018 0 LINE",
"1018 65 LINE",
"752 65 LINE SMOOTH",
"649 65 OFFCURVE",
"603 110 OFFCURVE",
"603 210 CURVE SMOOTH",
"603 319 LINE",
"961 319 LINE",
"961 383 LINE",
"603 383 LINE",
"603 490 LINE SMOOTH",
"603 583 OFFCURVE",
"649 635 OFFCURVE",
"752 635 CURVE SMOOTH",
"1012 635 LINE",
"1012 700 LINE",
"752 700 LINE SMOOTH",
"582 700 OFFCURVE",
"523 612 OFFCURVE",
"523 490 CURVE SMOOTH",
"523 210 LINE SMOOTH",
"523 82 OFFCURVE",
"582 0 OFFCURVE",
"752 0 CURVE SMOOTH"
);
}
);
width = 1068;
}
);
leftMetricsKey = A;
note = AE;
rightMetricsKey = E;
unicode = 00C6;
},
{
color = 8;
glyphname = Eth;
lastChange = "2018-04-10 14:14:53 +0000";
layers = (
{
background = {
paths = (
{
closed = 1;
nodes = (
"102 360 LINE",
"4 360 LINE",
"4 321 LINE",
"102 321 LINE",
"102 -4 LINE",
"339 -4 OFFCURVE",
"572 -27 OFFCURVE",
"577 348 CURVE",
"574 661 OFFCURVE",
"372 700 OFFCURVE",
"102 699 CURVE"
);
},
{
closed = 1;
nodes = (
"145 321 LINE",
"351 321 LINE",
"351 360 LINE",
"145 360 LINE",
"145 663 LINE",
"426 667 OFFCURVE",
"533 568 OFFCURVE",
"533 348 CURVE SMOOTH",
"535 114 OFFCURVE",
"444 19 OFFCURVE",
"145 32 CURVE"
);
}
);
};
components = (
{
name = D;
}
);
layerId = "0B1DFD06-3317-40CA-B510-4969A0718C16";
paths = (
{
closed = 1;
nodes = (
"350 337 LINE",
"350 363 LINE",
"20 363 LINE",
"20 337 LINE"
);
}
);
width = 698;
},
{
components = (
{
name = D;
}
);
layerId = "204D14C0-8C16-4EB3-B338-290668FF7982";
paths = (
{
closed = 1;
nodes = (
"400 295 LINE",
"400 413 LINE",
"0 413 LINE",
"0 295 LINE"
);
}
);
width = 742;
},
{
components = (
{
name = D;
}
);
layerId = "A9086263-9647-4033-A5C5-78BCE2A7193B";
paths = (
{
closed = 1;
nodes = (
"368 321 LINE",
"368 381 LINE",
"13 381 LINE",
"13 321 LINE"
);
}
);
width = 714;
}
);
note = Eth;
rightMetricsKey = D;
unicode = 00D0;
},
{
color = 8;
glyphname = Dcroat;
lastChange = "2018-04-10 14:14:53 +0000";
layers = (
{
components = (
{
name = D;
}
);
layerId = "0B1DFD06-3317-40CA-B510-4969A0718C16";
paths = (
{
closed = 1;
nodes = (
"350 337 LINE",
"350 363 LINE",
"20 363 LINE",
"20 337 LINE"
);
}
);
width = 698;
},
{
components = (
{
name = D;
}
);
layerId = "204D14C0-8C16-4EB3-B338-290668FF7982";
paths = (
{
closed = 1;
nodes = (
"400 305 LINE",
"400 413 LINE",
"0 413 LINE",
"0 305 LINE"
);
}
);
width = 742;
},
{
components = (
{
name = D;
}
);
layerId = "A9086263-9647-4033-A5C5-78BCE2A7193B";
paths = (
{
closed = 1;
nodes = (
"368 325 LINE",
"368 381 LINE",
"13 381 LINE",
"13 325 LINE"
);
}
);
width = 714;
}
);
note = Dcroat;
rightMetricsKey = D;
unicode = 0110;
},
{
color = 8;
glyphname = Eacute;
lastChange = "2018-04-10 14:14:53 +0000";
layers = (
{
background = {
paths = (
{
closed = 1;
nodes = (
"554 0 LINE",
"571 179 LINE",
"544 179 LINE",
"538 124 OFFCURVE",
"520 40 OFFCURVE",
"456 40 CURVE SMOOTH",
"201 40 LINE",
"201 659 LINE",
"441 659 LINE SMOOTH",
"516 659 OFFCURVE",
"525 567 OFFCURVE",
"528 527 CURVE",
"555 527 LINE",
"555 700 LINE",
"16 700 LINE",
"16 673 LINE",
"44 673 LINE SMOOTH",
"83 673 OFFCURVE",
"103 662 OFFCURVE",
"103 637 CURVE SMOOTH",
"103 62 LINE SMOOTH",
"103 37 OFFCURVE",
"83 26 OFFCURVE",
"44 26 CURVE SMOOTH",
"16 26 LINE",
"16 0 LINE"
);
},
{
closed = 1;
nodes = (
"455 251 LINE",
"455 485 LINE",
"431 485 LINE",
"427 436 OFFCURVE",
"424 388 OFFCURVE",
"379 388 CURVE SMOOTH",
"162 388 LINE",
"162 348 LINE",
"379 348 LINE SMOOTH",
"424 348 OFFCURVE",
"427 300 OFFCURVE",
"431 251 CURVE"
);
},
{
closed = 1;
nodes = (
"398 865 LINE SMOOTH",
"420 877 OFFCURVE",
"432 890 OFFCURVE",
"432 907 CURVE SMOOTH",
"432 922 OFFCURVE",
"420 937 OFFCURVE",
"398 937 CURVE SMOOTH",
"377 937 OFFCURVE",
"362 921 OFFCURVE",
"354 914 CURVE SMOOTH",
"239 807 LINE",
"256 782 LINE"
);
}
);
};
components = (
{
name = E;
},
{
name = acute;
transform = "{1, 0, 0, 1, -7, 230}";
}
);
layerId = "0B1DFD06-3317-40CA-B510-4969A0718C16";
width = 591;
},
{
components = (
{
name = E;
},
{
name = acute;
transform = "{1, 0, 0, 1, 24, 230}";
}
);
layerId = "204D14C0-8C16-4EB3-B338-290668FF7982";
width = 643;
},
{
components = (
{
name = E;
},
{
name = acute;
transform = "{1, 0, 0, 1, 4, 230}";
}
);
layerId = "A9086263-9647-4033-A5C5-78BCE2A7193B";
width = 610;
}
);
note = Eacute;
unicode = 00C9;
},
{
color = 8;
glyphname = Ebreve;
lastChange = "2018-04-10 14:14:53 +0000";
layers = (
{
background = {
paths = (
{
closed = 1;
nodes = (
"554 0 LINE",
"571 179 LINE",
"544 179 LINE",
"538 124 OFFCURVE",
"520 40 OFFCURVE",
"456 40 CURVE SMOOTH",
"201 40 LINE",
"201 659 LINE",
"441 659 LINE SMOOTH",
"516 659 OFFCURVE",
"525 567 OFFCURVE",
"528 527 CURVE",
"555 527 LINE",
"555 700 LINE",
"16 700 LINE",
"16 673 LINE",
"44 673 LINE SMOOTH",
"83 673 OFFCURVE",
"103 662 OFFCURVE",
"103 637 CURVE SMOOTH",
"103 62 LINE SMOOTH",
"103 37 OFFCURVE",
"83 26 OFFCURVE",
"44 26 CURVE SMOOTH",
"16 26 LINE",
"16 0 LINE"
);
},
{
closed = 1;
nodes = (
"455 251 LINE",
"455 485 LINE",
"431 485 LINE",
"427 436 OFFCURVE",
"424 388 OFFCURVE",
"379 388 CURVE SMOOTH",
"162 388 LINE",
"162 348 LINE",
"379 348 LINE SMOOTH",
"424 348 OFFCURVE",
"427 300 OFFCURVE",
"431 251 CURVE"
);
},
{
closed = 1;
nodes = (
"432 776 OFFCURVE",
"474 832 OFFCURVE",
"478 907 CURVE",
"445 907 LINE",
"439 848 OFFCURVE",
"397 822 OFFCURVE",
"333 822 CURVE SMOOTH",
"269 822 OFFCURVE",
"226 848 OFFCURVE",
"219 907 CURVE",
"186 907 LINE",
"190 829 OFFCURVE",
"232 776 OFFCURVE",
"333 776 CURVE SMOOTH"
);
}
);
};
components = (
{
name = E;
},
{
name = breve;
transform = "{1, 0, 0, 1, -7, 230}";
}
);
layerId = "0B1DFD06-3317-40CA-B510-4969A0718C16";
width = 591;
},
{
components = (
{
name = E;
},
{
name = breve;
transform = "{1, 0, 0, 1, 24, 230}";
}
);
layerId = "204D14C0-8C16-4EB3-B338-290668FF7982";
width = 643;
},
{
components = (
{
name = E;
},
{
name = breve;
transform = "{1, 0, 0, 1, 4, 230}";
}
);
layerId = "A9086263-9647-4033-A5C5-78BCE2A7193B";
width = 610;
}
);
note = Ebreve;
unicode = 0114;
},
{
color = 8;
glyphname = Ecaron;
lastChange = "2018-04-10 14:14:53 +0000";
layers = (
{
background = {
paths = (
{
closed = 1;
nodes = (
"554 0 LINE",
"571 179 LINE",
"544 179 LINE",
"538 124 OFFCURVE",
"520 40 OFFCURVE",
"456 40 CURVE SMOOTH",
"201 40 LINE",
"201 659 LINE",
"441 659 LINE SMOOTH",
"516 659 OFFCURVE",
"525 567 OFFCURVE",
"528 527 CURVE",
"555 527 LINE",
"555 700 LINE",
"16 700 LINE",
"16 673 LINE",
"44 673 LINE SMOOTH",
"83 673 OFFCURVE",
"103 662 OFFCURVE",
"103 637 CURVE SMOOTH",
"103 62 LINE SMOOTH",
"103 37 OFFCURVE",
"83 26 OFFCURVE",
"44 26 CURVE SMOOTH",
"16 26 LINE",
"16 0 LINE"
);
},
{
closed = 1;
nodes = (
"455 251 LINE",
"455 485 LINE",
"431 485 LINE",
"427 436 OFFCURVE",
"424 388 OFFCURVE",
"379 388 CURVE SMOOTH",
"162 388 LINE",
"162 348 LINE",
"379 348 LINE SMOOTH",
"424 348 OFFCURVE",
"427 300 OFFCURVE",
"431 251 CURVE"
);
},
{
closed = 1;
nodes = (
"357 782 LINE",
"481 911 LINE",
"462 932 LINE",
"354 847 LINE",
"346 840 OFFCURVE",
"337 836 OFFCURVE",
"331 836 CURVE SMOOTH",
"325 836 OFFCURVE",
"317 840 OFFCURVE",
"307 847 CURVE",
"199 932 LINE",
"180 911 LINE",
"304 782 LINE"
);
}
);
};
components = (
{
name = E;
},
{
name = caron;
transform = "{1, 0, 0, 1, -7, 230}";
}
);
layerId = "0B1DFD06-3317-40CA-B510-4969A0718C16";
width = 591;
},
{
components = (
{
name = E;
},
{
name = caron;
transform = "{1, 0, 0, 1, 24, 230}";
}
);
layerId = "204D14C0-8C16-4EB3-B338-290668FF7982";
width = 643;
},
{
components = (
{
name = E;
},
{
name = caron;
transform = "{1, 0, 0, 1, 4, 230}";
}
);
layerId = "A9086263-9647-4033-A5C5-78BCE2A7193B";
width = 610;
}
);
note = Ecaron;
unicode = 011A;
},
{
color = 8;
glyphname = Ecircumflex;
lastChange = "2018-04-10 14:14:53 +0000";
layers = (
{
background = {
paths = (
{
closed = 1;
nodes = (
"554 0 LINE",
"571 179 LINE",
"544 179 LINE",
"538 124 OFFCURVE",
"520 40 OFFCURVE",
"456 40 CURVE SMOOTH",
"201 40 LINE",
"201 659 LINE",
"441 659 LINE SMOOTH",
"516 659 OFFCURVE",
"525 567 OFFCURVE",
"528 527 CURVE",
"555 527 LINE",
"555 700 LINE",
"16 700 LINE",
"16 673 LINE",
"44 673 LINE SMOOTH",
"83 673 OFFCURVE",
"103 662 OFFCURVE",
"103 637 CURVE SMOOTH",
"103 62 LINE SMOOTH",
"103 37 OFFCURVE",
"83 26 OFFCURVE",
"44 26 CURVE SMOOTH",
"16 26 LINE",
"16 0 LINE"
);
},
{
closed = 1;
nodes = (
"455 251 LINE",
"455 485 LINE",
"431 485 LINE",
"427 436 OFFCURVE",
"424 388 OFFCURVE",
"379 388 CURVE SMOOTH",
"162 388 LINE",
"162 348 LINE",
"379 348 LINE SMOOTH",
"424 348 OFFCURVE",
"427 300 OFFCURVE",
"431 251 CURVE"
);
},
{
closed = 1;
nodes = (
"304 868 LINE SMOOTH",
"312 874 OFFCURVE",
"322 879 OFFCURVE",
"328 879 CURVE SMOOTH",
"334 879 OFFCURVE",
"342 874 OFFCURVE",
"351 868 CURVE",
"459 782 LINE",
"478 803 LINE",
"354 932 LINE",
"301 932 LINE",
"177 803 LINE",
"196 782 LINE"
);
}
);
};
components = (
{
name = E;
},
{
name = circumflex;
transform = "{1, 0, 0, 1, -7, 230}";
}
);
layerId = "0B1DFD06-3317-40CA-B510-4969A0718C16";
width = 591;
},
{
components = (
{
name = E;
},
{
name = circumflex;
transform = "{1, 0, 0, 1, 24, 230}";
}
);
layerId = "204D14C0-8C16-4EB3-B338-290668FF7982";
width = 643;
},
{
components = (
{
name = E;
},
{
name = circumflex;
transform = "{1, 0, 0, 1, 4, 230}";
}
);
layerId = "A9086263-9647-4033-A5C5-78BCE2A7193B";
width = 610;
}
);
note = Ecircumflex;
unicode = 00CA;
},
{
color = 8;
glyphname = Ecircumflexacute;
lastChange = "2018-04-10 14:14:53 +0000";
layers = (
{
background = {
paths = (
{
closed = 1;
nodes = (
"554 0 LINE",
"571 179 LINE",
"544 179 LINE",
"538 124 OFFCURVE",
"520 40 OFFCURVE",
"456 40 CURVE SMOOTH",
"201 40 LINE",
"201 659 LINE",
"441 659 LINE SMOOTH",
"516 659 OFFCURVE",
"525 567 OFFCURVE",
"528 527 CURVE",
"555 527 LINE",
"555 700 LINE",
"16 700 LINE",
"16 673 LINE",
"44 673 LINE SMOOTH",
"83 673 OFFCURVE",
"103 662 OFFCURVE",
"103 637 CURVE SMOOTH",
"103 62 LINE SMOOTH",
"103 37 OFFCURVE",
"83 26 OFFCURVE",
"44 26 CURVE SMOOTH",
"16 26 LINE",
"16 0 LINE"
);
},
{
closed = 1;
nodes = (
"455 251 LINE",
"455 485 LINE",
"431 485 LINE",
"427 436 OFFCURVE",
"424 388 OFFCURVE",
"379 388 CURVE SMOOTH",
"162 388 LINE",
"162 348 LINE",
"379 348 LINE SMOOTH",
"424 348 OFFCURVE",
"427 300 OFFCURVE",
"431 251 CURVE"
);
},
{
closed = 1;
nodes = (
"290 862 LINE SMOOTH",
"300 870 OFFCURVE",
"310 878 OFFCURVE",
"318 878 CURVE SMOOTH",
"324 878 OFFCURVE",
"332 873 OFFCURVE",
"341 867 CURVE",
"447 781 LINE",
"466 803 LINE",
"344 932 LINE",
"293 932 LINE",
"171 803 LINE",
"189 781 LINE"
);
},
{
closed = 1;
nodes = (
"555 960 LINE SMOOTH",
"578 972 OFFCURVE",
"591 988 OFFCURVE",
"591 1003 CURVE SMOOTH",
"591 1017 OFFCURVE",
"580 1034 OFFCURVE",
"557 1034 CURVE SMOOTH",
"538 1034 OFFCURVE",
"521 1018 OFFCURVE",
"511 1008 CURVE SMOOTH",
"415 915 LINE",
"433 893 LINE"
);
}
);
};
components = (
{
name = E;
},
{
name = circumflexacute;
transform = "{1, 0, 0, 1, -7, 230}";
}
);
layerId = "0B1DFD06-3317-40CA-B510-4969A0718C16";
width = 591;
},
{
components = (
{
name = E;
},
{
name = circumflexacute;
transform = "{1, 0, 0, 1, 24, 230}";
}
);
layerId = "204D14C0-8C16-4EB3-B338-290668FF7982";
width = 643;
},
{
components = (
{
name = E;
},
{
name = circumflexacute;
transform = "{1, 0, 0, 1, 4, 230}";
}
);
layerId = "A9086263-9647-4033-A5C5-78BCE2A7193B";
width = 610;
}
);
note = Ecircumflexacute;
unicode = 1EBE;
},
{
color = 8;
glyphname = Ecircumflexdotbelow;
lastChange = "2018-04-10 14:14:53 +0000";
layers = (
{
background = {
paths = (
{
closed = 1;
nodes = (
"554 0 LINE",
"571 179 LINE",
"544 179 LINE",
"538 124 OFFCURVE",
"520 40 OFFCURVE",
"456 40 CURVE SMOOTH",
"201 40 LINE",
"201 659 LINE",
"441 659 LINE SMOOTH",
"516 659 OFFCURVE",
"525 567 OFFCURVE",
"528 527 CURVE",
"555 527 LINE",
"555 700 LINE",
"16 700 LINE",
"16 673 LINE",
"44 673 LINE SMOOTH",
"83 673 OFFCURVE",
"103 662 OFFCURVE",
"103 637 CURVE SMOOTH",
"103 62 LINE SMOOTH",
"103 37 OFFCURVE",
"83 26 OFFCURVE",
"44 26 CURVE SMOOTH",
"16 26 LINE",
"16 0 LINE"
);
},
{
closed = 1;
nodes = (
"350 -159 OFFCURVE",
"368 -140 OFFCURVE",
"368 -112 CURVE SMOOTH",
"368 -84 OFFCURVE",
"350 -64 OFFCURVE",
"322 -64 CURVE SMOOTH",
"294 -64 OFFCURVE",
"275 -84 OFFCURVE",
"275 -112 CURVE SMOOTH",
"275 -140 OFFCURVE",
"294 -159 OFFCURVE",
"322 -159 CURVE SMOOTH"
);
},
{
closed = 1;
nodes = (
"455 251 LINE",
"455 485 LINE",
"431 485 LINE",
"427 436 OFFCURVE",
"424 388 OFFCURVE",
"379 388 CURVE SMOOTH",
"162 388 LINE",
"162 348 LINE",
"379 348 LINE SMOOTH",
"424 348 OFFCURVE",
"427 300 OFFCURVE",
"431 251 CURVE"
);
},
{
closed = 1;
nodes = (
"294 868 LINE SMOOTH",
"302 874 OFFCURVE",
"312 879 OFFCURVE",
"318 879 CURVE SMOOTH",
"324 879 OFFCURVE",
"332 874 OFFCURVE",
"341 868 CURVE",
"449 782 LINE",
"468 803 LINE",
"344 932 LINE",
"291 932 LINE",
"167 803 LINE",
"186 782 LINE"
);
}
);
};
components = (
{
name = E;
},
{
name = dotbelowcomb;
transform = "{1, 0, 0, 1, -7, 0}";
},
{
name = circumflex;
transform = "{1, 0, 0, 1, -7, 230}";
}
);
layerId = "0B1DFD06-3317-40CA-B510-4969A0718C16";
width = 591;
},
{
components = (
{
name = E;
},
{
name = dotbelowcomb;
transform = "{1, 0, 0, 1, 24, 0}";
},
{
name = circumflex;
transform = "{1, 0, 0, 1, 24, 230}";
}
);
layerId = "204D14C0-8C16-4EB3-B338-290668FF7982";
width = 643;
},
{
components = (
{
name = E;
},
{
name = dotbelowcomb;
transform = "{1, 0, 0, 1, 4, 0}";
},
{
name = circumflex;
transform = "{1, 0, 0, 1, 4, 230}";
}
);
layerId = "A9086263-9647-4033-A5C5-78BCE2A7193B";
width = 610;
}
);
note = Ecircumflexdotbelow;
unicode = 1EC6;
},
{
color = 8;
glyphname = Ecircumflexgrave;
lastChange = "2018-04-10 14:14:53 +0000";
layers = (
{
background = {
paths = (
{
closed = 1;
nodes = (
"554 0 LINE",
"571 179 LINE",
"544 179 LINE",
"538 124 OFFCURVE",
"520 40 OFFCURVE",
"456 40 CURVE SMOOTH",
"201 40 LINE",
"201 659 LINE",
"441 659 LINE SMOOTH",
"516 659 OFFCURVE",
"525 567 OFFCURVE",
"528 527 CURVE",
"555 527 LINE",
"555 700 LINE",
"16 700 LINE",
"16 673 LINE",
"44 673 LINE SMOOTH",
"83 673 OFFCURVE",
"103 662 OFFCURVE",
"103 637 CURVE SMOOTH",
"103 62 LINE SMOOTH",
"103 37 OFFCURVE",
"83 26 OFFCURVE",
"44 26 CURVE SMOOTH",
"16 26 LINE",
"16 0 LINE"
);
},
{
closed = 1;
nodes = (
"455 251 LINE",
"455 485 LINE",
"431 485 LINE",
"427 436 OFFCURVE",
"424 388 OFFCURVE",
"379 388 CURVE SMOOTH",
"162 388 LINE",
"162 348 LINE",
"379 348 LINE SMOOTH",
"424 348 OFFCURVE",
"427 300 OFFCURVE",
"431 251 CURVE"
);
},
{
closed = 1;
nodes = (
"227 915 LINE",
"132 1008 LINE SMOOTH",
"122 1018 OFFCURVE",
"105 1034 OFFCURVE",
"85 1034 CURVE SMOOTH",
"63 1034 OFFCURVE",
"52 1017 OFFCURVE",
"52 1003 CURVE SMOOTH",
"52 988 OFFCURVE",
"65 972 OFFCURVE",
"88 960 CURVE SMOOTH",
"210 893 LINE"
);
},
{
closed = 1;
nodes = (
"290 862 LINE SMOOTH",
"300 870 OFFCURVE",
"310 878 OFFCURVE",
"318 878 CURVE SMOOTH",
"324 878 OFFCURVE",
"332 873 OFFCURVE",
"341 867 CURVE",
"447 781 LINE",
"466 803 LINE",
"344 932 LINE",
"293 932 LINE",
"171 803 LINE",
"189 781 LINE"
);
}
);
};
components = (
{
name = E;
},
{
name = circumflexgrave;
transform = "{1, 0, 0, 1, -7, 230}";
}
);
layerId = "0B1DFD06-3317-40CA-B510-4969A0718C16";
width = 591;
},
{
components = (
{
name = E;
},
{
name = circumflexgrave;
transform = "{1, 0, 0, 1, 24, 230}";
}
);
layerId = "204D14C0-8C16-4EB3-B338-290668FF7982";
width = 643;
},
{
components = (
{
name = E;
},
{
name = circumflexgrave;
transform = "{1, 0, 0, 1, 4, 230}";
}
);
layerId = "A9086263-9647-4033-A5C5-78BCE2A7193B";
width = 610;
}
);
note = Ecircumflexgrave;
unicode = 1EC0;
},
{
color = 8;
glyphname = Ecircumflexhookabove;
lastChange = "2018-04-10 14:14:53 +0000";
layers = (
{
background = {
paths = (
{
closed = 1;
nodes = (
"554 0 LINE",
"571 179 LINE",
"544 179 LINE",
"538 124 OFFCURVE",
"520 40 OFFCURVE",
"456 40 CURVE SMOOTH",
"201 40 LINE",
"201 659 LINE",
"441 659 LINE SMOOTH",
"516 659 OFFCURVE",
"525 567 OFFCURVE",
"528 527 CURVE",
"555 527 LINE",
"555 700 LINE",
"16 700 LINE",
"16 673 LINE",
"44 673 LINE SMOOTH",
"83 673 OFFCURVE",
"103 662 OFFCURVE",
"103 637 CURVE SMOOTH",
"103 62 LINE SMOOTH",
"103 37 OFFCURVE",
"83 26 OFFCURVE",
"44 26 CURVE SMOOTH",
"16 26 LINE",
"16 0 LINE"
);
},
{
closed = 1;
nodes = (
"455 251 LINE",
"455 485 LINE",
"431 485 LINE",
"427 436 OFFCURVE",
"424 388 OFFCURVE",
"379 388 CURVE SMOOTH",
"162 388 LINE",
"162 348 LINE",
"379 348 LINE SMOOTH",
"424 348 OFFCURVE",
"427 300 OFFCURVE",
"431 251 CURVE"
);
},
{
closed = 1;
nodes = (
"286 858 LINE",
"297 868 OFFCURVE",
"309 878 OFFCURVE",
"318 878 CURVE SMOOTH",
"324 878 OFFCURVE",
"332 873 OFFCURVE",
"341 867 CURVE",
"447 781 LINE",
"466 803 LINE",
"344 932 LINE",
"293 932 LINE",
"171 803 LINE",
"189 781 LINE"
);
},
{
closed = 1;
nodes = (
"493 898 LINE",
"474 905 OFFCURVE",
"464 912 OFFCURVE",
"464 926 CURVE SMOOTH",
"464 954 OFFCURVE",
"544 965 OFFCURVE",
"544 1010 CURVE SMOOTH",
"544 1047 OFFCURVE",
"502 1063 OFFCURVE",
"460 1063 CURVE SMOOTH",
"429 1063 OFFCURVE",
"384 1053 OFFCURVE",
"384 1022 CURVE SMOOTH",
"384 1010 OFFCURVE",
"395 1001 OFFCURVE",
"405 1001 CURVE SMOOTH",
"434 1001 OFFCURVE",
"421 1040 OFFCURVE",
"464 1040 CURVE SMOOTH",
"483 1040 OFFCURVE",
"494 1028 OFFCURVE",
"494 1013 CURVE SMOOTH",
"494 973 OFFCURVE",
"421 965 OFFCURVE",
"421 925 CURVE SMOOTH",
"421 901 OFFCURVE",
"437 880 OFFCURVE",
"484 880 CURVE"
);
}
);
};
components = (
{
name = E;
},
{
name = circumflexhookabove;
transform = "{1, 0, 0, 1, -7, 230}";
}
);
layerId = "0B1DFD06-3317-40CA-B510-4969A0718C16";
width = 591;
},
{
components = (
{
name = E;
},
{
name = circumflexhookabove;
transform = "{1, 0, 0, 1, 24, 230}";
}
);
layerId = "204D14C0-8C16-4EB3-B338-290668FF7982";
width = 643;
},
{
components = (
{
name = E;
},
{
name = circumflexhookabove;
transform = "{1, 0, 0, 1, 4, 230}";
}
);
layerId = "A9086263-9647-4033-A5C5-78BCE2A7193B";
width = 610;
}
);
note = Ecircumflexhookabove;
unicode = 1EC2;
},
{
color = 8;
glyphname = Ecircumflextilde;
lastChange = "2018-04-10 14:14:53 +0000";
layers = (
{
background = {
paths = (
{
closed = 1;
nodes = (
"554 0 LINE",
"571 179 LINE",
"544 179 LINE",
"538 124 OFFCURVE",
"520 40 OFFCURVE",
"456 40 CURVE SMOOTH",
"201 40 LINE",
"201 659 LINE",
"441 659 LINE SMOOTH",
"516 659 OFFCURVE",
"525 567 OFFCURVE",
"528 527 CURVE",
"555 527 LINE",
"555 700 LINE",
"16 700 LINE",
"16 673 LINE",
"44 673 LINE SMOOTH",
"83 673 OFFCURVE",
"103 662 OFFCURVE",
"103 637 CURVE SMOOTH",
"103 62 LINE SMOOTH",
"103 37 OFFCURVE",
"83 26 OFFCURVE",
"44 26 CURVE SMOOTH",
"16 26 LINE",
"16 0 LINE"
);
},
{
closed = 1;
nodes = (
"455 251 LINE",
"455 485 LINE",
"431 485 LINE",
"427 436 OFFCURVE",
"424 388 OFFCURVE",
"379 388 CURVE SMOOTH",
"162 388 LINE",
"162 348 LINE",
"379 348 LINE SMOOTH",
"424 348 OFFCURVE",
"427 300 OFFCURVE",
"431 251 CURVE"
);
},
{
closed = 1;
nodes = (
"290 862 LINE SMOOTH",
"300 870 OFFCURVE",
"310 878 OFFCURVE",
"318 878 CURVE SMOOTH",
"324 878 OFFCURVE",
"332 873 OFFCURVE",
"341 867 CURVE",
"447 781 LINE",
"466 803 LINE",
"344 932 LINE",
"293 932 LINE",
"171 803 LINE",
"189 781 LINE"
);
},
{
closed = 1;
nodes = (
"193 997 OFFCURVE",
"211 1018 OFFCURVE",
"242 1018 CURVE SMOOTH",
"291 1018 OFFCURVE",
"338 964 OFFCURVE",
"387 964 CURVE SMOOTH",
"440 964 OFFCURVE",
"469 1012 OFFCURVE",
"481 1063 CURVE",
"460 1075 LINE",
"447 1035 OFFCURVE",
"431 1012 OFFCURVE",
"398 1012 CURVE SMOOTH",
"351 1012 OFFCURVE",
"302 1065 OFFCURVE",
"253 1065 CURVE SMOOTH",
"202 1065 OFFCURVE",
"170 1021 OFFCURVE",
"160 970 CURVE",
"180 958 LINE"
);
}
);
};
components = (
{
name = E;
},
{
name = circumflextilde;
transform = "{1, 0, 0, 1, -7, 230}";
}
);
layerId = "0B1DFD06-3317-40CA-B510-4969A0718C16";
width = 591;
},
{
components = (
{
name = E;
},
{
name = circumflextilde;
transform = "{1, 0, 0, 1, 24, 230}";
}
);
layerId = "204D14C0-8C16-4EB3-B338-290668FF7982";
width = 643;
},
{
components = (
{
name = E;
},
{
name = circumflextilde;
transform = "{1, 0, 0, 1, 4, 230}";
}
);
layerId = "A9086263-9647-4033-A5C5-78BCE2A7193B";
width = 610;
}
);
note = Ecircumflextilde;
unicode = 1EC4;
},
{
color = 8;
glyphname = Edieresis;
lastChange = "2018-04-10 14:14:53 +0000";
layers = (
{
background = {
paths = (
{
closed = 1;
nodes = (
"554 0 LINE",
"571 179 LINE",
"544 179 LINE",
"538 124 OFFCURVE",
"520 40 OFFCURVE",
"456 40 CURVE SMOOTH",
"201 40 LINE",
"201 659 LINE",
"441 659 LINE SMOOTH",
"516 659 OFFCURVE",
"525 567 OFFCURVE",
"528 527 CURVE",
"555 527 LINE",
"555 700 LINE",
"16 700 LINE",
"16 673 LINE",
"44 673 LINE SMOOTH",
"83 673 OFFCURVE",
"103 662 OFFCURVE",
"103 637 CURVE SMOOTH",
"103 62 LINE SMOOTH",
"103 37 OFFCURVE",
"83 26 OFFCURVE",
"44 26 CURVE SMOOTH",
"16 26 LINE",
"16 0 LINE"
);
},
{
closed = 1;
nodes = (
"455 251 LINE",
"455 485 LINE",
"431 485 LINE",
"427 436 OFFCURVE",
"424 388 OFFCURVE",
"379 388 CURVE SMOOTH",
"162 388 LINE",
"162 348 LINE",
"379 348 LINE SMOOTH",
"424 348 OFFCURVE",
"427 300 OFFCURVE",
"431 251 CURVE"
);
},
{
closed = 1;
nodes = (
"254 781 OFFCURVE",
"272 800 OFFCURVE",
"272 827 CURVE SMOOTH",
"272 855 OFFCURVE",
"254 875 OFFCURVE",
"225 875 CURVE SMOOTH",
"197 875 OFFCURVE",
"179 855 OFFCURVE",
"179 827 CURVE SMOOTH",
"179 800 OFFCURVE",
"197 781 OFFCURVE",
"225 781 CURVE SMOOTH"
);
},
{
closed = 1;
nodes = (
"470 781 OFFCURVE",
"488 800 OFFCURVE",
"488 827 CURVE SMOOTH",
"488 855 OFFCURVE",
"470 875 OFFCURVE",
"441 875 CURVE SMOOTH",
"412 875 OFFCURVE",
"394 855 OFFCURVE",
"394 827 CURVE SMOOTH",
"394 800 OFFCURVE",
"412 781 OFFCURVE",
"441 781 CURVE SMOOTH"
);
}
);
};
components = (
{
name = E;
},
{
name = dieresis;
transform = "{1, 0, 0, 1, -7, 230}";
}
);
layerId = "0B1DFD06-3317-40CA-B510-4969A0718C16";
width = 591;
},
{
components = (
{
name = E;
},
{
name = dieresis;
transform = "{1, 0, 0, 1, 24, 230}";
}
);
layerId = "204D14C0-8C16-4EB3-B338-290668FF7982";
width = 643;
},
{
components = (
{
name = E;
},
{
name = dieresis;
transform = "{1, 0, 0, 1, 4, 230}";
}
);
layerId = "A9086263-9647-4033-A5C5-78BCE2A7193B";
width = 610;
}
);
note = Edieresis;
unicode = 00CB;
},
{
color = 8;
glyphname = Edotaccent;
lastChange = "2018-04-10 14:14:53 +0000";
layers = (
{
background = {
paths = (
{
closed = 1;
nodes = (
"554 0 LINE",
"571 179 LINE",
"544 179 LINE",
"538 124 OFFCURVE",
"520 40 OFFCURVE",
"456 40 CURVE SMOOTH",
"201 40 LINE",
"201 659 LINE",
"441 659 LINE SMOOTH",
"516 659 OFFCURVE",
"525 567 OFFCURVE",
"528 527 CURVE",
"555 527 LINE",
"555 700 LINE",
"16 700 LINE",
"16 673 LINE",
"44 673 LINE SMOOTH",
"83 673 OFFCURVE",
"103 662 OFFCURVE",
"103 637 CURVE SMOOTH",
"103 62 LINE SMOOTH",
"103 37 OFFCURVE",
"83 26 OFFCURVE",
"44 26 CURVE SMOOTH",
"16 26 LINE",
"16 0 LINE"
);
},
{
closed = 1;
nodes = (
"455 251 LINE",
"455 485 LINE",
"431 485 LINE",
"427 436 OFFCURVE",
"424 388 OFFCURVE",
"379 388 CURVE SMOOTH",
"162 388 LINE",
"162 348 LINE",
"379 348 LINE SMOOTH",
"424 348 OFFCURVE",
"427 300 OFFCURVE",
"431 251 CURVE"
);
},
{
closed = 1;
nodes = (
"362 765 OFFCURVE",
"380 784 OFFCURVE",
"380 811 CURVE SMOOTH",
"380 839 OFFCURVE",
"362 858 OFFCURVE",
"334 858 CURVE SMOOTH",
"305 858 OFFCURVE",
"287 839 OFFCURVE",
"287 811 CURVE SMOOTH",
"287 784 OFFCURVE",
"305 765 OFFCURVE",
"334 765 CURVE SMOOTH"
);
}
);
};
components = (
{
name = E;
},
{
name = dotaccent;
transform = "{1, 0, 0, 1, -7, 230}";
}
);
layerId = "0B1DFD06-3317-40CA-B510-4969A0718C16";
width = 591;
},
{
components = (
{
name = E;
},
{
name = dotaccent;
transform = "{1, 0, 0, 1, 24, 230}";
}
);
layerId = "204D14C0-8C16-4EB3-B338-290668FF7982";
width = 643;
},
{
components = (
{
name = E;
},
{
name = dotaccent;
transform = "{1, 0, 0, 1, 4, 230}";
}
);
layerId = "A9086263-9647-4033-A5C5-78BCE2A7193B";
width = 610;
}
);
note = Edotaccent;
unicode = 0116;
},
{
color = 8;
glyphname = Edotbelow;
lastChange = "2018-04-10 14:14:53 +0000";
layers = (
{
background = {
paths = (
{
closed = 1;
nodes = (
"554 0 LINE",
"571 179 LINE",
"544 179 LINE",
"538 124 OFFCURVE",
"520 40 OFFCURVE",
"456 40 CURVE SMOOTH",
"201 40 LINE",
"201 659 LINE",
"441 659 LINE SMOOTH",
"516 659 OFFCURVE",
"525 567 OFFCURVE",
"528 527 CURVE",
"555 527 LINE",
"555 700 LINE",
"16 700 LINE",
"16 673 LINE",
"44 673 LINE SMOOTH",
"83 673 OFFCURVE",
"103 662 OFFCURVE",
"103 637 CURVE SMOOTH",
"103 62 LINE SMOOTH",
"103 37 OFFCURVE",
"83 26 OFFCURVE",
"44 26 CURVE SMOOTH",
"16 26 LINE",
"16 0 LINE"
);
},
{
closed = 1;
nodes = (
"343 -159 OFFCURVE",
"361 -140 OFFCURVE",
"361 -112 CURVE SMOOTH",
"361 -84 OFFCURVE",
"343 -64 OFFCURVE",
"315 -64 CURVE SMOOTH",
"287 -64 OFFCURVE",
"268 -84 OFFCURVE",
"268 -112 CURVE SMOOTH",
"268 -140 OFFCURVE",
"287 -159 OFFCURVE",
"315 -159 CURVE SMOOTH"
);
},
{
closed = 1;
nodes = (
"455 251 LINE",
"455 485 LINE",
"431 485 LINE",
"427 436 OFFCURVE",
"424 388 OFFCURVE",
"379 388 CURVE SMOOTH",
"162 388 LINE",
"162 348 LINE",
"379 348 LINE SMOOTH",
"424 348 OFFCURVE",
"427 300 OFFCURVE",
"431 251 CURVE"
);
}
);
};
components = (
{
name = E;
},
{
name = dotbelowcomb;
transform = "{1, 0, 0, 1, -7, 0}";
}
);
layerId = "0B1DFD06-3317-40CA-B510-4969A0718C16";
width = 591;
},
{
components = (
{
name = E;
},
{
name = dotbelowcomb;
transform = "{1, 0, 0, 1, 24, 0}";
}
);
layerId = "204D14C0-8C16-4EB3-B338-290668FF7982";
width = 643;
},
{
components = (
{
name = E;
},
{
name = dotbelowcomb;
transform = "{1, 0, 0, 1, 4, 0}";
}
);
layerId = "A9086263-9647-4033-A5C5-78BCE2A7193B";
width = 610;
}
);
note = Edotbelow;
unicode = 1EB8;
},
{
color = 8;
glyphname = Egrave;
lastChange = "2018-04-10 14:14:53 +0000";
layers = (
{
background = {
paths = (
{
closed = 1;
nodes = (
"554 0 LINE",
"571 179 LINE",
"544 179 LINE",
"538 124 OFFCURVE",
"520 40 OFFCURVE",
"456 40 CURVE SMOOTH",
"201 40 LINE",
"201 659 LINE",
"441 659 LINE SMOOTH",
"516 659 OFFCURVE",
"525 567 OFFCURVE",
"528 527 CURVE",
"555 527 LINE",
"555 700 LINE",
"16 700 LINE",
"16 673 LINE",
"44 673 LINE SMOOTH",
"83 673 OFFCURVE",
"103 662 OFFCURVE",
"103 637 CURVE SMOOTH",
"103 62 LINE SMOOTH",
"103 37 OFFCURVE",
"83 26 OFFCURVE",
"44 26 CURVE SMOOTH",
"16 26 LINE",
"16 0 LINE"
);
},
{
closed = 1;
nodes = (
"455 251 LINE",
"455 485 LINE",
"431 485 LINE",
"427 436 OFFCURVE",
"424 388 OFFCURVE",
"379 388 CURVE SMOOTH",
"162 388 LINE",
"162 348 LINE",
"379 348 LINE SMOOTH",
"424 348 OFFCURVE",
"427 300 OFFCURVE",
"431 251 CURVE"
);
},
{
closed = 1;
nodes = (
"425 807 LINE",
"310 913 LINE",
"301 922 OFFCURVE",
"285 937 OFFCURVE",
"265 937 CURVE SMOOTH",
"245 937 OFFCURVE",
"233 924 OFFCURVE",
"233 908 CURVE SMOOTH",
"233 890 OFFCURVE",
"245 876 OFFCURVE",
"264 865 CURVE SMOOTH",
"407 782 LINE"
);
}
);
};
components = (
{
name = E;
},
{
name = grave;
transform = "{1, 0, 0, 1, -7, 230}";
}
);
layerId = "0B1DFD06-3317-40CA-B510-4969A0718C16";
width = 591;
},
{
components = (
{
name = E;
},
{
name = grave;
transform = "{1, 0, 0, 1, 24, 230}";
}
);
layerId = "204D14C0-8C16-4EB3-B338-290668FF7982";
width = 643;
},
{
components = (
{
name = E;
},
{
name = grave;
transform = "{1, 0, 0, 1, 4, 230}";
}
);
layerId = "A9086263-9647-4033-A5C5-78BCE2A7193B";
width = 610;
}
);
note = Egrave;
unicode = 00C8;
},
{
color = 8;
glyphname = Ehookabove;
lastChange = "2018-04-10 14:14:53 +0000";
layers = (
{
background = {
paths = (
{
closed = 1;
nodes = (
"554 0 LINE",
"571 179 LINE",
"544 179 LINE",
"538 124 OFFCURVE",
"520 40 OFFCURVE",
"456 40 CURVE SMOOTH",
"201 40 LINE",
"201 659 LINE",
"441 659 LINE SMOOTH",
"516 659 OFFCURVE",
"525 567 OFFCURVE",
"528 527 CURVE",
"555 527 LINE",
"555 700 LINE",
"16 700 LINE",
"16 673 LINE",
"44 673 LINE SMOOTH",
"83 673 OFFCURVE",
"103 662 OFFCURVE",
"103 637 CURVE SMOOTH",
"103 62 LINE SMOOTH",
"103 37 OFFCURVE",
"83 26 OFFCURVE",
"44 26 CURVE SMOOTH",
"16 26 LINE",
"16 0 LINE"
);
},
{
closed = 1;
nodes = (
"455 251 LINE",
"455 485 LINE",
"431 485 LINE",
"427 436 OFFCURVE",
"424 388 OFFCURVE",
"379 388 CURVE SMOOTH",
"162 388 LINE",
"162 348 LINE",
"379 348 LINE SMOOTH",
"424 348 OFFCURVE",
"427 300 OFFCURVE",
"431 251 CURVE"
);
},
{
closed = 1;
nodes = (
"367 798 LINE",
"348 805 OFFCURVE",
"336 811 OFFCURVE",
"336 828 CURVE SMOOTH",
"336 861 OFFCURVE",
"425 876 OFFCURVE",
"425 927 CURVE SMOOTH",
"425 969 OFFCURVE",
"389 991 OFFCURVE",
"336 991 CURVE SMOOTH",
"289 991 OFFCURVE",
"248 974 OFFCURVE",
"248 940 CURVE SMOOTH",
"248 923 OFFCURVE",
"256 915 OFFCURVE",
"271 915 CURVE SMOOTH",
"294 915 OFFCURVE",
"296 934 OFFCURVE",
"299 942 CURVE SMOOTH",
"304 956 OFFCURVE",
"321 962 OFFCURVE",
"337 962 CURVE SMOOTH",
"358 962 OFFCURVE",
"371 947 OFFCURVE",
"371 930 CURVE SMOOTH",
"371 885 OFFCURVE",
"289 874 OFFCURVE",
"289 828 CURVE SMOOTH",
"289 801 OFFCURVE",
"307 778 OFFCURVE",
"358 778 CURVE"
);
}
);
};
components = (
{
name = E;
},
{
name = hookabovecomb;
transform = "{1, 0, 0, 1, -7, 230}";
}
);
layerId = "0B1DFD06-3317-40CA-B510-4969A0718C16";
width = 591;
},
{
components = (
{
name = E;
},
{
name = hookabovecomb;
transform = "{1, 0, 0, 1, 24, 230}";
}
);
layerId = "204D14C0-8C16-4EB3-B338-290668FF7982";
width = 643;
},
{
components = (
{
name = E;
},
{
name = hookabovecomb;
transform = "{1, 0, 0, 1, 4, 230}";
}
);
layerId = "A9086263-9647-4033-A5C5-78BCE2A7193B";
width = 610;
}
);
note = Ehookabove;
unicode = 1EBA;
},
{
color = 8;
glyphname = Emacron;
lastChange = "2018-04-10 14:14:53 +0000";
layers = (
{
background = {
paths = (
{
closed = 1;
nodes = (
"554 0 LINE",
"571 179 LINE",
"544 179 LINE",
"538 124 OFFCURVE",
"520 40 OFFCURVE",
"456 40 CURVE SMOOTH",
"201 40 LINE",
"201 659 LINE",
"441 659 LINE SMOOTH",
"516 659 OFFCURVE",
"525 567 OFFCURVE",
"528 527 CURVE",
"555 527 LINE",
"555 700 LINE",
"16 700 LINE",
"16 673 LINE",
"44 673 LINE SMOOTH",
"83 673 OFFCURVE",
"103 662 OFFCURVE",
"103 637 CURVE SMOOTH",
"103 62 LINE SMOOTH",
"103 37 OFFCURVE",
"83 26 OFFCURVE",
"44 26 CURVE SMOOTH",
"16 26 LINE",
"16 0 LINE"
);
},
{
closed = 1;
nodes = (
"455 251 LINE",
"455 485 LINE",
"431 485 LINE",
"427 436 OFFCURVE",
"424 388 OFFCURVE",
"379 388 CURVE SMOOTH",
"162 388 LINE",
"162 348 LINE",
"379 348 LINE SMOOTH",
"424 348 OFFCURVE",
"427 300 OFFCURVE",
"431 251 CURVE"
);
},
{
closed = 1;
nodes = (
"495 782 LINE",
"495 824 LINE",
"162 824 LINE",
"162 782 LINE"
);
}
);
};
components = (
{
name = E;
},
{
name = macron;
transform = "{1, 0, 0, 1, -7, 230}";
}
);
layerId = "0B1DFD06-3317-40CA-B510-4969A0718C16";
width = 591;
},
{
components = (
{
name = E;
},
{
name = macron;
transform = "{1, 0, 0, 1, 24, 230}";
}
);
layerId = "204D14C0-8C16-4EB3-B338-290668FF7982";
width = 643;
},
{
components = (
{
name = E;
},
{
name = macron;
transform = "{1, 0, 0, 1, 4, 230}";
}
);
layerId = "A9086263-9647-4033-A5C5-78BCE2A7193B";
width = 610;
}
);
note = Emacron;
unicode = 0112;
},
{
color = 8;
glyphname = Eogonek;
lastChange = "2018-04-10 14:14:53 +0000";
layers = (
{
background = {
paths = (
{
closed = 1;
nodes = (
"554 0 LINE",
"571 179 LINE",
"544 179 LINE",
"538 124 OFFCURVE",
"520 40 OFFCURVE",
"456 40 CURVE SMOOTH",
"201 40 LINE",
"201 659 LINE",
"441 659 LINE SMOOTH",
"516 659 OFFCURVE",
"525 567 OFFCURVE",
"528 527 CURVE",
"555 527 LINE",
"555 700 LINE",
"16 700 LINE",
"16 673 LINE",
"44 673 LINE SMOOTH",
"83 673 OFFCURVE",
"103 662 OFFCURVE",
"103 637 CURVE SMOOTH",
"103 62 LINE SMOOTH",
"103 37 OFFCURVE",
"83 26 OFFCURVE",
"44 26 CURVE SMOOTH",
"16 26 LINE",
"16 0 LINE"
);
},
{
closed = 1;
nodes = (
"496 -196 OFFCURVE",
"524 -189 OFFCURVE",
"549 -172 CURVE",
"543 -152 LINE",
"527 -158 OFFCURVE",
"510 -162 OFFCURVE",
"497 -162 CURVE SMOOTH",
"464 -162 OFFCURVE",
"437 -146 OFFCURVE",
"437 -106 CURVE SMOOTH",
"437 -66 OFFCURVE",
"464 -26 OFFCURVE",
"510 4 CURVE",
"469 4 LINE",
"416 -22 OFFCURVE",
"376 -64 OFFCURVE",
"376 -114 CURVE SMOOTH",
"376 -147 OFFCURVE",
"395 -196 OFFCURVE",
"470 -196 CURVE SMOOTH"
);
},
{
closed = 1;
nodes = (
"455 251 LINE",
"455 485 LINE",
"431 485 LINE",
"427 436 OFFCURVE",
"424 388 OFFCURVE",
"379 388 CURVE SMOOTH",
"162 388 LINE",
"162 348 LINE",
"379 348 LINE SMOOTH",
"424 348 OFFCURVE",
"427 300 OFFCURVE",
"431 251 CURVE"
);
}
);
};
components = (
{
name = E;
},
{
name = ogonek;
transform = "{1, 0, 0, 1, -7, 0}";
}
);
layerId = "0B1DFD06-3317-40CA-B510-4969A0718C16";
width = 591;
},
{
components = (
{
name = E;
},
{
name = ogonek;
transform = "{1, 0, 0, 1, 24, 0}";
}
);
layerId = "204D14C0-8C16-4EB3-B338-290668FF7982";
width = 643;
},
{
components = (
{
name = E;
},
{
name = ogonek;
transform = "{1, 0, 0, 1, 4, 0}";
}
);
layerId = "A9086263-9647-4033-A5C5-78BCE2A7193B";
width = 610;
}
);
note = Eogonek;
unicode = 0118;
},
